<?xml version="1.0" encoding="UTF-8"?>
<svg xmlns="http://www.w3.org/2000/svg" xmlns:xlink="http://www.w3.org/1999/xlink" baseProfile="tiny" contentScriptType="text/ecmascript" contentStyleType="text/css" height="96px" preserveAspectRatio="xMidYMid meet" version="1.1" viewBox="0 0 96 96" width="96px" x="0px" y="0px" zoomAndPan="magnify">
<defs>
<linearGradient gradientUnits="userSpaceOnUse" id="SVGID_1_-1" x1="0.71689999" x2="85.283096" y1="85.283096" y2="0.71689999">
<stop offset="0" stop-color="#eb424a"/>
<stop offset="1" stop-color="#ff7500"/>
</linearGradient>
<linearGradient gradientUnits="userSpaceOnUse" id="SVGID_1_-1" x1="0.71689999" x2="85.283096" y1="85.283096" y2="0.71689999">
<stop offset="0" stop-color="#eb424a"/>
<stop offset="1" stop-color="#ff7500"/>
</linearGradient>
<linearGradient gradientTransform="matrix(0.93676815,0,0,0.93676815,7.7189695,7.7189695)" gradientUnits="userSpaceOnUse" id="linearGradient4026" x1="0.71689999" x2="85.283096" y1="85.283096" y2="0.71689999">
<stop offset="0" stop-color="#eb424a"/>
<stop offset="1" stop-color="#ff7500"/>
</linearGradient>
</defs>
<linearGradient gradientUnits="userSpaceOnUse" x1="48.0005" x2="48.0005" y1="64.0918" y2="7.2435">
<stop offset="0" stop-color="#cee6f4"/>
<stop offset="0.6319" stop-color="#00a5db"/>
<stop offset="1" stop-color="#0049b5"/>
</linearGradient>
<linearGradient gradientUnits="userSpaceOnUse" x1="63.8428" x2="61.5986" y1="50.6309" y2="66.3398">
<stop offset="0" stop-color="#509600"/>
<stop offset="1" stop-color="#005600"/>
</linearGradient>
<linearGradient gradientUnits="userSpaceOnUse" x1="47.3193" x2="42.1094" y1="54.7568" y2="92.3372">
<stop offset="0" stop-color="#509600"/>
<stop offset="1" stop-color="#005600"/>
</linearGradient>
<linearGradient gradientUnits="userSpaceOnUse" x1="47.9995" x2="47.9995" y1="8" y2="88.0005">
<stop offset="0" stop-color="#ffffff"/>
<stop offset="1" stop-color="#ffffff" stop-opacity="0"/>
</linearGradient>
<linearGradient gradientUnits="userSpaceOnUse" x1="48.6455" x2="42.878" y1="51.7813" y2="75.7812">
<stop offset="0" stop-color="#509600"/>
<stop offset="1" stop-color="#005600"/>
</linearGradient>
<linearGradient gradientUnits="userSpaceOnUse" x1="62.5205" x2="62.5205" y1="69.875" y2="89.8709">
<stop offset="0" stop-color="#509600"/>
<stop offset="1" stop-color="#005600"/>
</linearGradient>
<linearGradient gradientUnits="userSpaceOnUse" id="SVGID_7_" x1="38.4907" x2="38.4907" y1="25.3394" y2="36.6677">
<stop offset="0" stop-color="#ffffff"/>
<stop offset="1" stop-color="#ffffff" stop-opacity="0"/>
</linearGradient>
<path d="M 49.326 28.4 C 49.326 28.4 49.537 28.55 49.375 28.593 C 49.215 28.636 49.176 28.593 49.15 28.702 C 49.125 28.809 48.951 28.958 48.902 28.864 C 48.851 28.766 48.564 28.635 48.504 28.635 C 48.44 28.635 48.414 28.475 48.316 28.422 C 48.216003 28.367 48.128 28.289 48.064003 28.334002 C 48.003 28.377 47.800003 28.582 47.800003 28.484 C 47.800003 28.386002 47.552 28.312 47.716003 28.3 C 47.878 28.288002 48.128 28.193 47.941 28.097002 C 47.752003 28.001 47.566 27.804005 47.701 27.718002 C 47.842 27.632002 47.777 27.470003 47.814 27.384005 C 47.851 27.298002 47.941 27.265003 48.078 27.265003 C 48.217 27.265003 48.328 27.201004 48.176 27.105003 C 48.028 27.007004 47.752 26.843004 47.666 26.855003 C 47.58 26.869003 47.254 27.039003 47.303 26.953005 C 47.354 26.869003 47.592003 26.803003 47.629 26.769005 C 47.666 26.738005 47.692 26.693005 47.527 26.650003 C 47.365 26.607004 47.168 26.812004 47.091 26.781004 C 47.017 26.748005 46.777 26.748005 46.829 26.640003 C 46.878 26.533005 46.753 26.445004 46.914997 26.413004 C 47.079 26.382004 47.215996 26.315004 47.052 26.218004 C 46.89 26.122004 46.591 26.273005 46.526997 26.122004 C 46.465996 25.972004 46.33 25.774004 46.130997 25.852003 C 45.929996 25.926004 45.754 26.186005 45.629 26.088003 C 45.505997 25.990004 45.481 25.895002 45.217 25.938004 C 44.957 25.981005 44.895 26.165005 44.717 26.122004 C 44.543 26.079004 44.594 25.905005 44.418 25.960005 C 44.244 26.013002 44.119 26.067003 44.17 26.218002 C 44.220997 26.370005 43.945 26.640003 43.945 26.640003 C 43.945 26.640003 44.17 26.370005 44.07 26.273005 C 43.97 26.176004 43.744 26.316002 43.656 26.382002 C 43.57 26.445002 43.32 26.802002 43.183 26.79 C 43.046 26.78 42.921 26.79 42.87 26.888 C 42.821 26.984 42.485 27.523 42.321 27.503 C 42.159 27.482 42.059 27.437 42.059 27.384 C 42.059 27.329 42.545 26.738 41.92 26.456 C 41.92 26.456 41.695 26.52 41.684 26.403002 C 41.67 26.282 41.272 26.089005 40.934 26.37 L 40.809 26.206 C 40.809 26.206 40.734997 25.96 40.286 25.841002 C 39.837 25.724 40.057 25.648 39.811 25.605 C 39.559 25.562002 39.284 25.474 39.123 25.496002 C 38.961 25.519005 38.685 25.734003 38.662003 25.637005 C 38.635 25.539003 38.500004 25.379004 38.500004 25.379004 C 38.500004 25.379004 38.648003 25.121004 38.400005 25.078005 C 38.148006 25.033005 38.023006 25.238005 37.925007 25.195004 C 37.82301 25.154003 37.675007 24.968004 37.562008 25.002005 C 37.44901 25.033005 37.15001 25.229002 37.175007 25.326002 C 37.20001 25.422005 37.025005 25.574 37.025005 25.574 C 37.025005 25.574 36.912006 25.539 36.937004 25.388 C 36.962 25.237 36.738003 25.259 36.701004 25.247 C 36.666004 25.237 36.625004 25.28 36.47601 25.378 C 36.326004 25.474 36.08701 25.573 36.12801 25.681 C 36.16301 25.786 36.026005 25.874 35.937004 25.917 C 35.85101 25.96 35.791004 26.036 35.779003 26.079 C 35.765003 26.122 35.488003 26.186 35.451004 26.327 C 35.416004 26.468 35.44101 26.649 35.314003 26.671 C 35.189003 26.692 34.828003 26.79 34.816 26.921 C 34.804 27.05 34.828003 27.179 34.951 27.114 C 35.08 27.05 35.416 26.94 35.314 27.016 C 35.214 27.092 35.128 27.157 34.902 27.233 C 34.677 27.307 34.515 27.393 34.515 27.317 C 34.515 27.243 34.54 27.2 34.392 27.169 C 34.241997 27.135998 34.031 27.286 33.98 27.255 C 33.929 27.221998 33.992 27.148 34.017 27.105 C 34.042 27.06 34.154 26.996 33.98 26.984 C 33.804 26.972 33.58 26.908 33.58 27.05 C 33.58 27.191 33.554996 27.384 33.491997 27.308 C 33.430996 27.234 33.389996 27.114998 33.389996 27.081 C 33.389996 27.05 33.229996 27.169 33.203995 27.114 C 33.177994 27.059002 33.139996 26.887 33.078995 26.887 C 33.015995 26.887 32.926994 26.961 32.904995 27.071 C 32.877995 27.178 32.853996 27.274 32.691994 27.274 C 32.52999 27.274 32.529995 27.329 32.666992 27.448 C 32.803993 27.565 32.89199 27.46 33.041992 27.546 C 33.191994 27.632 33.275993 27.751 33.053993 27.804 C 32.828995 27.856998 32.877995 27.794 32.692993 27.73 C 32.503994 27.666 32.503994 27.503 32.379993 27.482 C 32.252995 27.461 32.006992 27.589 31.955994 27.707 C 31.904991 27.826 32.066994 27.857 32.268993 27.85 C 32.467995 27.838 32.643993 27.934 32.393993 27.955 C 32.143993 27.976 31.981993 27.902 31.817991 27.857 C 31.655993 27.816 31.555994 27.752 31.454992 27.89 C 31.356993 28.033 31.454992 28.009 31.243992 28.064 C 31.030993 28.117 31.044992 28.171 31.132992 28.226002 C 31.220991 28.281002 31.232992 28.408 31.419992 28.408 C 31.606993 28.408 31.732992 28.422 31.655993 28.474 C 31.583992 28.529 31.294992 28.505 31.243992 28.603 C 31.192991 28.701 31.081991 28.83 31.257992 28.894 C 31.431992 28.957 31.405993 29.132002 31.318993 29.152 C 31.232992 29.175 31.132992 29.099 30.996992 29.24 C 30.857992 29.381 30.920992 29.412 30.621992 29.381 C 30.322992 29.348 30.096992 29.436 29.996992 29.52 C 29.896992 29.606 29.410992 29.952 29.283993 29.885 C 29.160994 29.821 29.010992 29.703 28.933992 29.727 C 28.859991 29.747 28.884993 29.897 28.910992 29.942 C 28.933992 29.983 28.709991 30.081 28.822992 30.102 C 28.933992 30.123 29.047993 30.135 29.084991 30.157 C 29.12199 30.179 29.084991 30.245 29.021992 30.286 C 28.96099 30.331 28.859991 30.405 28.859991 30.448 C 28.859991 30.491 28.82699 30.616 28.785992 30.632 C 28.609991 30.698 28.373993 30.859 28.609991 30.966 C 28.84999 31.075 29.09999 31.064 29.035992 31.15 C 28.972992 31.236 28.771992 31.205 28.748993 31.3 C 28.723991 31.398 28.660992 31.484 28.609991 31.452 C 28.560991 31.419 28.57299 31.321 28.560991 31.268 C 28.546991 31.215 28.52399 31.041 28.386992 31.149 C 28.247992 31.256 28.296991 31.364 28.234991 31.397 C 28.171991 31.428 28.14899 31.442 28.074991 31.442 C 27.998993 31.442 27.89899 31.408998 27.847992 31.462 C 27.798992 31.517 27.773993 31.528 27.673992 31.364 C 27.573992 31.204 27.273993 31.364 27.298992 31.473 C 27.323992 31.58 27.161991 31.786 27.110992 31.774 C 27.061993 31.762 26.038992 32.055 26.589993 32.422 C 27.136992 32.789 27.448992 32.854 27.372992 33.121002 C 27.298994 33.392002 27.548994 33.574 27.860994 33.789 C 28.171995 34.006 28.096994 34.287003 27.909994 34.363003 C 27.721994 34.437004 27.712994 34.771004 28.022997 34.783 C 28.335997 34.793 28.559996 34.728 28.647997 34.847 C 28.733995 34.966 29.159994 35.062 29.307997 34.954 C 29.457994 34.847 29.645994 34.718 29.870996 34.663 C 30.095997 34.609997 30.393995 34.384 30.257994 34.253 C 30.120996 34.123997 29.995996 33.908997 29.995996 33.908997 C 29.995996 33.908997 30.384996 33.896996 30.495996 33.799995 C 30.606997 33.703995 30.694994 33.875996 30.882994 33.897995 C 31.070992 33.920994 31.271994 33.756996 31.382994 33.866997 C 31.493994 33.973995 31.970991 33.866997 31.970991 33.823997 C 31.970991 33.781 32.05699 33.412 32.079994 33.553997 C 32.106995 33.692997 32.317993 33.834995 32.393993 33.788 C 32.467995 33.745 32.604992 33.683 32.530994 33.628 C 32.454994 33.573 32.280994 33.487 32.405994 33.422997 C 32.530994 33.358994 32.468994 33.270996 32.544994 33.217995 C 32.618996 33.164993 32.667995 33.057995 32.767994 33.143993 C 32.869995 33.227993 33.080994 33.17499 33.140995 33.315994 C 33.204994 33.456993 33.130997 33.62899 33.290997 33.618996 C 33.452995 33.606995 33.629 33.380997 33.691 33.411995 C 33.754997 33.444996 33.928997 33.337994 33.941 33.434994 C 33.955 33.532993 33.713997 33.723995 33.89 33.723995 C 34.064 33.723995 34.29 33.563995 34.427 33.455994 C 34.564 33.346992 34.713997 33.185993 34.677 33.303993 C 34.64 33.422993 34.227997 33.682995 34.427 33.756992 C 34.626 33.83499 34.852997 33.594994 34.914997 33.658993 C 34.976997 33.722992 35.150997 33.87599 35.289997 33.865993 C 35.427 33.855995 35.736996 33.82299 35.887997 33.734993 C 35.887997 33.734993 35.936996 34.166992 36.4 34.21199 C 36.4 34.21199 36.488 34.609993 37.052 34.467995 C 37.052 34.467995 36.911 34.555996 37.052 34.791996 C 37.052 34.791996 36.425 34.705997 36.302 34.97599 C 36.302 34.97599 36.038 35.127995 36.439 35.245995 C 36.439 35.245995 36.502 35.493996 36.675 35.474995 C 36.849 35.451996 36.911 35.548996 36.989 35.581993 C 37.060997 35.61299 37.248997 35.51799 37.373997 35.483994 C 37.498997 35.449993 37.549995 35.36499 37.649 35.450993 C 37.747 35.538994 39.434 36.130993 39.633 34.804993 C 39.633 34.804993 40.008 34.511993 40.02 34.200993 C 40.034 33.887993 40.182 34.07999 40.434 33.921993 C 40.682003 33.75799 40.782 33.921993 40.721 34.01799 C 40.658 34.113995 40.508 34.275993 40.619 34.384995 C 40.732 34.491993 41.131 34.695995 41.131 34.501995 C 41.131 34.307995 41.219 34.231995 41.158 34.136993 C 41.095 34.038994 40.918 33.952995 41.181 33.888992 C 41.441 33.824993 41.468 33.781994 41.533 33.812992 C 41.594 33.845993 41.744 33.781994 41.83 33.638992 C 41.918003 33.50199 41.893 33.435993 42.006 33.392994 C 42.119 33.347996 42.319 33.824993 42.43 33.587994 C 42.543 33.347992 42.282 33.175995 42.455 33.112995 C 42.631 33.046993 42.766003 33.155994 42.766003 33.155994 L 42.618004 33.563995 C 42.618004 33.563995 42.716003 33.573994 42.792004 33.508995 C 42.868004 33.443996 42.942005 33.422997 42.942005 33.326996 C 42.942005 33.226997 42.956005 33.154995 42.956005 33.088997 C 42.956005 33.024998 43.030006 32.959995 43.144005 33.012997 C 43.255005 33.067997 43.332005 33.131996 43.244003 33.227997 C 43.156 33.327995 43.256004 33.368996 43.404003 33.444996 C 43.556004 33.520996 43.556004 33.346996 43.679005 33.327995 C 43.804005 33.304996 43.978004 33.186996 43.917004 33.046997 C 43.854004 32.906 43.769005 32.822 43.903004 32.691998 C 44.042004 32.562996 44.018005 32.679996 44.167004 32.628 C 44.317005 32.574997 44.317005 32.392 44.329 32.208 C 44.343 32.024002 44.491 32.14 44.565 32.044 C 44.641003 31.947998 44.616 31.850998 44.79 31.881998 C 44.968 31.915 44.804 31.981998 44.767 32.096996 C 44.730003 32.217995 44.804 32.291996 44.878 32.399998 C 44.954 32.509 45.392 32.488 45.302 32.293 C 45.214 32.098 45.066 31.992 45.241 31.992 C 45.415 31.992 45.415 32.133 45.616 32.076 C 45.815 32.025 45.94 32.013 46.052 31.906 C 46.163 31.797 46.228 31.722 46.314003 31.818 C 46.404003 31.916 46.742004 31.83 46.789 31.83 C 46.838 31.83 46.928 31.873 46.953003 31.916 C 46.976 31.961 47.238003 32.133 47.449 31.971 C 47.664 31.811 47.789 31.7 47.65 31.508 C 47.513 31.313002 47.589 31.248 47.425003 31.237 C 47.263004 31.227 46.927 31.399002 46.888004 31.237 C 46.849003 31.077002 46.952003 31.108002 47.089005 31.044 C 47.22601 30.98 47.153004 30.796 46.92701 30.741 C 46.702007 30.688002 46.513004 30.634 46.60101 30.526 C 46.689007 30.417002 46.953007 30.397 47.078007 30.321 C 47.203007 30.247002 47.264008 30.094002 47.375008 30.083 C 47.488007 30.071 47.689007 30.04 47.627007 30.095 C 47.565006 30.149998 47.375008 30.267 47.363007 30.333 C 47.35101 30.397 47.287006 30.536 47.60101 30.536 C 47.912006 30.536 47.974007 30.526 48.025005 30.688 C 48.076004 30.848 48.113007 31.001 48.336006 30.881 C 48.563007 30.764 48.637005 30.688 48.490005 30.567 C 48.336006 30.45 48.150005 30.374 48.326004 30.333002 C 48.502003 30.288002 48.648003 30.138002 48.662003 30.235004 C 48.676003 30.332005 48.363003 30.590002 48.599003 30.622002 C 48.837 30.653002 49.074 30.526 49.050003 30.386002 C 49.023003 30.247002 48.872 29.771002 49.185 29.642002 C 49.499 29.513002 49.535 29.599005 49.523003 29.652002 C 49.511 29.707005 49.586 29.945002 49.773003 29.888002 C 49.961 29.835005 49.836 29.868002 50.023003 29.868002 C 50.210003 29.868002 50.373 29.782 50.322 29.651005 C 50.275 29.522003 50.06 29.438004 50.234 29.350002 C 50.41 29.264002 50.574 29.049002 50.547 28.854002 C 50.524 28.659002 50.51 28.499002 50.424 28.520002 C 50.336 28.540005 50.223 28.618002 50.199 28.563002 C 50.17 28.508 50.336 28.401 50.248 28.206 C 50.16 28.013 50.1 27.979002 49.9 27.927002 C 49.699 27.872002 49.636 28.058002 49.5 28.005 C 49.361 27.948002 49.475 27.808 49.586 27.734 C 49.698997 27.658 49.698997 27.539 49.6 27.464 C 49.5 27.388 49.313 27.452002 49.461 27.29 C 49.611 27.128 49.389 26.935 49.212997 27.03 C 49.037 27.128 49.051 27.194 49.073997 27.321 C 49.099 27.452002 49.448997 27.485 49.249996 27.604 C 49.050995 27.721 49.312996 27.776 49.147995 27.84 C 48.987995 27.904 48.737995 28.012 48.887997 28.088 C 49.039 28.164 48.852 28.52 49.326 28.4 z " fill="url(#SVGID_7_)"/>
<radialGradient cx="980.3281" cy="-307.4312" gradientTransform="matrix(0.8148 0 0 0.3704 -765.7714 144.8726)" gradientUnits="userSpaceOnUse" id="SVGID_8_" r="13.5">
<stop offset="0" stop-color="#ffffff" stop-opacity="0.8"/>
<stop offset="0.9" stop-color="#ffffff" stop-opacity="0"/>
<stop offset="1" stop-color="#ffffff" stop-opacity="0"/>
</radialGradient>
<ellipse cx="33" cy="31" fill="url(#SVGID_8_)" rx="11" ry="5"/>
<linearGradient gradientUnits="userSpaceOnUse" id="SVGID_9_" x1="62.3027" x2="62.3027" y1="27.8599" y2="42.4968">
<stop offset="0" stop-color="#ffffff"/>
<stop offset="0.6054" stop-color="#ffffff" stop-opacity="0"/>
<stop offset="1" stop-color="#ffffff" stop-opacity="0"/>
</linearGradient>
<path d="M 55.191 33.896 C 55.191 33.896 55.076 33.763 55.183 33.75 C 55.290005 33.737 55.31 33.771 55.341003 33.695 C 55.370003 33.621 55.497 33.531 55.517 33.605 C 55.537003 33.681 55.701 33.808 55.74 33.816 C 55.781 33.822 55.775 33.942997 55.83 33.991997 C 55.889 34.042995 55.932003 34.108997 55.978 34.083996 C 56.023 34.05899 56.175 33.93399 56.164 34.00399 C 56.153004 34.073994 56.299 34.157993 56.195 34.146996 C 56.09 34.136997 55.92 34.179996 56.027 34.269997 C 56.132 34.361996 56.224 34.525997 56.129 34.573 C 56.029003 34.62 56.049 34.745 56.014 34.803 C 55.979 34.860996 55.918 34.874996 55.834 34.859997 C 55.746 34.845997 55.668 34.879997 55.75 34.966995 C 55.832 35.053993 55.984 35.202995 56.041 35.202995 C 56.096 35.20499 56.324 35.116997 56.281 35.173996 C 56.24 35.230995 56.08 35.249996 56.052 35.271996 C 56.025 35.291996 56.003 35.320995 56.101 35.369995 C 56.199 35.418995 56.349003 35.291996 56.394 35.32299 C 56.435 35.353992 56.587 35.381992 56.54 35.453995 C 56.495003 35.527996 56.563 35.605995 56.456 35.609993 C 56.349003 35.615993 56.255 35.64699 56.345 35.73699 C 56.435 35.824993 56.644 35.748993 56.663 35.865993 C 56.683 35.980995 56.745003 36.138992 56.88 36.103992 C 57.019 36.07299 57.159 35.902992 57.228 35.98899 C 57.292 36.07299 57.296 36.14699 57.468 36.14499 C 57.638 36.140987 57.7 36.015987 57.806004 36.06699 C 57.912006 36.117992 57.859005 36.23899 57.974003 36.21699 C 58.091003 36.19699 58.177 36.171993 58.165005 36.05699 C 58.151005 35.94199 58.362003 35.775993 58.362003 35.775993 C 58.362003 35.775993 58.184 35.94799 58.233 36.029995 C 58.284 36.111996 58.446003 36.033997 58.508003 35.99699 C 58.572 35.959995 58.776005 35.726994 58.860004 35.750996 C 58.946003 35.77399 59.026005 35.779995 59.071003 35.715996 C 59.114 35.651997 59.395004 35.296 59.495003 35.328995 C 59.597004 35.361996 59.653004 35.404995 59.645004 35.443996 C 59.637005 35.483 59.256004 35.861996 59.61401 36.134995 C 59.61401 36.134995 59.764008 36.111996 59.757008 36.198994 C 59.74901 36.288994 59.97801 36.473995 60.22601 36.305992 L 60.28301 36.43899 C 60.28301 36.43899 60.30101 36.62699 60.56801 36.762993 C 60.835007 36.89899 60.687008 36.928993 60.83801 36.98799 C 60.99201 37.048992 61.152008 37.14199 61.25601 37.14399 C 61.363007 37.14599 61.565006 37.02099 61.569008 37.09299 C 61.57301 37.166992 61.63701 37.29999 61.63701 37.29999 C 61.63701 37.29999 61.51001 37.471992 61.660007 37.52999 C 61.814007 37.590992 61.918007 37.45399 61.974007 37.49699 C 62.033005 37.53799 62.10301 37.687992 62.17901 37.67699 C 62.25301 37.66899 62.46801 37.55799 62.46401 37.48599 C 62.46201 37.41399 62.591007 37.321987 62.591007 37.321987 C 62.591007 37.321987 62.65701 37.358986 62.62401 37.466988 C 62.58701 37.573982 62.731007 37.58199 62.75501 37.59599 C 62.77501 37.605988 62.806007 37.57999 62.91301 37.52599 C 63.01801 37.47299 63.18301 37.42799 63.17101 37.34399 C 63.16301 37.26399 63.26101 37.21499 63.32101 37.19399 C 63.381012 37.17299 63.43001 37.12399 63.44401 37.09399 C 63.45801 37.06399 63.63901 37.04699 63.68201 36.94899 C 63.721012 36.84899 63.72901 36.71699 63.81301 36.71499 C 63.893013 36.71299 64.13301 36.681988 64.15901 36.58799 C 64.182014 36.49599 64.18401 36.39899 64.09601 36.43199 C 64.008 36.464993 63.78201 36.505993 63.856007 36.46299 C 63.928005 36.41799 63.993008 36.38099 64.143005 36.34999 C 64.295006 36.32299 64.409004 36.277992 64.40101 36.33199 C 64.39101 36.38699 64.36801 36.41599 64.45801 36.452988 C 64.548004 36.495987 64.70201 36.40999 64.72901 36.43699 C 64.75801 36.46599 64.70801 36.514988 64.68601 36.54199 C 64.66501 36.572987 64.58601 36.605988 64.694016 36.633987 C 64.80302 36.662987 64.93601 36.73599 64.95402 36.63199 C 64.974014 36.52799 65.015015 36.389988 65.044014 36.453987 C 65.07301 36.514988 65.083015 36.60399 65.07902 36.629986 C 65.07502 36.652985 65.19202 36.582985 65.20002 36.625984 C 65.21002 36.666985 65.21402 36.797985 65.25102 36.805984 C 65.29002 36.811985 65.356026 36.766983 65.384026 36.690983 C 65.41502 36.61698 65.44302 36.54798 65.54403 36.565983 C 65.648026 36.585983 65.65303 36.544983 65.58303 36.44298 C 65.51103 36.34098 65.44403 36.40998 65.36003 36.33198 C 65.27403 36.25198 65.23703 36.15398 65.38303 36.142982 C 65.53104 36.126984 65.492035 36.167984 65.602036 36.236984 C 65.713036 36.304985 65.69203 36.422985 65.768036 36.451984 C 65.84404 36.480984 66.018036 36.414986 66.06503 36.334984 C 66.11203 36.254986 66.01403 36.213985 65.88503 36.195984 C 65.75803 36.183983 65.658035 36.093983 65.82103 36.105984 C 65.98103 36.117985 66.07303 36.191982 66.17103 36.240986 C 66.26903 36.28998 66.32303 36.34798 66.40503 36.258984 C 66.48503 36.166985 66.42103 36.170982 66.56103 36.154984 C 66.70103 36.138985 66.70003 36.097984 66.651024 36.049984 C 66.60403 36.000984 66.61202 35.906982 66.49303 35.885983 C 66.37603 35.864983 66.29803 35.840984 66.35203 35.81198 C 66.40703 35.780983 66.58403 35.829983 66.62903 35.76298 C 66.67403 35.69598 66.76203 35.61698 66.65803 35.54998 C 66.55603 35.48598 66.594025 35.36098 66.65203 35.35498 C 66.71004 35.34898 66.76303 35.41598 66.86903 35.32798 C 66.97303 35.24198 66.93903 35.21098 67.12103 35.26698 C 67.30703 35.32398 67.46103 35.28698 67.535034 35.23598 C 67.60904 35.184982 67.95904 34.98798 68.03104 35.04798 C 68.09904 35.11098 68.18104 35.211983 68.23203 35.20398 C 68.28104 35.19798 68.285034 35.08498 68.27303 35.04998 C 68.26303 35.01698 68.41904 34.97198 68.34903 34.94298 C 68.28303 34.91598 68.21203 34.893986 68.19103 34.87498 C 68.17104 34.85498 68.20303 34.81198 68.24803 34.78698 C 68.29303 34.76198 68.36704 34.71898 68.37103 34.68698 C 68.37703 34.655983 68.41203 34.56798 68.44103 34.56198 C 68.56004 34.53298 68.73203 34.44298 68.59503 34.33898 C 68.45803 34.231983 68.298035 34.211983 68.35103 34.156982 C 68.40203 34.101982 68.523026 34.146984 68.550026 34.078983 C 68.579025 34.010983 68.63003 33.955982 68.65703 33.98498 C 68.68203 34.01398 68.663025 34.08298 68.663025 34.12398 C 68.66702 34.162983 68.65903 34.29198 68.759026 34.22898 C 68.86102 34.16598 68.843025 34.08298 68.886024 34.06498 C 68.93102 34.04898 68.94702 34.04398 68.995026 34.05098 C 69.04202 34.05898 69.10003 34.09398 69.14002 34.060974 C 69.180016 34.027977 69.19502 34.021976 69.23602 34.152977 C 69.27902 34.279976 69.49002 34.197975 69.48602 34.11598 C 69.48602 34.033978 69.61502 33.902977 69.64402 33.916977 C 69.67502 33.930977 70.35902 33.83098 70.05802 33.502975 C 69.75902 33.174976 69.57002 33.092976 69.65402 32.906975 C 69.734024 32.717976 69.60102 32.556976 69.43102 32.365974 C 69.26302 32.172974 69.345024 31.976974 69.47202 31.941977 C 69.60102 31.908974 69.650024 31.666977 69.456024 31.623974 C 69.259026 31.582972 69.11002 31.603971 69.06902 31.508974 C 69.03002 31.410976 68.772026 31.295977 68.66702 31.356974 C 68.55802 31.419971 68.42302 31.491974 68.272026 31.504974 C 68.12402 31.520975 67.90703 31.650974 67.97703 31.760977 C 68.04503 31.869974 68.09803 32.039974 68.09803 32.039974 C 68.09803 32.039974 67.85003 32.004974 67.76803 32.062973 C 67.68603 32.12097 67.65303 31.986973 67.536026 31.949972 C 67.42103 31.912971 67.274025 32.008972 67.218025 31.916971 C 67.161026 31.826971 66.845024 31.852972 66.84103 31.88397 C 66.83503 31.91497 66.734024 32.17297 66.73602 32.06797 C 66.73802 31.96297 66.623024 31.83797 66.56802 31.86097 C 66.51502 31.88397 66.42202 31.91597 66.46102 31.962969 C 66.50402 32.01197 66.60202 32.093967 66.51602 32.12697 C 66.428024 32.15997 66.455025 32.23097 66.40302 32.259968 C 66.34802 32.290966 66.303024 32.363968 66.25302 32.290966 C 66.19802 32.216965 66.06002 32.231968 66.038025 32.122967 C 66.01603 32.013966 66.08502 31.895967 65.981026 31.886969 C 65.87703 31.877966 65.73702 32.021965 65.70203 31.991966 C 65.66702 31.960966 65.54403 32.018967 65.54803 31.946966 C 65.552025 31.874966 65.72803 31.760963 65.61603 31.741966 C 65.50703 31.721966 65.345024 31.813969 65.24303 31.876966 C 65.14303 31.940966 65.02803 32.040966 65.065025 31.960966 C 65.10403 31.876966 65.397026 31.733969 65.28203 31.657969 C 65.16703 31.579967 64.99303 31.727966 64.96003 31.675966 C 64.93103 31.620966 64.83903 31.489964 64.75103 31.484966 C 64.66503 31.474966 64.46203 31.464966 64.35603 31.509966 C 64.35603 31.509966 64.381035 31.191963 64.09403 31.107964 C 64.09403 31.107964 64.090034 30.808966 63.71503 30.849966 C 63.71503 30.849966 63.81503 30.800966 63.75803 30.613966 C 63.75803 30.613966 64.14103 30.744968 64.25403 30.562963 C 64.25403 30.562963 64.440025 30.480965 64.203026 30.351965 C 64.203026 30.351965 64.19502 30.163963 64.08202 30.160963 C 63.969025 30.157965 63.943024 30.078964 63.898026 30.047964 C 63.855022 30.014963 63.724026 30.065964 63.642025 30.074965 C 63.558025 30.084965 63.515022 30.140965 63.462025 30.066963 C 63.413025 29.992966 62.423023 29.373964 62.128025 30.316963 C 62.128025 30.316963 61.853024 30.488966 61.806023 30.712963 C 61.757027 30.939964 61.689026 30.782965 61.509026 30.868963 C 61.331024 30.960964 61.288025 30.829966 61.339027 30.766966 C 61.39203 30.703966 61.509026 30.602966 61.450027 30.510963 C 61.39103 30.420963 61.16903 30.227966 61.14303 30.367966 C 61.117027 30.507963 61.05303 30.555964 61.07903 30.631966 C 61.10603 30.709965 61.206028 30.791964 61.03203 30.809963 C 60.860027 30.829966 60.83703 30.856966 60.80003 30.825966 C 60.76703 30.796968 60.66303 30.825966 60.59103 30.919966 C 60.51903 31.009966 60.52503 31.060966 60.44803 31.079966 C 60.37103 31.098965 60.305027 30.729963 60.206028 30.890966 C 60.104027 31.052967 60.24703 31.206966 60.12803 31.232967 C 60.01103 31.261969 59.93903 31.166967 59.93903 31.166967 L 60.08503 30.887968 C 60.08503 30.887968 60.02403 30.869968 59.96803 30.907969 C 59.91103 30.946968 59.86303 30.95497 59.84903 31.02497 C 59.83703 31.09697 59.82003 31.147968 59.810028 31.19497 C 59.80203 31.24197 59.74703 31.28097 59.68303 31.229967 C 59.61903 31.17697 59.57903 31.122969 59.64803 31.06197 C 59.71403 30.99897 59.658028 30.95797 59.574028 30.88597 C 59.48803 30.813969 59.465027 30.94097 59.38503 30.942968 C 59.30303 30.94497 59.180027 31.01097 59.199028 31.120968 C 59.220028 31.229967 59.263027 31.300968 59.16203 31.380968 C 59.05703 31.458967 59.088028 31.376968 58.98803 31.398968 C 58.88403 31.419968 58.86303 31.552967 58.83003 31.685968 C 58.79903 31.816969 58.721027 31.716969 58.66003 31.779968 C 58.59903 31.84097 58.60303 31.914968 58.49803 31.871967 C 58.391033 31.828968 58.502033 31.797968 58.54103 31.717968 C 58.57803 31.635967 58.54103 31.572968 58.510033 31.487968 C 58.475033 31.397968 58.197033 31.36497 58.22703 31.516968 C 58.25803 31.668968 58.33803 31.762968 58.22703 31.741968 C 58.11803 31.723969 58.135033 31.622969 58.00003 31.639969 C 57.86903 31.653969 57.789032 31.64997 57.705032 31.71597 C 57.621033 31.78197 57.57003 31.82897 57.52703 31.74897 C 57.484028 31.66897 57.25903 31.69197 57.23003 31.68797 C 57.19903 31.681969 57.14803 31.640968 57.13603 31.60797 C 57.12603 31.570969 56.984028 31.41897 56.82903 31.511969 C 56.67303 31.605968 56.581028 31.66997 56.64303 31.825968 C 56.70403 31.983969 56.64903 32.02097 56.750027 32.04897 C 56.850025 32.071968 57.086025 31.98597 57.088028 32.10997 C 57.09203 32.22897 57.03103 32.19597 56.938023 32.22697 C 56.842026 32.25797 56.866028 32.40097 57.002026 32.46497 C 57.135025 32.52897 57.248024 32.58997 57.178024 32.65597 C 57.110023 32.72597 56.940025 32.71297 56.852024 32.75397 C 56.764023 32.79497 56.706024 32.89897 56.633022 32.89497 C 56.56002 32.89097 56.430023 32.89097 56.477024 32.85797 C 56.522022 32.82497 56.657024 32.75997 56.672024 32.71297 C 56.690025 32.667973 56.746025 32.57197 56.547024 32.53897 C 56.352024 32.50397 56.311024 32.50397 56.299023 32.38097 C 56.289024 32.25797 56.285023 32.14497 56.129025 32.20497 C 55.971024 32.265972 55.914024 32.31197 55.992023 32.41597 C 56.072025 32.51997 56.180023 32.59597 56.064026 32.60497 C 55.94902 32.61897 55.835026 32.711967 55.839024 32.63997 C 55.845024 32.565968 56.073025 32.412968 55.929024 32.364967 C 55.783024 32.315968 55.616024 32.38297 55.61302 32.485966 C 55.61302 32.590965 55.646023 32.952965 55.43302 33.012966 C 55.21802 33.071964 55.20602 33.004967 55.22002 32.967968 C 55.23602 32.928967 55.21802 32.746967 55.09302 32.766968 C 54.96802 32.78497 55.050022 32.774967 54.93302 32.752968 C 54.81602 32.732967 54.701023 32.77797 54.716022 32.877968 C 54.730022 32.977966 54.855022 33.06397 54.734024 33.106968 C 54.611023 33.149967 54.480022 33.288967 54.472023 33.43297 C 54.462025 33.57797 54.451023 33.696968 54.507023 33.690968 C 54.56602 33.68697 54.646023 33.641968 54.65502 33.684967 C 54.66402 33.727966 54.548023 33.78697 54.577023 33.93897 C 54.60802 34.08897 54.64102 34.120968 54.76102 34.18097 C 54.88202 34.24397 54.94502 34.11697 55.02502 34.16897 C 55.105022 34.225967 55.015022 34.31397 54.93502 34.356968 C 54.85302 34.399967 54.83902 34.48597 54.890022 34.551968 C 54.945023 34.61797 55.07202 34.59097 54.956024 34.692966 C 54.840027 34.794964 54.958023 34.960968 55.079025 34.90997 C 55.204025 34.858967 55.204025 34.809967 55.206024 34.71497 C 55.206024 34.614967 54.991024 34.552967 55.130024 34.487965 C 55.271023 34.424965 55.112022 34.356964 55.226025 34.327965 C 55.335026 34.298965 55.507023 34.247963 55.421024 34.175964 C 55.342 34.102 55.504 33.861 55.191 33.896 z " fill="url(#SVGID_9_)"/>
<radialGradient cx="1051.0938" cy="-295.3555" gradientTransform="matrix(1.2593 0 0 0.4343 -1260.6432 160.4788)" gradientUnits="userSpaceOnUse" id="SVGID_10_" r="8.7356">
<stop offset="0" stop-color="#ffffff" stop-opacity="0.45"/>
<stop offset="0.9" stop-color="#ffffff" stop-opacity="0"/>
<stop offset="1" stop-color="#ffffff" stop-opacity="0"/>
</radialGradient>
<ellipse cx="63" cy="32.206" fill="url(#SVGID_10_)" rx="11" ry="3.794"/>
<rect fill="none" height="96" width="96"/>
<g display="none" transform="translate(11.101695,6.6271188)"/>
<path d="M 86.66698 8.0 L 48.0 8.0 C 25.908195 8.0 8.0 25.909132 8.0 48.0 L 8.0 86.66698 C 8.0 87.40328 8.596722 88.0 9.333021 88.0 L 48.0 88.0 C 70.091805 88.0 88.0 70.090866 88.0 48.0 L 88.0 9.333021 C 88.0 8.596722 87.40328 8.0 86.66698 8.0 z " fill="url(#linearGradient4026)"/>
<path d="M 77.99719 19.509132 C 77.99719 18.0 77.99719 18.0 76.33068 18.0 C 76.33068 18.0 48.44497 18.0 47.999065 18.0 C 31.431381 18.0 18.0 30.16206 18.0 45.16534 C 18.0 60.168617 28.282904 60.024357 47.99906 60.024357 C 64.71475 60.024357 77.99719 47.862297 77.99719 32.859016 C 77.99719 32.454334 77.99719 19.509132 77.99719 19.509132 z " fill="#fcba03"/>
<path d="M 49.10164 61.70773 C 44.17049 52.04403 33.783607 45.36768 21.794847 45.36768 L 18.251055 45.36768 C 18.09274 46.563934 18.001871 47.778923 18.0 49.01452 C 18.0037 53.571896 19.116629 57.884777 21.08946 61.725525 C 26.033724 71.35457 36.399063 78.0 48.36159 78.0 L 52.157375 78.0 L 52.157375 74.37565 C 52.15644 69.83513 51.057613 65.53724 49.10164 61.70773 z " fill="#89e700" fill-opacity="0.66489363" stroke-opacity="1"/>
<path d="M 8.0 59.019203 C 14.608899 57.558784 18.0 53.97471 18.0 45.166275 C 18.0 39.257145 16.00281 33.792976 12.622951 29.334896 C 9.675879 34.907726 8.0 41.257145 8.0 48.0 L 8.0 59.019203 z " fill="#fc8272"/>
<path d="M 15.048244 61.72553 C 16.93302 57.88571 17.996252 53.57283 18.0 49.01452 C 17.9981 47.778923 17.91101 46.563 17.760187 45.36768 L 14.37377 45.36768 C 12.201405 45.36768 10.085245 45.610302 8.048712 46.064636 C 8.017798 46.706326 8.0 47.35082 8.0 48.0 L 8.0 70.87119 C 10.916159 68.33349 13.328337 65.23091 15.048244 61.725525 z " fill="#d1a5ff" fill-opacity="0.58823532" stroke-opacity="1"/>
</svg>
