<?xml version="1.0" encoding="UTF-8"?>
<svg xmlns="http://www.w3.org/2000/svg" xmlns:xlink="http://www.w3.org/1999/xlink" baseProfile="tiny" contentScriptType="text/ecmascript" contentStyleType="text/css" height="96px" preserveAspectRatio="xMidYMid meet" version="1.1" viewBox="0 0 96 96" width="96px" x="0px" y="0px" zoomAndPan="magnify">
<linearGradient gradientUnits="userSpaceOnUse" x1="47.9995" x2="47.9995" y1="8.5449" y2="89.2398">
<stop offset="0" stop-color="#ffffff"/>
<stop offset="1" stop-color="#cccac6"/>
</linearGradient>
<rect fill="none" height="96" width="96"/>
<linearGradient gradientTransform="matrix(-1 0 0 1 4370 0)" gradientUnits="userSpaceOnUse" x1="4296.2324" x2="4296.2324" y1="33.0508" y2="48.8997">
<stop offset="0" stop-color="#00a9cc"/>
<stop offset="1" stop-color="#005897"/>
</linearGradient>
<linearGradient gradientTransform="matrix(-1 0 0 1 4370 0)" gradientUnits="userSpaceOnUse" x1="4296.1504" x2="4296.1504" y1="34.0283" y2="42.9433">
<stop offset="0" stop-color="#ffffff"/>
<stop offset="1" stop-color="#ffffff" stop-opacity="0"/>
</linearGradient>
<linearGradient gradientTransform="matrix(-1 0 0 1 4370 0)" gradientUnits="userSpaceOnUse" x1="4296.2285" x2="4296.2285" y1="39.1592" y2="49.931">
<stop offset="0" stop-color="#0087b6"/>
<stop offset="1" stop-color="#004678"/>
</linearGradient>
<linearGradient gradientTransform="matrix(-1 0 0 1 4370 0)" gradientUnits="userSpaceOnUse" x1="4343.5" x2="4343.5" y1="25.0444" y2="38.9122">
<stop offset="0" stop-color="#ff1c22"/>
<stop offset="0.2324" stop-color="#f01a20"/>
<stop offset="0.6788" stop-color="#c8161a"/>
<stop offset="1" stop-color="#a81216"/>
</linearGradient>
<linearGradient gradientTransform="matrix(-1 0 0 1 4370 0)" gradientUnits="userSpaceOnUse" x1="4343.5713" x2="4343.5713" y1="26.022" y2="32.9559">
<stop offset="0" stop-color="#ffffff"/>
<stop offset="1" stop-color="#ffffff" stop-opacity="0"/>
</linearGradient>
<linearGradient gradientTransform="matrix(-1 0 0 1 4370 0)" gradientUnits="userSpaceOnUse" x1="4343.5" x2="4343.5" y1="30.957" y2="38.9492">
<stop offset="0" stop-color="#d3171c"/>
<stop offset="1" stop-color="#8c0f12"/>
</linearGradient>
<linearGradient gradientTransform="matrix(-1 0 0 1 4370 0)" gradientUnits="userSpaceOnUse" x1="4317.5" x2="4317.5" y1="16.9097" y2="31.4537">
<stop offset="0" stop-color="#9bd22d"/>
<stop offset="1" stop-color="#195b19"/>
</linearGradient>
<linearGradient gradientTransform="matrix(-1 0 0 1 4370 0)" gradientUnits="userSpaceOnUse" x1="4318.0996" x2="4318.0996" y1="17.6133" y2="24.5927">
<stop offset="0" stop-color="#ffffff"/>
<stop offset="1" stop-color="#ffffff" stop-opacity="0"/>
</linearGradient>
<linearGradient gradientTransform="matrix(-1 0 0 1 4370 0)" gradientUnits="userSpaceOnUse" x1="4317.5" x2="4317.5" y1="23.9233" y2="32.3557">
<stop offset="0" stop-color="#5b9823"/>
<stop offset="1" stop-color="#134213"/>
</linearGradient>
<defs>
<linearGradient gradientUnits="userSpaceOnUse" x1="34.5" x2="34.5" y1="58.1299" y2="77.2948">
<stop offset="0" stop-color="#cccac6"/>
<stop offset="1" stop-color="#ffffff"/>
</linearGradient>
</defs>
<defs>
<linearGradient gradientUnits="userSpaceOnUse" x1="47.9995" x2="47.9995" y1="8.2534" y2="87.4985">
<stop offset="0" stop-color="#ffffff"/>
<stop offset="1" stop-color="#ffffff" stop-opacity="0"/>
</linearGradient>
</defs>
<g transform="matrix(0.93676813,0,0,0.93676813,7.7189704,7.7189704)">
<g display="none">
<rect display="inline" fill="#32332f" height="300" width="497" x="-21" y="-159"/>
</g>
<g>
<radialGradient cx="43" cy="43" gradientUnits="userSpaceOnUse" id="SVGID_1_-1" r="42.700001">
<stop offset="0" stop-color="#7b7b7d"/>
<stop offset="1" stop-color="#dadada"/>
</radialGradient>
<circle cx="43" cy="43" d="M 85.700001,43 C 85.700001,66.582559 66.582559,85.700001 43,85.700001 19.417441,85.700001 0.29999924,66.582559 0.29999924,43 0.29999924,19.417441 19.417441,0.29999924 43,0.29999924 66.582559,0.29999924 85.700001,19.417441 85.700001,43 z" fill="url(#SVGID_1_-1)" r="42.700001"/>
<g>
<radialGradient cx="38.5" cy="43" gradientUnits="userSpaceOnUse" id="SVGID_2_-7" r="29.834999">
<stop offset="0" stop-color="#362936"/>
<stop offset="0.543" stop-color="#362936"/>
<stop offset="0.828" stop-color="#453545"/>
<stop offset="1" stop-color="#453545"/>
</radialGradient>
<path d="M 11.0 43.0 C 11.0 25.327 25.327 11.0 43.0 11.0 C 60.673 11.0 66.0 25.327 66.0 43.0 C 66.0 60.673 60.673 75.0 43.0 75.0 C 25.327 75.0 11.0 60.673 11.0 43.0 z " fill="url(#SVGID_2_-7)"/>
</g>
<circle cx="43" cy="43" d="M 62.025,43 C 62.025,53.507217 53.507217,62.025 43,62.025 32.492783,62.025 23.975,53.507217 23.975,43 23.975,32.492783 32.492783,23.975 43,23.975 c 10.507217,0 19.025,8.517783 19.025,19.025 z" fill="#f9f8d9" fill-opacity="0.2" r="19.025" stroke-opacity="0.2"/>
<radialGradient cx="43.1017" cy="43.0769" gradientUnits="userSpaceOnUse" id="SVGID_3_-4" r="31.9786">
<stop offset="0" stop-color="#77dbe0"/>
<stop offset="0.2957" stop-color="#77dbe0"/>
<stop offset="0.8871" stop-color="#0eaeb0"/>
<stop offset="1" stop-color="#2dbbbe"/>
</radialGradient>
<path d="M 75.025 43.0 C 75.025 25.313 60.687 10.975 43.0 10.975 L 43.0 75.025 C 60.687 75.025 75.025 60.687 75.025 43.0 z " fill="url(#SVGID_3_-4)"/>
<linearGradient gradientUnits="userSpaceOnUse" id="SVGID_4_" x1="43.5" x2="43.5" y1="30.151501" y2="53">
<stop offset="0" stop-color="#635f63"/>
<stop offset="1" stop-color="#41ced4"/>
</linearGradient>
<polygon fill="url(#SVGID_4_)" points="32.457,53 43.02,30.152 54.543,53 "/>
<linearGradient gradientUnits="userSpaceOnUse" id="SVGID_5_" x1="43" x2="54.5434" y1="39.765598" y2="39.765598">
<stop offset="0" stop-color="#ffffff"/>
<stop offset="1" stop-color="#ffffff" stop-opacity="0.4"/>
</linearGradient>
<polygon fill="url(#SVGID_5_)" points="54.543,53 43,29.885 43,26.531 "/>
<linearGradient gradientTransform="matrix(-1,0,0,1,566,0)" gradientUnits="userSpaceOnUse" id="SVGID_6_-0" x1="523.00018" x2="534.5437" y1="39.765598" y2="39.765598">
<stop offset="0" stop-color="#2a2b2b"/>
<stop offset="1" stop-color="#4f5251" stop-opacity="0.4"/>
</linearGradient>
<polygon fill="url(#SVGID_6_-0)" points="31.456,53 43,29.885 43,26.531 "/>
</g>
</g>
</svg>
