<?xml version="1.0" encoding="UTF-8"?>
<svg xmlns="http://www.w3.org/2000/svg" xmlns:xlink="http://www.w3.org/1999/xlink" baseProfile="tiny" contentScriptType="text/ecmascript" contentStyleType="text/css" height="96px" preserveAspectRatio="xMidYMid meet" version="1.1" viewBox="0 0 96 96" width="96px" x="0px" y="0px" zoomAndPan="magnify">
<defs>
<linearGradient gradientUnits="userSpaceOnUse" x1="12.8065" x2="85.282898" y1="73.193497" y2="0.71710002">
<stop offset="0" stop-color="#7f34b8"/>
<stop offset="0.9951" stop-color="#f33b82"/>
<stop offset="1" stop-color="#f33b82"/>
</linearGradient>
<linearGradient gradientTransform="matrix(-1,0,0,-1,96,96)" gradientUnits="userSpaceOnUse" id="linearGradient3832" x1="19.739637" x2="87.280907" y1="75.70359" y2="8.162323">
<stop offset="0" stop-color="#5834b8" stop-opacity="1"/>
<stop offset="1" stop-color="#83b7f3" stop-opacity="1"/>
</linearGradient>
<linearGradient gradientTransform="translate(24.9897,-507.8809)" gradientUnits="userSpaceOnUse" x1="23.0093" x2="23.0093" y1="544.3457" y2="593.13159">
<stop offset="0" stop-color="#fafcef"/>
<stop offset="0.3232" stop-color="#fafcef"/>
<stop offset="1" stop-color="#d0cbc5"/>
</linearGradient>
</defs>
<linearGradient gradientUnits="userSpaceOnUse" x1="47.9995" x2="47.9995" y1="8" y2="88.0005">
<stop offset="0" stop-color="#b30dac"/>
<stop offset="1" stop-color="#511475"/>
</linearGradient>
<linearGradient gradientUnits="userSpaceOnUse" x1="47.9995" x2="47.9995" y1="8.2534" y2="87.4985">
<stop offset="0" stop-color="#ffffff"/>
<stop offset="1" stop-color="#ffffff" stop-opacity="0"/>
</linearGradient>
<path color="#000000" d="M 48.0 88.0 C 70.091805 88.0 88.0 70.091805 88.0 48.0 C 88.0 25.909134 70.091805 8.0 48.0 8.0 C 25.908195 8.0 8.0 25.909134 8.0 48.0 C 8.0 48.595783 8.0 86.65625 8.0 86.65625 C 8.0 87.392555 8.60745 88.0 9.34375 88.0 L 48.0 88.0 z " display="inline" fill="url(#linearGradient3832)" fill-opacity="1" fill-rule="nonzero" stroke="none" visibility="visible"/>
<rect fill="none" height="96" width="96"/>
<linearGradient gradientUnits="userSpaceOnUse" x1="51.5" x2="51.5" y1="29" y2="67.0005">
<stop offset="0" stop-color="#fafcef"/>
<stop offset="0.3232" stop-color="#fafcef"/>
<stop offset="1" stop-color="#d0cbc5"/>
</linearGradient>
<g display="none" transform="matrix(0.93676815,0,0,0.93676815,7.7189695,7.7189695)"/>
<path color="#000000" d="M 31.125 24.5625 C 30.086733 24.6492 29.375 25.519707 29.375 27.4375 L 29.375 68.75 C 29.375 70.85194 31.078701 72.2389 33.28125 70.96875 C 35.481995 69.69861 67.664795 51.155792 69.0625 50.34375 C 71.083595 49.158043 71.19678 47.07617 69.0625 45.84375 C 66.92643 44.611332 35.36522 26.341955 33.28125 25.15625 C 32.49976 24.710257 31.747955 24.510477 31.125 24.5625 z M 43.875 39.625 C 44.844482 39.6183 45.7935 39.703 46.75 39.875 C 46.784 39.883 46.842 39.90425 46.875 39.90625 C 47.26 39.97925 47.64625 40.05425 48.03125 40.15625 C 48.13325 40.18125 48.23575 40.22 48.34375 40.25 C 48.65575 40.338 48.946 40.42725 49.25 40.53125 C 49.422 40.59225 49.60925 40.687 49.78125 40.75 C 50.01225 40.845 50.23975 40.92925 50.46875 41.03125 C 50.67175 41.12925 50.8615 41.23975 51.0625 41.34375 C 51.2475 41.44075 51.47225 41.519 51.65625 41.625 C 51.88525 41.754 52.0895 41.9195 52.3125 42.0625 C 52.4605 42.1575 52.62925 42.23975 52.78125 42.34375 C 53.01725 42.50775 53.24375 42.66775 53.46875 42.84375 C 53.60275 42.94475 53.71675 43.05225 53.84375 43.15625 C 54.06475 43.33525 54.283 43.52275 54.5 43.71875 C 54.56785 43.77976 54.61928 43.845345 54.6875 43.90625 C 54.6875 43.91425 54.71475 43.90225 54.71875 43.90625 C 54.76575 43.95125 54.80075 43.98625 54.84375 44.03125 C 54.85418 44.04187 54.86508 44.0515 54.875 44.0625 L 55.53125 44.6875 C 55.88525 45.0365 55.88525 45.62375 55.53125 45.96875 L 54.90625 46.59375 C 54.54825 46.94175 53.94975 46.94175 53.59375 46.59375 L 52.96875 45.96875 C 48.02875 41.10675 39.99625 41.08725 35.03125 45.90625 L 34.375 46.5625 C 34.022 46.9065 33.44775 46.9065 33.09375 46.5625 L 32.75 46.21875 L 32.4375 45.90625 C 32.1485 45.62125 32.1305 45.215 32.3125 44.875 C 32.3535 44.796 32.40275 44.72025 32.46875 44.65625 L 32.875 44.25 L 33.09375 44.03125 C 33.85375 43.29225 34.67125 42.64875 35.53125 42.09375 C 38.0565 40.47375 40.966545 39.64497 43.875 39.625 z M 44.0 45.875 C 46.31525 45.8805 48.63675 46.73475 50.40625 48.46875 L 50.40625 48.5 L 51.03125 49.125 C 51.38525 49.469 51.38725 50.031 51.03125 50.375 L 50.40625 51.0 C 50.04325 51.345 49.44375 51.34 49.09375 51.0 L 48.46875 50.375 C 45.99875 47.959 42.01225 47.95675 39.53125 50.34375 L 38.875 50.96875 C 38.521 51.31475 37.94375 51.31475 37.59375 50.96875 L 37.25 50.625 L 37.21875 50.625 L 36.9375 50.34375 C 36.6665 50.08775 36.615 49.699 36.75 49.375 C 36.75 49.365 36.77325 49.35475 36.78125 49.34375 C 36.82025 49.25175 36.8535 49.1405 36.9375 49.0625 L 37.28125 48.75 L 37.59375 48.4375 C 39.37025 46.7185 41.68475 45.8695 44.0 45.875 z M 44.21875 51.96875 C 44.40675 51.98275 44.572 52.03075 44.75 52.09375 C 44.797 52.10975 44.85525 52.104 44.90625 52.125 C 44.95946 52.14877 45.010963 52.18833 45.0625 52.21875 L 45.09375 52.21875 C 45.10572 52.22605 45.11311 52.24242 45.125 52.25 C 45.19051 52.28793 45.24996 52.32979 45.3125 52.375 C 45.35869 52.41004 45.39237 52.4631 45.4375 52.5 C 45.4635 52.528 45.50425 52.5385 45.53125 52.5625 C 45.53765 52.5687 45.55613 52.5562 45.5625 52.5625 C 45.5645 52.5655 45.58575 52.58575 45.59375 52.59375 C 45.61937 52.61937 45.63023 52.66031 45.65625 52.6875 C 46.43325 53.5665 46.4075 54.88475 45.5625 55.71875 C 45.3445 55.92975 45.11075 56.0835 44.84375 56.1875 C 44.75575 56.2285 44.6595 56.228 44.5625 56.25 C 44.3805 56.296 44.188 56.373 44.0 56.375 C 43.886 56.375 43.7955 56.3285 43.6875 56.3125 C 43.5235 56.2905 43.3475 56.27975 43.1875 56.21875 C 43.0775 56.17775 42.981 56.1215 42.875 56.0625 C 42.77132 56.00119 42.631947 55.948933 42.53125 55.875 C 42.47825 55.83 42.39875 55.77375 42.34375 55.71875 C 41.45875 54.85575 41.45875 53.4335 42.34375 52.5625 C 42.47575 52.4375 42.6645 52.36925 42.8125 52.28125 C 43.0255 52.14825 43.256 52.06 43.5 52.0 C 43.578 51.978 43.666 52.019 43.75 52.0 C 43.907 51.988 44.06075 51.94975 44.21875 51.96875 z " display="inline" fill="#66baff" fill-opacity="1" fill-rule="nonzero" stroke="none" visibility="visible"/>
</svg>
