<?xml version="1.0" encoding="UTF-8"?>
<svg xmlns="http://www.w3.org/2000/svg" xmlns:xlink="http://www.w3.org/1999/xlink" baseProfile="tiny" contentScriptType="text/ecmascript" contentStyleType="text/css" height="57px" preserveAspectRatio="xMidYMid meet" version="1.1" viewBox="0 0 67 57" width="67px" x="0px" y="0px" zoomAndPan="magnify">
<rect fill="none" height="57" width="67"/>
<defs>
<linearGradient gradientUnits="userSpaceOnUse" x1="33.5005" x2="33.5005" y1="48" y2="9.0005">
<stop offset="0" stop-color="#d0cbc5"/>
<stop offset="0.5031" stop-color="#fafcef"/>
<stop offset="0.9693" stop-color="#ffffff"/>
<stop offset="1" stop-color="#ffffff"/>
</linearGradient>
</defs>
<path color="#000000" d="M 44.6875 3.5625 C 44.21409 3.577294 43.767956 3.8011923 43.53125 4.15625 L 38.4375 11.78125 L 33.34375 19.375 C 33.09225 19.744852 33.09225 20.223898 33.34375 20.59375 C 33.59525 20.9636 34.059505 21.21875 34.5625 21.21875 L 44.46875 21.21875 L 44.46875 45.375 C 44.46875 45.52294 44.60206 45.65625 44.75 45.65625 C 44.89794 45.65625 45.046043 45.52294 45.03125 45.375 L 45.03125 21.21875 L 54.9375 21.21875 C 55.4405 21.21875 55.90475 20.9636 56.15625 20.59375 C 56.407753 20.223898 56.39297 19.744852 56.15625 19.375 L 51.0625 11.78125 L 45.96875 4.15625 C 45.71725 3.75681 45.20529 3.532912 44.6875 3.5625 z M 44.71875 4.0625 C 44.99984 4.0625 45.28956 4.199133 45.4375 4.40625 L 50.53125 12.03125 L 55.625 19.625 C 55.758144 19.832115 55.77294 20.151428 55.625 20.34375 C 55.49185 20.550867 55.203796 20.6875 54.9375 20.6875 L 44.875 20.6875 C 44.83062 20.67271 44.794388 20.65625 44.75 20.65625 C 44.72041 20.65625 44.654587 20.6727 44.625 20.6875 L 34.5625 20.6875 C 34.28141 20.6875 34.02294 20.550867 33.875 20.34375 C 33.74185 20.151428 33.74185 19.832115 33.875 19.625 L 38.9375 12.03125 L 44.03125 4.40625 C 44.164394 4.2139273 44.452457 4.077294 44.71875 4.0625 z " display="inline" fill="#ffffff" fill-opacity="1" fill-rule="nonzero" stroke="none" stroke-width="0" visibility="visible"/>
<path color="#000000" d="M 20.53125 12.46875 C 20.383308 12.46875 20.25 12.602059 20.25 12.75 L 20.25 36.90625 L 10.34375 36.90625 C 9.840752 36.90625 9.376499 37.115353 9.125 37.5 C 8.873501 37.86985 8.873501 38.3489 9.125 38.71875 L 14.21875 46.3125 L 19.3125 53.9375 C 19.549204 54.292557 19.96409 54.5329 20.4375 54.5625 C 20.970087 54.592087 21.483707 54.322144 21.75 53.9375 L 26.84375 46.3125 L 31.9375 38.71875 C 32.189 38.3489 32.189 37.86985 31.9375 37.5 C 31.686 37.115353 31.190498 36.90625 30.6875 36.90625 L 20.8125 36.90625 L 20.8125 12.75 C 20.8125 12.602059 20.67919 12.46875 20.53125 12.46875 z M 10.34375 37.40625 L 20.40625 37.40625 C 20.435831 37.43584 20.48687 37.4375 20.53125 37.4375 C 20.575632 37.4375 20.59541 37.43584 20.625 37.40625 L 30.6875 37.40625 C 30.968588 37.40625 31.273104 37.542885 31.40625 37.75 C 31.539396 37.957115 31.539396 38.27643 31.40625 38.46875 L 26.3125 46.0625 L 21.21875 53.6875 C 21.085604 53.909412 20.781088 54.04603 20.5 54.03125 C 20.233706 54.016453 19.945648 53.89462 19.8125 53.6875 L 14.71875 46.0625 L 9.65625 38.46875 C 9.523103 38.27643 9.523103 37.957115 9.65625 37.75 C 9.789397 37.542885 10.077456 37.40625 10.34375 37.40625 z " display="inline" fill="#ffffff" fill-opacity="1" fill-rule="nonzero" stroke="none" stroke-width="0" visibility="visible"/>
</svg>
