<?xml version="1.0" encoding="UTF-8"?>
<svg xmlns="http://www.w3.org/2000/svg" xmlns:xlink="http://www.w3.org/1999/xlink" baseProfile="tiny" contentScriptType="text/ecmascript" contentStyleType="text/css" height="96px" preserveAspectRatio="xMidYMid meet" version="1.1" viewBox="0 0 96 96" width="96px" x="0px" y="0px" zoomAndPan="magnify">
<defs>
<linearGradient gradientUnits="userSpaceOnUse" id="SVGID_1_-1" x1="79.238297" x2="6.7618999" y1="91.327904" y2="18.8514">
<stop offset="0" stop-color="#2bbd6d" stop-opacity="1"/>
<stop offset="1" stop-color="#008f28" stop-opacity="1"/>
</linearGradient>
<linearGradient gradientTransform="matrix(0.93677912,0,0,0.93677912,7.7189662,7.7184978)" gradientUnits="userSpaceOnUse" id="linearGradient3056" x1="86.186012" x2="-6.0884471" y1="1.4418377" y2="93.716293">
<stop offset="0" stop-color="#2bbd6d" stop-opacity="1"/>
<stop offset="1" stop-color="#008f28" stop-opacity="1"/>
</linearGradient>
</defs>
<rect fill="none" height="96" width="96"/>
<linearGradient gradientUnits="userSpaceOnUse" x1="47.9995" x2="47.9995" y1="8.5449" y2="89.2398">
<stop offset="0" stop-color="#00bacc"/>
<stop offset="0.2312" stop-color="#01a1bb"/>
<stop offset="0.747" stop-color="#026d98"/>
<stop offset="1" stop-color="#02598b"/>
</linearGradient>
<linearGradient gradientUnits="userSpaceOnUse" x1="47.9995" x2="47.9995" y1="8.2534" y2="87.4985">
<stop offset="0" stop-color="#ffffff"/>
<stop offset="1" stop-color="#ffffff" stop-opacity="0"/>
</linearGradient>
<linearGradient gradientUnits="userSpaceOnUse" x1="47.9995" x2="47.9995" y1="27.8447" y2="77.9766">
<stop offset="0" stop-color="#fafcef"/>
<stop offset="0.3232" stop-color="#fafcef"/>
<stop offset="1" stop-color="#d0cbc5"/>
</linearGradient>
<g display="none" transform="matrix(0.93677912,0,0,0.93677912,7.7189662,7.7184978)"/>
<path d="M 48.00047 7.9995313 C 25.908405 7.9995313 8.0 25.908876 8.0 48.0 C 8.0 48.382206 8.0 86.667435 8.0 86.667435 C 8.0 87.40374 8.596728 88.00047 9.333036 88.00047 L 86.66696 88.00047 C 87.40328 88.00047 88.0 87.40374 88.0 86.667435 C 88.0 86.667435 88.0 48.345673 88.0 48.0 C 88.00094 25.908876 70.09253 7.9995313 48.00047 7.9995313 z " fill="url(#linearGradient3056)"/>
<path d="M 38.40625 34.78125 C 35.621445 34.78125 32.254932 37.032974 31.21875 39.625 L 28.84375 45.59375 C 28.83327 43.764454 28.301188 42.28125 26.46875 42.28125 C 24.6185 42.28125 21.1875 43.778946 21.1875 45.625 C 21.1875 47.476295 24.619547 48.03125 26.46875 48.03125 C 26.717056 48.03125 26.91965 48.02195 27.125 48.0 C 24.734135 49.299156 23.125 51.818695 23.125 54.71875 L 23.125 57.75 L 23.125 61.4375 L 23.125 66.375 C 23.125 67.95494 24.421106 69.21875 26.0 69.21875 L 70.96875 69.21875 C 72.5487 69.21875 73.84375 67.95494 73.84375 66.375 L 73.84375 61.4375 L 73.84375 57.75 L 73.84375 54.71875 C 73.84375 51.839653 72.24072 49.307537 69.875 48.0 C 71.77554 47.94027 74.8125 47.37153 74.8125 45.625 C 74.8125 43.7758 71.3794 42.28125 69.53125 42.28125 C 67.69672 42.28125 67.166725 43.76655 67.15625 45.59375 L 64.78125 39.65625 C 63.747173 37.061077 60.3817 34.78125 57.59375 34.78125 z M 38.875 37.5 L 57.125 37.5 C 59.777794 37.5 62.983894 39.30473 63.96875 41.375 L 66.6875 47.09375 C 66.51568 47.08327 66.359314 47.0625 66.1875 47.0625 L 30.78125 47.0625 C 30.254253 47.0625 29.717459 47.11712 29.21875 47.21875 L 32.03125 41.375 C 33.018192 39.306828 36.222202 37.5 38.875 37.5 z M 31.71875 50.6875 C 33.783894 50.6875 35.4375 52.372356 35.4375 54.4375 C 35.4375 56.502647 33.783894 58.1875 31.71875 58.1875 C 29.653605 58.1875 27.96875 56.502647 27.96875 54.4375 C 27.96875 52.372356 29.653605 50.6875 31.71875 50.6875 z M 65.0 50.6875 C 67.06515 50.6875 68.71875 52.372356 68.71875 54.4375 C 68.71875 56.502647 67.06515 58.1875 65.0 58.1875 C 62.934853 58.1875 61.25 56.502647 61.25 54.4375 C 61.25 52.372356 62.934853 50.6875 65.0 50.6875 z M 36.5625 63.875 L 60.5 63.875 C 61.031185 63.875 61.4375 64.282364 61.4375 64.8125 C 61.4375 65.3395 61.031185 65.78125 60.5 65.78125 L 36.5625 65.78125 C 36.03341 65.78125 35.59375 65.340546 35.59375 64.8125 C 35.59375 64.282364 36.033413 63.875 36.5625 63.875 z " fill="#ffffff"/>
</svg>
