<?xml version="1.0" encoding="UTF-8"?>
<svg xmlns="http://www.w3.org/2000/svg" xmlns:xlink="http://www.w3.org/1999/xlink" baseProfile="tiny" contentScriptType="text/ecmascript" contentStyleType="text/css" height="96px" preserveAspectRatio="xMidYMid meet" version="1.1" viewBox="0 0 96 96" width="96px" x="0px" y="0px" zoomAndPan="magnify">
<defs/>
<linearGradient gradientUnits="userSpaceOnUse" x1="47.9995" x2="47.9995" y1="8.5449" y2="89.2398">
<stop offset="0" stop-color="#f5f09c"/>
<stop offset="1" stop-color="#f9e26b"/>
</linearGradient>
<linearGradient gradientTransform="matrix(1.2374 0.0314 -0.0254 0.9996 -543.1494 -79.6012)" gradientUnits="userSpaceOnUse" x1="479.6621" x2="479.6621" y1="128.6709" y2="81.6354">
<stop offset="0" stop-color="#121035"/>
<stop offset="1" stop-color="#121035" stop-opacity="0"/>
</linearGradient>
<linearGradient gradientUnits="userSpaceOnUse" x1="35.188" x2="35.188" y1="49.8545" y2="32.4714">
<stop offset="0" stop-color="#231f20"/>
<stop offset="1" stop-color="#231f20" stop-opacity="0"/>
</linearGradient>
<linearGradient gradientUnits="userSpaceOnUse" x1="48.6118" x2="48.6118" y1="46.3599" y2="31.6214">
<stop offset="0" stop-color="#231f20"/>
<stop offset="1" stop-color="#231f20" stop-opacity="0"/>
</linearGradient>
<linearGradient gradientUnits="userSpaceOnUse" x1="60.4453" x2="60.4453" y1="44.6357" y2="29.895">
<stop offset="0" stop-color="#231f20"/>
<stop offset="1" stop-color="#231f20" stop-opacity="0"/>
</linearGradient>
<linearGradient gradientUnits="userSpaceOnUse" x1="32.7173" x2="32.7173" y1="59.9434" y2="42.5568">
<stop offset="0" stop-color="#231f20"/>
<stop offset="1" stop-color="#231f20" stop-opacity="0"/>
</linearGradient>
<linearGradient gradientUnits="userSpaceOnUse" x1="44.0674" x2="44.0674" y1="57.6895" y2="40.304">
<stop offset="0" stop-color="#231f20"/>
<stop offset="1" stop-color="#231f20" stop-opacity="0"/>
</linearGradient>
<linearGradient gradientUnits="userSpaceOnUse" x1="56.751" x2="56.751" y1="56.5557" y2="39.1737">
<stop offset="0" stop-color="#231f20"/>
<stop offset="1" stop-color="#231f20" stop-opacity="0"/>
</linearGradient>
<linearGradient gradientUnits="userSpaceOnUse" x1="25.2705" x2="30.5686" y1="53.8594" y2="26.9273">
<stop offset="0" stop-color="#231f20"/>
<stop offset="1" stop-color="#231f20" stop-opacity="0"/>
</linearGradient>
<linearGradient gradientUnits="userSpaceOnUse" x1="48.0015" x2="48.0015" y1="23" y2="8">
<stop offset="0" stop-color="#ebd95e"/>
<stop offset="1" stop-color="#f0da67"/>
</linearGradient>
<linearGradient gradientUnits="userSpaceOnUse" x1="47.9995" x2="47.9995" y1="8.5449" y2="89.2398">
<stop offset="0" stop-color="#ffffff"/>
<stop offset="1" stop-color="#ffffff" stop-opacity="0"/>
</linearGradient>
<radialGradient cx="165.707" cy="-826.2407" gradientTransform="matrix(0.7071 -0.7071 0.198 0.198 115.4226 349.7662)" gradientUnits="userSpaceOnUse" r="24.5063">
<stop offset="0" stop-color="#ffffff" stop-opacity="0.5"/>
<stop offset="0.85" stop-color="#ffffff" stop-opacity="0.06"/>
<stop offset="1" stop-color="#ffffff" stop-opacity="0"/>
</radialGradient>
<linearGradient gradientUnits="userSpaceOnUse" x1="79.9004" x2="71.4348" y1="80.9824" y2="72.5168">
<stop offset="0" stop-color="#f9e26b"/>
<stop offset="1" stop-color="#c9aa28"/>
</linearGradient>
<rect fill="none" height="96" width="96"/>
<g transform="matrix(0.93676815,0,0,0.93676815,7.7644028,7.7194379)">
<g display="none"/>
<g>
<g>
<path d="M 41.423 85.606 C 41.228 85.597 41.016 85.586006 40.788002 85.573006 C 40.996002 85.588005 41.210003 85.59601 41.423 85.606 z " fill="#ffc8a0"/>
<path d="M 41.812 85.623 C 42.192 85.633 42.569 85.652 42.951 85.652 C 42.425 85.652 41.923 85.631 41.423 85.607 C 41.564 85.613 41.69 85.618004 41.812 85.623 z " fill="#ffc8a0"/>
<path d="M 0.378 45.164 C 0.36499998 44.936 0.354 44.724003 0.345 44.529003 C 0.355 44.741005 0.364 44.955 0.378 45.164 z " fill="#ffc8a0"/>
<path d="M 0.329 44.139 C 0.334 44.262 0.339 44.388 0.345 44.528 C 0.321 44.028 0.3 43.526 0.3 43.0 C 0.3 43.382 0.319 43.759 0.329 44.139 z " fill="#ffc8a0"/>
</g>
<linearGradient gradientUnits="userSpaceOnUse" id="SVGID_1_-1" x1="12.7851" x2="85.179199" y1="73.151901" y2="0.75779998">
<stop offset="0" stop-color="#f5e7b8"/>
<stop offset="0.9951" stop-color="#e6d695"/>
<stop offset="1" stop-color="#e6d695"/>
</linearGradient>
<path d="M 85.603 1.77 C 85.603 0.98499995 84.965996 0.34799993 84.181 0.34799993 L 1.722 0.34799993 C 0.937 0.349 0.3 0.985 0.3 1.77 L 0.3 43.0 C 0.3 66.556 19.396 85.651 42.951 85.651 L 84.181 85.651 C 84.966 85.651 85.603 84.955 85.603 84.17 L 85.603 1.77 z " fill="url(#SVGID_1_-1)"/>
<g>
<linearGradient gradientUnits="userSpaceOnUse" id="SVGID_2_-7" x1="18.245199" x2="67.6576" y1="32.648602" y2="-16.7638">
<stop offset="0" stop-color="#00a89a"/>
<stop offset="1" stop-color="#00cfbd"/>
</linearGradient>
<path d="M 84.181 0.349 L 1.722 0.349 C 0.937 0.349 0.3 0.985 0.3 1.77 L 0.3 14.703 L 85.603 14.703 L 85.603 1.77 C 85.603 0.98499995 84.965996 0.34899998 84.181 0.34899998 z " fill="url(#SVGID_2_-7)"/>
</g>
<g>
<rect fill-opacity="0.1" height="1.943" stroke-opacity="0.1" width="75.781998" x="9.9180002" y="64.374001"/>
<rect fill-opacity="0.1" height="1.943" stroke-opacity="0.1" width="75.781998" x="9.9180002" y="54.659"/>
<path d="M 17.52 77.005 L 85.7 77.005 L 85.7 75.062 L 15.748 75.062 C 16.326 75.729 16.915 76.379 17.52 77.005 z " fill-opacity="0.1" stroke-opacity="0.1"/>
<rect fill-opacity="0.1" height="1.943" stroke-opacity="0.1" width="75.781998" x="9.9180002" y="44.943001"/>
<rect fill-opacity="0.1" height="1.943" stroke-opacity="0.1" width="75.781998" x="9.9180002" y="24.540001"/>
<rect fill-opacity="0.1" height="1.943" stroke-opacity="0.1" width="75.781998" x="9.9180002" y="35.227001"/>
</g>
<path d="M 20.678 65.274 C 20.678 65.274 51.181 43.811005 39.434998 25.416 C 32.868996 15.132 21.570997 62.99 41.714996 58.641 C 54.073997 55.973 56.722996 36.776 55.255997 31.914999 C 53.110996 24.810999 52.826996 43.627 60.115997 39.982998 C 67.404 36.338997 65.253 26.766998 71.645996 25.224998 " fill="none" fill-opacity="0.5" stroke="#a0a2a4" stroke-linecap="round" stroke-linejoin="round" stroke-miterlimit="10" stroke-opacity="0.5" stroke-width="7"/>
</g>
</g>
</svg>
