<?xml version="1.0" encoding="UTF-8"?>
<svg xmlns="http://www.w3.org/2000/svg" xmlns:xlink="http://www.w3.org/1999/xlink" baseProfile="tiny" contentScriptType="text/ecmascript" contentStyleType="text/css" height="30px" preserveAspectRatio="xMidYMid meet" version="1.1" viewBox="0 0 30 30" width="30px" x="0px" y="0px" zoomAndPan="magnify">
<rect fill="none" height="30" width="30"/>
<path d="M 19.190475 5.950058 C 18.45512 5.950058 17.861788 6.54339 17.861788 7.278746 L 17.861788 22.61905 C 17.861788 23.354404 18.455118 23.947737 19.190475 23.947737 L 21.373983 23.947737 C 22.10934 23.947737 22.702671 23.354404 22.702671 22.61905 L 22.702671 7.2787466 C 22.702671 6.5433908 22.10934 5.9500585 21.373983 5.9500585 L 19.190475 5.9500585 z M 8.626017 6.061557 C 7.890661 6.061557 7.297329 6.6455956 7.297329 7.380953 L 7.297329 22.721256 C 7.297329 23.456612 7.890661 24.049944 8.626017 24.049944 L 10.809525 24.049944 C 11.544881 24.049944 12.128921 23.456614 12.128921 22.721256 L 12.128921 7.380954 C 12.128921 6.645597 11.544881 6.061558 10.809525 6.061558 L 8.626017 6.061558 z " fill="none" stroke="#ffffff" stroke-dasharray="none" stroke-dashoffset="0" stroke-linecap="round" stroke-linejoin="round" stroke-miterlimit="4" stroke-opacity="1" stroke-width="0.59465736"/>
</svg>
