<?xml version="1.0" encoding="UTF-8"?>
<svg xmlns="http://www.w3.org/2000/svg" xmlns:xlink="http://www.w3.org/1999/xlink" baseProfile="tiny" contentScriptType="text/ecmascript" contentStyleType="text/css" height="96px" preserveAspectRatio="xMidYMid meet" version="1.1" viewBox="0 0 96 96" width="96px" x="0px" y="0px" zoomAndPan="magnify">
<defs>
<linearGradient gradientTransform="matrix(1,0,0,-1,-14.0153,-93.4858)" gradientUnits="userSpaceOnUse" x1="35.410198" x2="35.410198" y1="-111.7056" y2="-129.1245">
<stop offset="0" stop-color="#f15689" stop-opacity="1"/>
<stop offset="1" stop-color="#e45a00" stop-opacity="1"/>
</linearGradient>
<linearGradient gradientTransform="matrix(1,0,0,-1,-14.0153,-93.4858)" gradientUnits="userSpaceOnUse" x1="35.410198" x2="35.410198" y1="-111.7056" y2="-129.1245">
<stop offset="0" stop-color="#f15689" stop-opacity="1"/>
<stop offset="1" stop-color="#e45a00" stop-opacity="1"/>
</linearGradient>
<linearGradient gradientUnits="userSpaceOnUse" x1="12.8065" x2="85.282898" y1="73.193497" y2="0.71710002">
<stop offset="0" stop-color="#7f34b8"/>
<stop offset="0.9951" stop-color="#f33b82"/>
<stop offset="1" stop-color="#f33b82"/>
</linearGradient>
<linearGradient gradientTransform="matrix(0.93676815,0,0,0.93676815,7.7189695,7.7189695)" gradientUnits="userSpaceOnUse" id="linearGradient3072" x1="12.8065" x2="85.282898" y1="73.193497" y2="0.71710002">
<stop offset="0" stop-color="#f15689" stop-opacity="1"/>
<stop offset="1" stop-color="#e45a00" stop-opacity="1"/>
</linearGradient>
<linearGradient gradientTransform="matrix(0.93676812,0,0,0.93676812,7.7644041,7.6735376)" gradientUnits="userSpaceOnUse" id="SVGID_1_-1" x1="85.179199" x2="12.7851" y1="0.8064" y2="73.2005">
<stop offset="0" stop-color="#828282"/>
<stop offset="1" stop-color="#dadada"/>
</linearGradient>
<linearGradient gradientUnits="userSpaceOnUse" id="SVGID_1_-1" x1="85.179199" x2="12.7851" y1="0.8064" y2="73.2005">
<stop offset="0" stop-color="#828282"/>
<stop offset="1" stop-color="#dadada"/>
</linearGradient>
<linearGradient gradientTransform="matrix(0.93676812,0,0,0.93676812,7.7644066,7.673541)" gradientUnits="userSpaceOnUse" id="linearGradient3119" x1="85.179199" x2="12.7851" y1="0.8064" y2="73.2005">
<stop offset="0" stop-color="#f15689" stop-opacity="1"/>
<stop offset="1" stop-color="#e45a00" stop-opacity="1"/>
</linearGradient>
</defs>
<linearGradient gradientUnits="userSpaceOnUse" x1="47.9995" x2="47.9995" y1="8" y2="88.0005">
<stop offset="0" stop-color="#b30dac"/>
<stop offset="1" stop-color="#511475"/>
</linearGradient>
<linearGradient gradientUnits="userSpaceOnUse" x1="47.9995" x2="47.9995" y1="8.2534" y2="87.4985">
<stop offset="0" stop-color="#ffffff"/>
<stop offset="1" stop-color="#ffffff" stop-opacity="0"/>
</linearGradient>
<path d="M 87.95456 9.377522 C 87.95456 8.642159 87.35878 8.045438 86.62248 8.045438 L 9.377525 8.045438 C 8.642162 8.045438 8.045441 8.642159 8.045441 9.377522 L 8.045441 48.00047 C 8.045441 70.06698 25.933964 87.95456 47.99954 87.95456 L 86.62249 87.95456 C 87.35785 87.95456 87.95457 87.30257 87.95457 86.56721 L 87.95457 9.37751 z " fill="url(#linearGradient3119)" fill-opacity="1.0"/>
<rect fill="none" height="96" width="96"/>
<linearGradient gradientUnits="userSpaceOnUse" x1="51.5" x2="51.5" y1="29" y2="67.0005">
<stop offset="0" stop-color="#fafcef"/>
<stop offset="0.3232" stop-color="#fafcef"/>
<stop offset="1" stop-color="#d0cbc5"/>
</linearGradient>
<g display="none" transform="matrix(0.93676815,0,0,0.93676815,7.7189695,7.7189695)"/>
<path d="M 65.6487 23.753952 L 44.839622 28.95517 C 43.732895 29.232904 42.828148 30.390133 42.828148 31.522114 L 42.828148 35.536644 L 42.828148 37.733273 L 42.828148 60.91151 C 40.84613 59.678535 37.70688 59.510212 34.60551 60.701107 C 30.16596 62.38435 27.48119 66.17585 28.596338 69.15519 C 29.711489 72.13873 34.20574 73.186554 38.641083 71.4991 C 42.373665 70.07676 44.860657 67.16896 44.8817 64.50523 L 44.89854 64.50523 L 44.89854 39.290276 L 65.58558 34.118515 L 65.58558 55.735542 C 63.59935 54.50678 60.464314 54.338455 57.358734 55.525143 C 52.92339 57.212593 50.23862 61.004093 51.353767 63.983433 C 52.464703 66.97118 56.967377 68.019005 61.398514 66.33156 C 65.131096 64.905014 67.61809 62.00142 67.64334 59.33348 L 67.65599 59.33348 L 67.65599 31.530537 L 67.65599 30.364891 L 67.65599 25.327791 C 67.65599 24.183186 66.75967 23.480433 65.64873 23.75396 z " fill="#ffffff" fill-opacity="1"/>
</svg>
