<?xml version="1.0" encoding="UTF-8"?>
<svg xmlns="http://www.w3.org/2000/svg" xmlns:xlink="http://www.w3.org/1999/xlink" baseProfile="tiny" contentScriptType="text/ecmascript" contentStyleType="text/css" height="7px" preserveAspectRatio="xMidYMid meet" version="1.1" viewBox="0 0 7 7" width="7px" x="0px" y="0px" zoomAndPan="magnify">
<g>
<path d="M 7.0 0.0 L 6.636 0.0 C 2.977 0.0 0.0 3.138 0.0 6.994 L 0.0 7.0 L 7.0 7.0 L 7.0 0.0 z " fill-opacity="0.2" stroke-opacity="0.2"/>
<linearGradient gradientUnits="userSpaceOnUse" id="SVGID_1_" x1="3.9995" x2="3.9995" xlink:actuate="onLoad" xlink:show="other" xlink:type="simple" y1="-0.4502" y2="38.8879">
<stop offset="0" stop-color="#007fce"/>
<stop offset="1" stop-color="#007fce"/>
</linearGradient>
<path d="M 7.0 0.0 L 6.636 0.0 C 3.536 0.0 1.0 2.697 1.0 5.994 L 1.0 7.0 L 7.0 7.0 L 7.0 0.0 z " fill="url(#SVGID_1_)"/>
<path d="M 7.0 0.0 L 6.636 0.0 C 3.536 0.0 1.0 2.697 1.0 5.994 L 1.0 7.0 L 7.0 7.0 L 7.0 0.0 z " fill="#ffffff" fill-opacity="0.07" stroke-opacity="0.07"/>
<linearGradient gradientUnits="userSpaceOnUse" id="SVGID_2_" x1="3.9995" x2="3.9995" xlink:actuate="onLoad" xlink:show="other" xlink:type="simple" y1="0.0508" y2="6.7173">
<stop offset="0" stop-color="#ffffff"/>
<stop offset="1" stop-color="#ffffff" stop-opacity="0"/>
</linearGradient>
<path d="M 6.636 0.0040 C 3.536 0.0040 1.0 2.701 1.0 5.998 L 1.0 6.998 C 1.0 3.701 3.536 1.0040002 6.636 1.0040002 L 7.0 1.0040002 L 7.0 0.004000187 L 6.636 0.004000187 z " fill="url(#SVGID_2_)" fill-opacity="0.15" stroke-opacity="0.15"/>
</g>
</svg>
