<?xml version="1.0" encoding="UTF-8"?>
<svg xmlns="http://www.w3.org/2000/svg" xmlns:xlink="http://www.w3.org/1999/xlink" baseProfile="tiny" contentScriptType="text/ecmascript" contentStyleType="text/css" height="12px" preserveAspectRatio="xMidYMid meet" version="1.1" viewBox="0 0 12 12" width="12px" x="0px" y="0px" zoomAndPan="magnify">
<g>
<linearGradient gradientUnits="userSpaceOnUse" id="SVGID_1_" x1="5.9995" x2="5.9995" xlink:actuate="onLoad" xlink:show="other" xlink:type="simple" y1="0.1353" y2="42.477">
<stop offset="0" stop-color="#002633"/>
<stop offset="1" stop-color="#002633"/>
</linearGradient>
<path d="M 6.0 0.0 C 2.687 0.0 0.0 2.686 0.0 6.0 L 0.0 12.0 L 12.0 12.0 L 12.0 0.0 L 6.0 0.0 z " fill="url(#SVGID_1_)"/>
<path d="M 6.0 0.0 C 2.687 0.0 0.0 2.686 0.0 6.0 L 0.0 12.0 L 12.0 12.0 L 12.0 0.0 L 6.0 0.0 z " fill-opacity="0.1" stroke-opacity="0.1"/>
<linearGradient gradientUnits="userSpaceOnUse" id="SVGID_2_" x1="5.9995" x2="5.9995" xlink:actuate="onLoad" xlink:show="other" xlink:type="simple" y1="-0.1167" y2="6.8922">
<stop offset="0" stop-color="#ffffff"/>
<stop offset="1" stop-color="#ffffff" stop-opacity="0"/>
</linearGradient>
<path d="M 6.0 0.0 C 2.687 0.0 0.0 2.686 0.0 6.0 L 0.0 7.0 C 0.0 3.686 2.687 1.0 6.0 1.0 L 12.0 1.0 L 12.0 0.0 L 6.0 0.0 z " fill="url(#SVGID_2_)" fill-opacity="0.15" stroke-opacity="0.15"/>
</g>
</svg>
