<?xml version="1.0" encoding="UTF-8"?>
<svg xmlns="http://www.w3.org/2000/svg" xmlns:xlink="http://www.w3.org/1999/xlink" baseProfile="tiny" contentScriptType="text/ecmascript" contentStyleType="text/css" height="62px" preserveAspectRatio="xMidYMid meet" version="1.1" viewBox="0 0 54 62" width="54px" x="0px" y="0px" zoomAndPan="magnify">
<defs/>
<linearGradient gradientUnits="userSpaceOnUse" x1="27.0005" x2="27.0005" y1="65.5" y2="50.9227">
<stop offset="0" stop-color="#53cfff"/>
<stop offset="1" stop-color="#3f72b1"/>
</linearGradient>
<linearGradient gradientUnits="userSpaceOnUse" x1="26.9995" x2="26.9995" y1="15.5" y2="49.0152">
<stop offset="0" stop-color="#192d81"/>
<stop offset="0.2109" stop-color="#193185"/>
<stop offset="0.4237" stop-color="#183d91"/>
<stop offset="0.6373" stop-color="#1651a5"/>
<stop offset="0.8503" stop-color="#146dc1"/>
<stop offset="1" stop-color="#1286d9"/>
</linearGradient>
<linearGradient gradientUnits="userSpaceOnUse" x1="26.9995" x2="26.9995" y1="-0.25" y2="49.4326">
<stop offset="0" stop-color="#0f0f0f"/>
<stop offset="1" stop-color="#141416"/>
</linearGradient>
<linearGradient gradientUnits="userSpaceOnUse" x1="26.9995" x2="26.9995" y1="-0.25" y2="50.023">
<stop offset="0" stop-color="#ffffff"/>
<stop offset="1" stop-color="#3f94ff"/>
</linearGradient>
<linearGradient gradientUnits="userSpaceOnUse" x1="26.9995" x2="26.9995" y1="12.7642" y2="37.4509">
<stop offset="0" stop-color="#234c9d"/>
<stop offset="0.2452" stop-color="#2763ae"/>
<stop offset="0.758" stop-color="#329fdb"/>
<stop offset="1" stop-color="#38bdf2"/>
</linearGradient>
<path color="#000000" d="M 14.125 13.5 C 14.075649 13.51942 14.032461 13.551811 14.0 13.59375 C 13.958181 13.64718 13.936103 13.713415 13.9375 13.78125 L 13.9375 39.28125 L 3.46875 39.28125 C 2.94151 39.281483 2.451594 39.512337 2.1875 39.90625 C 1.923391 40.300163 1.925063 40.79276 2.1875 41.1875 L 7.5625 49.21875 L 12.9375 57.25 C 13.188009 57.625137 13.655312 57.88388 14.15625 57.90625 C 14.711237 57.931427 15.222473 57.66564 15.5 57.25 L 20.875 49.21875 L 26.25 41.1875 C 26.51252 40.79276 26.514088 40.300163 26.25 39.90625 C 25.985909 39.512337 25.495993 39.281483 24.96875 39.28125 L 14.5 39.28125 L 14.5 13.78125 C 14.504146 13.727284 14.493333 13.673221 14.46875 13.625 C 14.397094 13.508567 14.254708 13.45679 14.125 13.5 z M 3.46875 39.8125 L 14.09375 39.8125 C 14.132598 39.83202 14.175287 39.842693 14.21875 39.84375 C 14.262213 39.842693 14.304902 39.83202 14.34375 39.8125 L 24.96875 39.8125 C 25.257145 39.81263 25.543043 39.97203 25.6875 40.1875 C 25.831957 40.402966 25.831047 40.721584 25.6875 40.9375 L 20.3125 48.9375 L 14.96875 57.0 C 14.817634 57.226322 14.489698 57.35745 14.1875 57.34375 C 13.912395 57.33147 13.606324 57.20602 13.46875 57.0 L 8.125 48.9375 L 2.75 40.9375 C 2.606449 40.721584 2.605544 40.402966 2.75 40.1875 C 2.894455 39.97203 3.180354 39.81262 3.46875 39.8125 z " display="inline" fill="#ffffff" fill-opacity="1" fill-rule="nonzero" stroke="none" stroke-width="1" visibility="visible"/>
<path color="#000000" d="M 39.6875 4.09375 C 39.186565 4.11612 38.75051 4.374864 38.5 4.75 L 33.125 12.78125 L 27.75 20.8125 C 27.487564 21.207237 27.485992 21.699837 27.75 22.09375 C 28.014088 22.487663 28.504007 22.718517 29.03125 22.71875 L 39.46875 22.71875 L 39.46875 48.21875 C 39.472347 48.32404 39.531937 48.419376 39.625 48.46875 C 39.71269 48.51643 39.81856 48.51643 39.90625 48.46875 C 39.999313 48.419376 40.058903 48.32404 40.0625 48.21875 L 40.0625 22.71875 L 50.5 22.71875 C 51.027237 22.718512 51.54841 22.487663 51.8125 22.09375 C 52.07659 21.699837 52.07502 21.207237 51.8125 20.8125 L 46.4375 12.78125 L 41.0625 4.75 C 40.784878 4.334361 40.24249 4.068577 39.6875 4.09375 z M 39.71875 4.65625 C 40.020947 4.64255 40.34889 4.773679 40.5 5.0 L 45.875 13.0625 L 51.25 21.0625 C 51.39355 21.278418 51.394455 21.59703 51.25 21.8125 C 51.105545 22.027967 50.788395 22.187372 50.5 22.1875 L 39.90625 22.1875 C 39.8674 22.16798 39.824715 22.157309 39.78125 22.15625 C 39.737785 22.157309 39.6951 22.16798 39.65625 22.1875 L 29.03125 22.1875 C 28.742851 22.187386 28.45696 22.027967 28.3125 21.8125 C 28.168043 21.59703 28.168953 21.278418 28.3125 21.0625 L 33.65625 13.0625 L 39.03125 5.0 C 39.168823 4.793986 39.44365 4.668527 39.71875 4.65625 z " display="inline" fill="#ffffff" fill-opacity="1" fill-rule="nonzero" stroke="none" stroke-width="1" visibility="visible"/>
</svg>
