<?xml version="1.0" encoding="UTF-8"?>
<svg xmlns="http://www.w3.org/2000/svg" xmlns:xlink="http://www.w3.org/1999/xlink" baseProfile="tiny" contentScriptType="text/ecmascript" contentStyleType="text/css" height="30px" preserveAspectRatio="xMidYMid meet" version="1.1" viewBox="0 0 30 30" width="30px" x="0px" y="0px" zoomAndPan="magnify">
<defs/>
<path color="#000000" d="M 11.78125 3.46875 L 11.78125 3.5 C 11.576734 3.4979968 11.378488 3.5610745 11.25 3.65625 C 11.105497 3.7632892 11.00542 3.8811393 10.9375 4.0 C 10.925638 4.020079 10.915196 4.0409636 10.90625 4.0625 C 10.84931 4.1953607 10.83247 4.345197 10.84375 4.53125 C 10.84755 4.593268 10.91633 4.6506767 10.9375 4.71875 C 10.9375 4.7239 10.9318 4.729875 10.9375 4.78125 C 10.939 4.794849 10.96202 4.816557 10.96875 4.84375 C 10.97475 4.867921 10.96858 4.905777 10.96875 4.90625 C 10.96882 4.9064436 10.99294 4.926317 11.0 4.9375 C 11.008946 4.9590364 11.019388 4.979921 11.03125 5.0 C 11.030925 5.010414 11.030925 5.020836 11.03125 5.03125 C 11.050198 5.0538874 11.071113 5.0748024 11.09375 5.09375 C 11.102696 5.1152864 11.113138 5.136171 11.125 5.15625 L 14.46875 8.5 C 14.49007 8.549296 14.51247 8.568813 14.53125 8.59375 C 14.56881 8.643623 14.57358 8.670115 14.59375 8.6875 C 14.63408 8.72227 14.66747 8.736135 14.6875 8.75 C 14.6967 8.7564 14.71034 8.74418 14.71875 8.75 C 14.72845 8.762149 14.74058 8.769825 14.75 8.78125 C 14.76267 8.79042 14.76877 8.802513 14.78125 8.8125 C 14.83717 8.878581 14.883802 8.966908 14.9375 9.03125 L 10.125 9.03125 C 5.3600163 9.03125 1.5 12.941792 1.5 17.78125 C 1.5 22.601309 5.3600163 26.53125 10.125 26.53125 L 19.875 26.53125 C 24.659336 26.53125 28.5 22.599802 28.5 17.78125 C 28.5 12.943295 24.659336 9.03125 19.875 9.03125 C 19.59887 9.031278 19.375027 9.255119 19.375 9.53125 L 19.375 10.40625 C 19.375027 10.682381 19.59887 10.906222 19.875 10.90625 C 23.62064 10.90625 26.625 13.946066 26.625 17.78125 C 26.625 21.616436 23.620636 24.65625 19.875 24.65625 L 10.125 24.65625 C 6.379362 24.65625 3.375 21.616436 3.375 17.78125 C 3.375 13.946065 6.379362 10.90625 10.125 10.90625 L 15.0 10.90625 C 14.92157 11.00119 14.866983 11.075789 14.8125 11.125 C 14.74968 11.18174 14.73399 11.17227 14.625 11.28125 C 14.613138 11.30133 14.602696 11.322213 14.59375 11.34375 C 14.583336 11.343425 14.572914 11.343425 14.5625 11.34375 C 14.562175 11.354164 14.562175 11.364586 14.5625 11.375 C 14.551628 11.384951 14.541201 11.395378 14.53125 11.40625 C 14.52685 11.41445 14.50113 11.43525 14.5 11.4375 C 14.499675 11.447914 14.499675 11.458336 14.5 11.46875 C 14.477363 11.487698 14.456448 11.508613 14.4375 11.53125 L 13.90625 12.03125 L 11.09375 14.84375 C 10.745243 15.192261 10.759233 15.796991 11.09375 16.15625 L 11.125 16.15625 C 11.459617 16.504545 12.031919 16.523718 12.375 16.21875 C 12.397637 16.199802 12.418552 16.178886 12.4375 16.15625 C 12.447914 16.156576 12.458336 16.156576 12.46875 16.15625 C 12.47555 16.14875 12.46255 16.13296 12.46875 16.125 C 12.480612 16.104921 12.491054 16.084036 12.5 16.0625 L 15.375 13.21875 C 15.41915 13.1746 15.402 13.19172 15.4375 13.15625 C 15.46222 13.13613 15.46154 13.13169 15.46875 13.125 C 15.50033 13.09346 15.50671 13.087 15.53125 13.0625 C 15.54495 13.0482 15.53835 13.02487 15.5625 13.0 C 15.57474 12.9874 15.60995 12.95294 15.625 12.9375 C 15.66985 12.8933 15.71833 12.8438 15.75 12.8125 C 15.76583 12.79685 15.77389 12.7885 15.78125 12.78125 C 15.781984 12.781932 15.8125 12.78125 15.8125 12.78125 C 15.82432 12.7692 15.83109 12.76289 15.84375 12.75 C 15.86244 12.73097 15.85443 12.70843 15.875 12.6875 L 15.875 12.65625 C 16.24709 12.28582 16.61871 11.998196 16.875 11.5625 C 17.1236 11.139882 17.28125 10.612581 17.28125 10.0 C 17.28125 9.393588 17.14992 8.906061 16.875 8.46875 C 16.8679 8.456053 16.85101 8.450053 16.84375 8.4375 C 16.716707 8.217816 16.575163 8.002525 16.40625 7.8125 C 16.3963 7.801628 16.385872 7.791201 16.375 7.78125 C 16.320808 7.727056 16.289568 7.7215295 16.25 7.6875 C 16.250326 7.677086 16.250326 7.666664 16.25 7.65625 C 16.23932 7.64706 16.22838 7.633497 16.21875 7.625 C 16.198671 7.6131387 16.177786 7.6026964 16.15625 7.59375 C 16.156576 7.583336 16.156576 7.572914 16.15625 7.5625 L 12.53125 3.90625 C 12.522304 3.8847134 12.511862 3.8638291 12.5 3.84375 C 12.481052 3.8211126 12.460137 3.8001976 12.4375 3.78125 C 12.420265 3.7477453 12.399299 3.7162955 12.375 3.6875 C 12.249929 3.5936975 12.084693 3.5356884 11.90625 3.5 C 11.88617 3.4881387 11.865287 3.4776964 11.84375 3.46875 C 11.833336 3.4684243 11.822914 3.4684243 11.8125 3.46875 L 11.78125 3.46875 z " display="inline" fill="#ffffff" fill-opacity="1" fill-rule="nonzero" stroke="none" stroke-dashoffset="0" stroke-linecap="round" stroke-linejoin="round" stroke-miterlimit="4" stroke-opacity="1" stroke-width="1" visibility="visible"/>
<rect fill="none" height="30" width="30"/>
</svg>
