<?xml version="1.0" encoding="UTF-8"?>
<svg xmlns="http://www.w3.org/2000/svg" xmlns:xlink="http://www.w3.org/1999/xlink" baseProfile="tiny" contentScriptType="text/ecmascript" contentStyleType="text/css" height="30px" preserveAspectRatio="xMidYMid meet" version="1.1" viewBox="0 0 30 30" width="30px" x="0px" y="0px" zoomAndPan="magnify">
<defs/>
<rect fill="none" height="30" width="30"/>
<g transform="matrix(0.54748111,0,0,0.54748111,2.0054298,3.9704422)">
<path d="M 41.52756 0.03543307 C 41.314964 0.07086614 41.17323 0.28346455 41.066933 0.46062988 C 40.960632 0.7086614 40.9252 1.027559 41.173233 1.2755904 C 41.173233 1.2755904 41.208664 1.3110235 41.208664 1.3110235 C 41.244095 1.3464565 41.244095 1.3464565 41.244095 1.3818895 L 44.362206 4.535433 L 44.362206 4.5708656 L 44.397636 4.5708656 L 44.397636 4.5708656 C 44.397636 4.5708656 44.397636 4.5708656 44.433067 4.5708656 L 44.6811 4.85433 C 44.82283 5.0314956 45.03543 5.2086606 45.212597 5.4921255 C 45.673225 6.0590544 46.06299 6.7322826 46.06299 7.4763775 C 46.06299 8.185039 45.673225 8.858267 45.212597 9.425197 C 44.858265 9.92126 44.539368 10.133859 44.433067 10.204724 C 44.433067 10.204724 44.433067 10.240154 44.433067 10.240154 C 44.433067 10.275584 44.433067 10.311025 44.433067 10.346454 L 44.397636 10.346454 C 44.397636 10.346454 44.397636 10.346454 44.397636 10.381884 L 43.26378 11.444876 L 41.20866 13.57086 C 40.889763 13.854325 40.889763 14.279522 41.20866 14.598419 C 41.492126 14.881885 41.88189 14.881885 42.200787 14.598419 C 42.200787 14.598419 42.236217 14.598419 42.236217 14.598419 C 45.212597 11.586609 41.56299 15.236216 44.539368 12.224404 C 46.594486 10.169287 43.370075 13.464561 45.425194 11.409443 C 46.06299 10.771648 46.594486 10.240152 46.948814 9.637789 C 47.303146 9.07086 47.48031 8.397632 47.48031 7.476372 C 47.48031 6.555112 47.303143 5.8818836 46.948814 5.2795215 C 46.771656 4.9606295 46.523624 4.677165 46.24016 4.358268 C 46.169292 4.3228345 46.02756 4.110236 45.885826 4.003937 L 45.885826 3.9685037 L 42.23622 0.28346467 C 42.23622 0.24803157 42.23622 0.24803157 42.23622 0.24803157 C 42.12992 0.106299296 41.98819 0.035433173 41.811024 0.035433173 C 41.811024 0.035433173 41.811024 0.035433173 41.775593 0.035433173 C 41.704723 0.0 41.598423 0.0 41.52756 0.03543307 z M 37.73622 6.590551 C 36.1063 6.590551 34.405514 7.192913 33.23622 8.362205 L 11.267717 30.330708 C 10.417323 31.1811 9.070867 31.677164 7.8661423 31.677164 L 0.88582754 31.677164 C 0.49606374 31.677164 0.14173305 32.031494 0.14173305 32.421257 C 0.14173305 32.81102 0.49606377 33.200787 0.88582754 33.16535 L 7.8661423 33.16535 C 9.46063 33.16535 11.161418 32.56299 12.330709 31.3937 L 34.299213 9.425197 C 35.114174 8.574803 36.496063 8.07874 37.73622 8.07874 L 43.866142 8.07874 C 44.255905 8.07874 44.610237 7.7244096 44.610237 7.3346457 C 44.610237 6.944882 44.25591 6.5905514 43.866142 6.5905514 L 37.73622 6.5905514 z M 0.63779527 6.8740153 C 0.2480315 6.9448814 -0.07086614 7.3346457 0.0 7.724409 C 0.07086614 8.149606 0.496063 8.43307 0.8858268 8.362205 L 7.015748 8.362205 C 8.220472 8.362205 9.637795 8.858268 10.488189 9.708661 L 19.700787 18.92126 C 19.984251 19.204725 20.480314 19.204725 20.763779 18.92126 C 21.047243 18.637796 21.047243 18.141733 20.763779 17.858269 L 11.551181 8.645669 C 10.346457 7.4763775 8.64567 6.8740153 7.015748 6.8740153 L 0.8858266 6.8740153 C 0.8503935 6.8740153 0.8149605 6.8740153 0.7440943 6.8740153 C 0.7440943 6.8740153 0.7086612 6.8740153 0.7086612 6.8740153 C 0.6732281 6.8740153 0.6732281 6.8740153 0.6377951 6.8740153 z M 24.059055 21.649605 C 23.52756 21.755903 23.31496 22.53543 23.704725 22.925196 L 32.42126 31.677164 C 33.590553 32.846455 35.29134 33.44882 36.92126 33.44882 L 43.866142 33.44882 C 44.255905 33.44882 44.610237 33.094486 44.610237 32.704723 C 44.610237 32.31496 44.25591 31.960629 43.866142 31.960629 L 36.92126 31.960629 C 35.716537 31.960629 34.299213 31.464565 33.484253 30.614172 L 24.767717 21.862204 C 24.590553 21.68504 24.307087 21.614172 24.059057 21.649605 z M 41.52756 25.476377 C 41.314964 25.547247 41.17323 25.759842 41.066933 25.937006 C 40.960632 26.185038 40.9252 26.503937 41.173233 26.751966 C 41.173233 26.751966 41.208664 26.751966 41.208664 26.787397 C 41.244095 26.787397 41.244095 26.822828 41.244095 26.858267 L 44.362206 29.976377 L 44.362206 30.011808 L 44.397636 30.011808 L 44.397636 30.04724 C 44.397636 30.08267 44.503937 30.15354 44.6811 30.29527 L 44.6811 30.330702 C 44.858265 30.472433 45.03543 30.720467 45.212597 30.968496 C 45.673225 31.535425 46.06299 32.208652 46.06299 32.917316 C 46.06299 33.66141 45.673225 34.299206 45.212597 34.866135 C 44.858265 35.362198 44.539368 35.61023 44.433067 35.681095 C 44.433067 35.681095 44.433067 35.716526 44.433067 35.716526 C 44.433067 35.751957 44.433067 35.787395 44.433067 35.787395 L 44.397636 35.787395 C 44.397636 35.822826 44.397636 35.822826 44.397636 35.822826 L 43.26378 36.921253 L 41.20866 38.97637 C 40.889763 39.29527 40.889763 39.755898 41.20866 40.039364 C 41.492126 40.35826 41.88189 40.35826 42.200787 40.074795 C 42.200787 40.074795 42.236217 40.074795 42.236217 40.039364 C 45.212597 37.062984 41.56299 40.712593 44.539368 37.700783 C 46.594486 35.645664 43.370075 38.905506 45.425194 36.85039 C 46.06299 36.177162 46.594486 35.716534 46.948814 35.11417 C 47.303146 34.54724 47.48031 33.874012 47.48031 32.95275 C 47.48031 32.03149 47.303143 31.358263 46.948814 30.755901 C 46.77165 30.437004 46.523617 30.15354 46.275585 29.870075 C 46.240154 29.870075 46.240154 29.870075 46.240154 29.834644 C 46.169285 29.763775 46.098423 29.622046 45.885822 29.44488 L 42.236217 25.7244 C 42.236217 25.7244 42.236217 25.7244 42.236217 25.7244 C 42.129917 25.582668 41.988186 25.5118 41.81102 25.476368 C 41.81102 25.476368 41.81102 25.476368 41.77559 25.476368 C 41.70472 25.476368 41.598423 25.476368 41.527557 25.476368 z " fill="#ffffff" fill-opacity="1" fill-rule="nonzero" stroke="none"/>
</g>
</svg>
