<?xml version="1.0" encoding="UTF-8"?>
<svg xmlns="http://www.w3.org/2000/svg" xmlns:xlink="http://www.w3.org/1999/xlink" baseProfile="tiny" contentScriptType="text/ecmascript" contentStyleType="text/css" height="70px" preserveAspectRatio="xMidYMid meet" version="1.1" viewBox="0 0 70 70" width="70px" x="0px" y="0px" zoomAndPan="magnify">
<rect fill="none" height="70" width="70"/>
<defs>
<linearGradient gradientUnits="userSpaceOnUse" x1="35.0005" x2="35.0005" y1="61" y2="9.0005">
<stop offset="0" stop-color="#d0cbc5"/>
<stop offset="0.5031" stop-color="#fafcef"/>
<stop offset="0.9693" stop-color="#ffffff"/>
<stop offset="1" stop-color="#ffffff"/>
</linearGradient>
</defs>
<rect color="#000000" display="inline" fill="#ffffff" fill-opacity="0.5098038" fill-rule="nonzero" height="39" rx="2.0718596" ry="2.0718596" stroke="none" stroke-width="1" visibility="visible" width="39" x="15.5" y="15.5"/>
<path color="#000000" d="M 36.78125 19.65625 C 36.272385 19.63932 35.78167 19.893866 35.46875 20.3125 C 35.15583 20.731133 35.000175 21.259983 35.0 21.8125 L 35.0 25.65625 L 35.0 27.03125 L 35.0 32.21875 L 35.0 33.875 L 25.75 26.5625 C 25.65646 26.48472 25.527155 26.455301 25.40625 26.46875 C 25.228424 26.49021 25.047129 26.608448 25.0 26.78125 C 24.95287 26.95406 25.045183 27.14123 25.1875 27.25 L 35.0 35.0 L 25.1875 42.75 C 25.00046 42.89696 24.946793 43.21921 25.09375 43.40625 C 25.24071 43.59329 25.56296 43.61576 25.75 43.46875 L 35.0 36.15625 L 35.0 37.78125 L 35.0 41.75 L 35.0 43.0 L 35.0 48.1875 C 35.000908 48.91583 35.280502 49.61026 35.8125 50.03125 C 36.344498 50.45224 37.092525 50.45157 37.625 50.03125 L 40.90625 47.4375 L 44.1875 44.84375 C 44.71816 44.4216 45.0 43.72791 45.0 43.0 C 45.0 42.27209 44.71816 41.54715 44.1875 41.125 L 41.125 38.71875 C 41.11097 38.70255 41.10991 38.67035 41.09375 38.65625 L 40.90625 38.53125 L 37.625 35.9375 C 37.59325 35.9123 37.56467 35.8976 37.53125 35.875 L 36.4375 35.0 L 37.625 34.0625 L 38.46875 33.4375 L 41.09375 31.34375 C 41.11847 31.32535 41.13577 31.30435 41.15625 31.28125 L 44.1875 28.875 C 44.71816 28.45286 45.0 27.75916 45.0 27.03125 C 45.0 26.30334 44.71816 25.578392 44.1875 25.15625 L 40.90625 22.5625 L 37.625 19.96875 C 37.375828 19.770868 37.096283 19.667694 36.78125 19.65625 z M 36.6875 20.5625 C 36.70891 20.56 36.72973 20.561773 36.75 20.5625 C 36.85444 20.5663 36.94855 20.597015 37.0625 20.6875 L 40.34375 23.28125 L 43.625 25.875 C 43.855434 26.058313 44.09375 26.552584 44.09375 27.03125 C 44.09375 27.50992 43.855434 27.97294 43.625 28.15625 L 40.34375 30.75 L 37.1875 33.28125 L 37.0625 33.375 C 36.835453 33.55207 36.60211 33.55113 36.375 33.375 C 36.14446 33.19257 35.906837 32.69768 35.90625 32.21875 L 35.90625 25.65625 L 35.90625 21.8125 C 35.90637 21.444548 36.0512 21.099152 36.21875 20.875 C 36.365356 20.678864 36.53765 20.579773 36.6875 20.5625 z M 36.6875 36.53125 C 36.70891 36.52925 36.72973 36.53052 36.75 36.53125 C 36.85444 36.53525 36.94855 36.56577 37.0625 36.65625 L 40.34375 39.25 L 40.53125 39.375 C 40.54397 39.3851 40.54878 39.39745 40.5625 39.40625 L 43.625 41.84375 C 43.855434 42.02706 44.09375 42.52133 44.09375 43.0 C 44.09375 43.47866 43.855434 43.94168 43.625 44.125 L 40.34375 46.71875 L 37.0625 49.34375 C 36.834213 49.52395 36.60343 49.52089 36.375 49.34375 L 36.375 49.3125 C 36.14446 49.13006 35.906837 48.66643 35.90625 48.1875 L 35.90625 43.0 L 35.90625 41.75 L 35.90625 37.78125 C 35.90637 37.4133 36.0512 37.0679 36.21875 36.84375 C 36.365356 36.64761 36.53765 36.54852 36.6875 36.53125 z " display="inline" fill="#ffffff" fill-opacity="1" fill-rule="nonzero" stroke="none" stroke-width="1" visibility="visible"/>
</svg>
