<?xml version="1.0" encoding="UTF-8"?>
<svg xmlns="http://www.w3.org/2000/svg" xmlns:xlink="http://www.w3.org/1999/xlink" baseProfile="tiny" contentScriptType="text/ecmascript" contentStyleType="text/css" height="30px" preserveAspectRatio="xMidYMid meet" version="1.1" viewBox="0 0 30 30" width="30px" x="0px" y="0px" zoomAndPan="magnify">
<defs/>
<rect fill="none" height="30" width="30"/>
<path color="#000000" d="M 19.90625 3.0 C 19.731611 3.02906 19.52502 3.123085 19.375 3.28125 C 19.374674 3.291663 19.374674 3.302087 19.375 3.3125 C 19.33978 3.339411 19.30816 3.371029 19.28125 3.40625 L 13.25 9.4375 C 12.316209 10.397401 11.356645 11.3656 10.40625 12.3125 C 10.01776 12.6995 9.672207 13.026425 9.40625 13.46875 C 9.139003 13.913234 9.030888 14.424598 9.03125 15.03125 C 9.031656 15.637242 9.145571 16.16569 9.40625 16.59375 C 9.666492 17.021082 9.997679 17.34104 10.375 17.71875 C 11.601107 18.946123 12.842761 20.15388 14.0625 21.375 C 15.796773 23.11125 17.54348 24.853031 19.28125 26.59375 L 19.3125 26.625 C 19.3177 26.6302 19.3073 26.65102 19.3125 26.65625 C 19.33143 26.67887 19.35238 26.69982 19.375 26.71875 C 19.3849 26.72962 19.39538 26.74005 19.40625 26.75 C 19.776299 27.075035 20.377901 27.035849 20.71875 26.6875 C 20.898848 26.503271 20.984953 26.24614 20.96875 26.0 C 20.95255 25.75386 20.85231 25.541124 20.6875 25.375 L 15.53125 20.21875 C 14.1069 18.845375 12.412977 17.19304 11.25 15.875 C 11.014356 15.56929 10.875272 15.268206 10.875 15.03125 C 10.87478 14.793614 11.019343 14.456962 11.25 14.15625 C 12.208049 13.079433 13.508775 11.834975 14.65625 10.6875 L 14.65625 10.65625 L 20.65625 4.6875 C 20.68052 4.658735 20.70153 4.627219 20.71875 4.59375 C 21.02666 4.2714434 21.023155 3.8331363 20.875 3.53125 C 20.717749 3.210772 20.365517 2.9338326 19.90625 3.0 z " display="inline" fill="#ffffff" fill-opacity="1" fill-rule="nonzero" stroke="none" stroke-dashoffset="0" stroke-linecap="round" stroke-linejoin="round" stroke-miterlimit="4" stroke-opacity="1" stroke-width="1" visibility="visible"/>
</svg>
