<?xml version="1.0" encoding="UTF-8"?>
<svg xmlns="http://www.w3.org/2000/svg" xmlns:xlink="http://www.w3.org/1999/xlink" baseProfile="tiny" contentScriptType="text/ecmascript" contentStyleType="text/css" height="30px" preserveAspectRatio="xMidYMid meet" version="1.1" viewBox="0 0 30 30" width="30px" x="0px" y="0px" zoomAndPan="magnify">
<defs/>
<rect fill="none" height="30" width="30"/>
<g transform="matrix(0.5814404,0,0,0.5814404,2,3.9788006)">
<path d="M 16.830708 0.0 C 16.51181 -0.03543307 16.263777 0.2125984 16.122046 0.46062988 C 16.015747 0.7086614 15.980313 1.0629921 16.228344 1.2755905 C 16.228344 1.3110236 16.228344 1.3110236 16.263775 1.3110236 C 16.299206 1.3464566 16.299206 1.3818896 16.299206 1.4173228 L 22.216528 7.3346457 L 22.216528 7.370078 L 22.216528 7.405511 C 22.216528 7.440944 22.35826 7.5118103 22.535423 7.6535425 L 22.570856 7.6889753 C 22.712587 7.866141 22.889751 8.043306 23.102352 8.326771 C 23.562984 8.8937 23.952744 9.602362 23.952744 10.346457 C 23.952744 11.09055 23.527548 11.76378 23.102352 12.366141 C 22.712587 12.862205 22.393692 13.074802 22.322824 13.145668 C 22.322824 13.181098 22.322824 13.181098 22.322824 13.181098 C 22.287394 13.216528 22.287394 13.251968 22.251957 13.287397 L 22.216524 13.287397 C 22.216524 13.287397 22.216524 13.322827 22.216524 13.322827 L 21.082666 14.456685 L 16.263767 19.27558 C 15.94487 19.59448 15.94487 20.055107 16.263767 20.374006 C 16.547232 20.692904 16.97243 20.692904 17.291328 20.409435 C 17.291328 20.409435 17.291328 20.374006 17.326756 20.338568 C 20.374 17.291325 19.346443 18.318884 22.393686 15.27164 C 24.51967 13.145655 21.18896 16.476364 23.279512 14.35038 C 23.952742 13.677152 24.484238 13.216522 24.838568 12.614159 C 25.192898 12.011797 25.405497 11.303136 25.405497 10.381876 C 25.405497 9.425183 25.22833 8.716521 24.838568 8.11416 C 24.661415 7.795275 24.413383 7.4763775 24.12992 7.15748 C 24.059055 7.0866137 23.88189 6.9448814 23.740156 6.8031497 L 23.740156 6.767717 L 17.32677 0.24803255 C 17.32677 0.24803255 17.32677 0.24803255 17.32677 0.21259949 C 17.18504 0.10629921 17.043308 0.03543307 16.866142 0.0 C 16.866142 0.0 16.866142 0.0 16.830711 0.0 z M 13.996063 9.531496 C 6.2716537 9.531496 0.0 15.874015 0.0 23.740156 C 0.0 31.570864 6.2716537 37.913383 13.996063 37.913383 L 30.720472 37.913383 C 38.480316 37.913383 44.716537 31.570866 44.716537 23.740156 C 44.716537 15.874016 38.480316 9.531495 30.720474 9.531495 L 30.720474 11.055117 C 37.629925 11.055117 43.228348 16.688974 43.228348 23.740154 C 43.228348 30.791336 37.62992 36.425194 30.720474 36.425194 L 13.996065 36.425194 C 7.086617 36.425194 1.4881916 30.791336 1.4881916 23.740154 C 1.4881916 16.688972 7.086617 11.055116 13.996065 11.055116 L 22.358269 11.055116 L 22.358269 9.531494 L 13.996064 9.531494 z " fill="#ffffff" fill-opacity="1" fill-rule="nonzero" stroke="none"/>
</g>
<path color="#000000" d="M 21.617693 22.179878 C 21.618147 23.38443 20.975786 24.497677 19.932688 25.100082 C 18.889591 25.70249 17.604311 25.70249 16.561214 25.100082 C 15.518117 24.497677 14.875756 23.38443 14.876209 22.179878 C 14.875756 20.975327 15.518117 19.86208 16.561214 19.259674 C 17.604311 18.657267 18.889591 18.657267 19.932688 19.259674 C 20.975786 19.86208 21.618147 20.975327 21.617693 22.179878 z " display="inline" fill="#ffffff" fill-opacity="1" fill-rule="nonzero" stroke="none" stroke-width="5" transform="translate(1.9325588,1.7977291)" visibility="visible"/>
</svg>
