<?xml version="1.0" encoding="UTF-8"?>
<svg xmlns="http://www.w3.org/2000/svg" xmlns:xlink="http://www.w3.org/1999/xlink" baseProfile="tiny" contentScriptType="text/ecmascript" contentStyleType="text/css" height="57px" preserveAspectRatio="xMidYMid meet" version="1.1" viewBox="0 0 67 57" width="67px" x="0px" y="0px" zoomAndPan="magnify">
<path color="#000000" d="M 33.5 20.3125 C 26.771416 20.3125 20.026682 22.95604 14.46875 28.21875 L 14.8125 28.5625 C 20.277472 23.41799 26.896048 20.84375 33.5 20.84375 C 40.10394 20.84375 46.723576 23.41829 52.1875 28.5625 L 52.53125 28.21875 C 46.974384 22.95638 40.228596 20.3125 33.5 20.3125 z " display="inline" fill="#ffffff" fill-opacity="1" stroke="none" stroke-width="5" visibility="visible"/>
<path color="#000000" d="M 33.5 28.0 C 28.75946 28.0 24.01848 30.02258 20.34375 34.0625 L 20.65625 34.40625 C 24.243376 30.47975 28.88144 28.5 33.5 28.5 C 38.11855 28.5 42.757072 30.48012 46.34375 34.40625 L 46.6875 34.0625 C 43.012966 30.02142 38.24149 28.0 33.5 28.0 z " display="inline" fill="#ffffff" fill-opacity="1" stroke="none" stroke-width="5" visibility="visible"/>
<path color="#000000" d="M 33.5 11.34375 C 25.702341 11.34375 17.87654 14.34221 11.9375 20.28125 C 10.449992 21.776373 10.449992 24.192377 11.9375 25.6875 L 30.78125 44.53125 C 31.500696 45.255337 32.479263 45.662518 33.5 45.662518 C 34.520737 45.662518 35.499306 45.255337 36.21875 44.53125 L 55.0625 25.6875 C 56.550007 24.192377 56.550007 21.776373 55.0625 20.28125 C 49.124107 14.342858 41.29766 11.34375 33.5 11.34375 z " display="inline" fill="#ffffff" fill-opacity="0.50980395" stroke="none" stroke-width="5" visibility="visible"/>
<rect fill="none" height="57" width="67"/>
<defs>
<linearGradient gradientUnits="userSpaceOnUse" x1="33.5005" x2="33.5005" y1="47.2334" y2="11.9575">
<stop offset="0" stop-color="#d0cbc5"/>
<stop offset="0.5031" stop-color="#fafcef"/>
<stop offset="0.9693" stop-color="#ffffff"/>
<stop offset="1" stop-color="#ffffff"/>
</linearGradient>
</defs>
<path color="#000000" d="M 33.5 36.5625 C 30.837587 36.5625 28.185564 37.54241 25.8125 39.53125 L 26.15625 39.90625 C 28.428385 38.05584 30.965536 37.125 33.5 37.125 C 36.035355 37.125 38.57155 38.05454 40.84375 39.90625 L 41.21875 39.53125 C 38.84621 37.54234 36.162468 36.5625 33.5 36.5625 z " display="inline" fill="#ffffff" fill-opacity="1" stroke="none" stroke-width="5" visibility="visible"/>
<path color="#000000" d="M 33.5 11.03125 C 25.621834 11.03125 17.718187 14.03181 11.71875 20.03125 C 10.948465 20.801777 10.5 21.879232 10.5 22.96875 C 10.5 24.058268 10.948465 25.135723 11.71875 25.90625 L 30.5625 44.78125 C 31.333029 45.551537 32.41048 45.96875 33.5 45.96875 C 34.58952 45.96875 35.666973 45.551537 36.4375 44.78125 L 55.28125 25.90625 C 56.051537 25.135723 56.5 24.058268 56.5 22.96875 C 56.5 21.879232 56.051537 20.801777 55.28125 20.03125 C 49.282497 14.032499 41.378185 11.03125 33.5 11.03125 z M 33.5 11.65625 C 41.217133 11.65625 48.965717 14.621968 54.84375 20.5 C 55.49194 21.148392 55.875 22.051928 55.875 22.96875 C 55.875 23.885572 55.49194 24.820356 54.84375 25.46875 L 36.0 44.3125 C 35.35161 44.96069 34.416824 45.34375 33.5 45.34375 C 32.58318 45.34375 31.679644 44.96069 31.03125 44.3125 L 12.15625 25.46875 C 11.50806 24.820356 11.125 23.885572 11.125 22.96875 C 11.125 22.051928 11.50806 21.148392 12.15625 20.5 C 18.03489 14.62136 25.782852 11.65625 33.5 11.65625 z " display="inline" fill="#ffffff" fill-opacity="1" stroke="none" stroke-width="5" visibility="visible"/>
</svg>
