<?xml version="1.0" encoding="UTF-8"?>
<svg xmlns="http://www.w3.org/2000/svg" xmlns:xlink="http://www.w3.org/1999/xlink" baseProfile="tiny" contentScriptType="text/ecmascript" contentStyleType="text/css" height="42px" preserveAspectRatio="xMidYMid meet" version="1.1" viewBox="0 0 42 42" width="42px" x="0px" y="0px" zoomAndPan="magnify">
<linearGradient gradientUnits="userSpaceOnUse" x1="20.9995" x2="20.9995" y1="4.1431" y2="38.7565">
<stop offset="0" stop-color="#ffffff"/>
<stop offset="0.1404" stop-color="#ffffff" stop-opacity="0.8596"/>
<stop offset="1" stop-color="#ffffff" stop-opacity="0"/>
</linearGradient>
<linearGradient gradientUnits="userSpaceOnUse" x1="21.0005" x2="21.0005" y1="39" y2="3.0005">
<stop offset="0" stop-color="#ffffff"/>
<stop offset="1" stop-color="#ffffff" stop-opacity="0.5"/>
</linearGradient>
<path d="M 18.118576 0.18979472 C 16.630007 0.39340577 15.198317 0.7347557 13.826086 1.2332728 L 12.521738 2.7747748 L 16.434782 2.7747748 L 20.32411 2.7747748 L 18.379446 0.4980948 L 18.118576 0.1897948 z M 23.833992 0.1897948 L 23.573122 0.4980948 L 21.628458 2.7747748 L 25.541502 2.7747748 L 29.430828 2.7747748 L 28.102764 1.2095578 C 26.74236 0.7208687 25.307968 0.3891937 23.833992 0.18979472 z M 11.003953 2.5139055 C 10.850406 2.5970156 10.704569 2.687981 10.55336 2.7747746 L 11.217391 2.7747746 L 11.003953 2.5139055 z M 30.948616 2.5139055 L 30.735176 2.7747746 L 31.422924 2.7747746 C 31.268469 2.6862245 31.1055 2.598621 30.948616 2.5139055 z M 11.881424 2.7747746 L 9.913044 5.0514545 L 7.968379 7.3281345 L 11.881424 7.3281345 L 15.770752 7.3281345 L 13.826088 5.0514545 L 11.881424 2.7747746 z M 20.988144 2.7747746 L 19.019764 5.0514545 L 17.0751 7.3281345 L 20.988144 7.3281345 L 24.877472 7.3281345 L 22.932808 5.0514545 L 20.988144 2.7747746 z M 30.094864 2.7747746 L 28.126484 5.0514545 L 26.18182 7.3281345 L 30.094864 7.3281345 L 33.98419 7.3281345 L 32.039528 5.0514545 L 30.094864 2.7747746 z M 36.094864 6.3795185 L 35.28854 7.3281345 L 36.94862 7.3281345 C 36.67137 7.0049825 36.39096 6.685178 36.09486 6.379519 z M 5.881422 6.426949 C 5.5978312 6.721104 5.317572 7.017869 5.051382 7.328135 L 6.664031 7.328135 L 5.881422 6.426949 z M 7.328062 7.328135 L 5.359683 9.604816 L 3.415019 11.881495 L 7.328062 11.881495 L 11.21739 11.881495 L 9.272727 9.604815 L 7.328063 7.3281345 z M 16.434784 7.3281345 L 14.466404 9.604815 L 12.52174 11.8814945 L 16.434784 11.8814945 L 20.324112 11.8814945 L 18.379448 9.604815 L 16.434784 7.328134 z M 25.541504 7.328134 L 23.573124 9.604815 L 21.62846 11.8814945 L 25.541504 11.8814945 L 29.430832 11.8814945 L 27.486168 9.604815 L 25.541504 7.328134 z M 34.648224 7.328134 L 32.679844 9.604815 L 30.73518 11.8814945 L 34.648224 11.8814945 L 38.53755 11.8814945 L 36.592888 9.604815 L 34.648224 7.328134 z M 39.88933 11.8103485 L 39.841904 11.881458 L 39.936764 11.881458 C 39.92444 11.855888 39.901745 11.835848 39.889336 11.8103485 z M 2.0869637 11.857779 C 2.0822637 11.867378 2.0679038 11.871819 2.0632436 11.881458 L 2.1106737 11.881458 L 2.0869536 11.857779 z M 2.7747006 11.881458 L 1.3517756 13.517822 C 0.9926101 14.459541 0.7199541 15.43374 0.49802405 16.434818 L 2.774704 16.434818 L 6.664032 16.434818 L 4.719368 14.158138 L 2.774704 11.881458 z M 11.881423 11.881458 L 9.913043 14.158138 L 7.9683785 16.434818 L 11.881422 16.434818 L 15.77075 16.434818 L 13.826086 14.158138 L 11.881422 11.881458 z M 20.98814 11.881458 L 19.01976 14.158138 L 17.075096 16.434818 L 20.98814 16.434818 L 24.877468 16.434818 L 22.932804 14.158138 L 20.98814 11.881458 z M 30.09486 11.881458 L 28.12648 14.158138 L 26.181816 16.434818 L 30.09486 16.434818 L 33.984188 16.434818 L 32.039524 14.158138 L 30.09486 11.881458 z M 39.20158 11.881458 L 37.2332 14.158138 L 35.288536 16.434818 L 39.20158 16.434818 L 41.501976 16.434818 C 41.28163 15.440477 40.98029 14.477358 40.624504 13.541536 L 39.20158 11.881457 z M 7.328062 16.434818 L 5.359683 18.711498 L 3.415019 20.988178 L 7.328062 20.988178 L 11.21739 20.988178 L 9.272726 18.711498 L 7.3280616 16.434818 z M 16.434782 16.434818 L 14.466402 18.711498 L 12.521738 20.988178 L 16.434782 20.988178 L 20.32411 20.988178 L 18.379446 18.711498 L 16.434782 16.434818 z M 25.5415 16.434818 L 23.57312 18.711498 L 21.628456 20.988178 L 25.5415 20.988178 L 29.430828 20.988178 L 27.486164 18.711498 L 25.5415 16.434818 z M 34.64822 16.434818 L 32.67984 18.711498 L 30.735176 20.988178 L 34.64822 20.988178 L 38.537548 20.988178 L 36.592884 18.711498 L 34.64822 16.434818 z M 41.857704 18.64035 L 41.786552 18.71146 L 39.84189 20.98814 L 41.999992 20.98814 C 41.999992 20.19059 41.944263 19.414764 41.8577 18.640314 z M 0.11857704 18.664032 C 0.03374704 19.430847 0.0 20.198711 0.0 20.988142 L 2.110672 20.988142 L 0.166008 18.711462 L 0.118577994 18.664032 z M 2.774705 20.988142 L 0.80632496 23.264822 L 0.21343994 23.976284 C 0.28826994 24.502106 0.38500297 25.028976 0.49802497 25.5415 L 2.774705 25.5415 L 6.664033 25.5415 L 4.719369 23.26482 L 2.774705 20.98814 z M 11.881424 20.98814 L 9.913044 23.26482 L 7.968379 25.5415 L 11.881424 25.5415 L 15.770752 25.5415 L 13.826088 23.26482 L 11.881424 20.98814 z M 20.988144 20.98814 L 19.019764 23.26482 L 17.0751 25.5415 L 20.988144 25.5415 L 24.877472 25.5415 L 22.932808 23.26482 L 20.988144 20.98814 z M 30.094864 20.98814 L 28.126484 23.26482 L 26.18182 25.5415 L 30.094864 25.5415 L 33.98419 25.5415 L 32.039528 23.26482 L 30.094864 20.98814 z M 39.201584 20.98814 L 37.233204 23.26482 L 35.28854 25.5415 L 39.201584 25.5415 L 41.50198 25.5415 C 41.613224 25.03686 41.71233 24.517542 41.78656 24.0 L 41.146244 23.264818 L 39.20158 20.988138 z M 7.328062 25.541498 L 5.359683 27.818178 L 3.415019 30.094858 L 7.328062 30.094858 L 11.21739 30.094858 L 9.272726 27.818178 L 7.3280616 25.541498 z M 16.434782 25.541498 L 14.466402 27.818178 L 12.521738 30.094858 L 16.434782 30.094858 L 20.32411 30.094858 L 18.379446 27.818178 L 16.434782 25.541498 z M 25.5415 25.541498 L 23.57312 27.818178 L 21.628456 30.094858 L 25.5415 30.094858 L 29.430828 30.094858 L 27.486164 27.818178 L 25.5415 25.541498 z M 34.64822 25.541498 L 32.67984 27.818178 L 30.735176 30.094858 L 34.64822 30.094858 L 38.537548 30.094858 L 36.592884 27.818178 L 34.64822 25.541498 z M 40.03162 29.857704 L 39.841896 30.094858 L 39.936756 30.094858 C 39.974075 30.017408 39.995216 29.93568 40.031616 29.857704 z M 2.01581 29.976284 C 2.03405 30.014765 2.04478 30.056534 2.06324 30.09486 L 2.11067 30.09486 L 2.01581 29.976284 z M 2.774704 30.09486 L 2.324111 30.6166 C 3.073404 32.06784 3.998282 33.418655 5.051383 34.64822 L 6.664032 34.64822 L 4.719368 32.37154 L 2.774704 30.09486 z M 11.881423 30.09486 L 9.913043 32.37154 L 7.9683785 34.64822 L 11.881422 34.64822 L 15.77075 34.64822 L 13.826086 32.37154 L 11.881422 30.09486 z M 20.98814 30.09486 L 19.01976 32.37154 L 17.075096 34.64822 L 20.98814 34.64822 L 24.877468 34.64822 L 22.932804 32.37154 L 20.98814 30.09486 z M 30.09486 30.09486 L 28.12648 32.37154 L 26.181816 34.64822 L 30.09486 34.64822 L 33.984188 34.64822 L 32.039524 32.37154 L 30.09486 30.09486 z M 39.20158 30.09486 L 37.2332 32.37154 L 35.288536 34.64822 L 36.972332 34.64822 C 38.015705 33.42818 38.90749 32.078354 39.652172 30.640312 L 39.20158 30.094858 z M 7.328063 34.64822 L 6.213439 35.928856 C 7.498632 37.20187 8.951647 38.29258 10.529644 39.201584 L 11.217391 39.201584 L 9.272727 36.924904 L 7.3280625 34.648224 z M 16.434782 34.648224 L 14.466402 36.924904 L 12.521738 39.201584 L 16.434782 39.201584 L 20.32411 39.201584 L 18.379446 36.924904 L 16.434782 34.648224 z M 25.5415 34.648224 L 23.57312 36.924904 L 21.628456 39.201584 L 25.5415 39.201584 L 29.430828 39.201584 L 27.486164 36.924904 L 25.5415 34.648224 z M 34.64822 34.648224 L 32.67984 36.924904 L 30.735176 39.201584 L 31.470354 39.201584 C 33.035282 38.29913 34.48591 37.21339 35.762844 35.95257 L 34.64822 34.64822 z M 11.881422 39.20158 L 11.454544 39.699604 C 11.923138 39.939026 12.389342 40.1592 12.877469 40.363636 L 11.881422 39.20158 z M 20.98814 39.20158 L 19.01976 41.47826 L 18.687744 41.857708 C 19.44724 41.940887 20.206505 42.0 20.988142 42.0 C 21.754784 42.0 22.519444 41.93777 23.264822 41.857708 L 22.932806 41.47826 L 20.988142 39.20158 z M 30.09486 39.20158 L 29.075096 40.387352 C 29.573584 40.17948 30.043571 39.943916 30.521736 39.699604 L 30.094858 39.20158 z " fill="url(#radialGradient3321)" fill-opacity="1" fill-rule="nonzero" stroke="none"/>
<linearGradient gradientUnits="userSpaceOnUse" x1="20.9995" x2="20.9995" y1="35.1162" y2="5.3217">
<stop offset="0" stop-color="#000000"/>
<stop offset="1" stop-color="#000000" stop-opacity="0"/>
</linearGradient>
<rect fill="none" height="42" width="42"/>
<defs>
<linearGradient gradientUnits="userSpaceOnUse" x1="20.9995" x2="20.9995" y1="4.5005" y2="37.2861">
<stop offset="0" stop-color="#000000"/>
<stop offset="1" stop-color="#000000" stop-opacity="0"/>
</linearGradient>
<radialGradient cx="133.07812" cy="160.76562" fx="133.07812" fy="160.76562" gradientTransform="matrix(1,0,0,0.99548278,-61.428571,247.86907)" gradientUnits="userSpaceOnUse" r="27.671875">
<stop offset="0" stop-color="#ffffff" stop-opacity="0.58823532"/>
<stop offset="0.32208225" stop-color="#ffffff" stop-opacity="0.19607843"/>
<stop offset="0.59827095" stop-color="#ffffff" stop-opacity="0.02713178"/>
<stop offset="1" stop-color="#ffffff" stop-opacity="0"/>
</radialGradient>
<linearGradient>
<stop offset="0" stop-color="#ffffff" stop-opacity="0.58823532"/>
<stop offset="0.32208225" stop-color="#ffffff" stop-opacity="0.19607843"/>
<stop offset="0.59827095" stop-color="#ffffff" stop-opacity="0.02713178"/>
<stop offset="1" stop-color="#ffffff" stop-opacity="0"/>
</linearGradient>
<radialGradient cx="133.07812" cy="160.76562" fx="133.07812" fy="160.76562" gradientTransform="matrix(0.75889328,0,0,0.75546519,-79.992094,-100.3579)" gradientUnits="userSpaceOnUse" id="radialGradient3321" r="27.671875">
<stop offset="0" stop-color="#ffffff" stop-opacity="0.58823532"/>
<stop offset="0.32208225" stop-color="#ffffff" stop-opacity="0.19607843"/>
<stop offset="0.59827095" stop-color="#ffffff" stop-opacity="0.02713178"/>
<stop offset="1" stop-color="#ffffff" stop-opacity="0"/>
</radialGradient>
</defs>
</svg>
