<?xml version="1.0" encoding="UTF-8"?>
<svg xmlns="http://www.w3.org/2000/svg" xmlns:xlink="http://www.w3.org/1999/xlink" baseProfile="tiny" contentScriptType="text/ecmascript" contentStyleType="text/css" height="30px" preserveAspectRatio="xMidYMid meet" version="1.1" viewBox="0 0 30 30" width="30px" x="0px" y="0px" zoomAndPan="magnify">
<defs/>
<rect fill="none" height="30" width="30"/>
<path d="M 265.15625 88.4375 C 263.8171 88.42672 262.49628 88.74888 261.3125 89.375 L 126.5625 160.28125 C 123.0861 162.10706 121.42505 166.16739 122.625 169.90625 L 128.125 187.09375 C 128.13507 187.1355 128.14548 187.17717 128.1562 187.21875 C 154.63254 265.38602 203.22758 344.38388 272.1562 413.3125 C 273.5783 414.73462 274.79663 415.77997 275.68744 416.65625 C 275.69144 416.66025 275.71454 416.65225 275.71863 416.65625 C 275.82422 416.76035 275.8232 416.7642 275.90613 416.84375 C 275.97522 416.91006 276.00916 416.94986 276.06238 417.0 C 276.1538 417.09604 276.2476 417.18982 276.34363 417.28125 C 277.27393 418.2255 278.3107 419.4358 279.68738 420.8125 C 348.61432 489.73944 427.58008 538.3665 505.74988 564.84375 C 505.80185 564.8547 505.85394 564.86505 505.90613 564.87494 L 523.1249 570.3437 C 526.8543 571.5263 530.8953 569.8678 532.7186 566.4062 L 603.625 431.6875 C 604.63745 429.7611 604.8302 427.5078 604.15967 425.43747 C 603.48914 423.3671 602.012 421.65463 600.0625 420.6875 L 488.40625 365.46875 C 485.29547 363.92557 481.54663 364.542 479.09375 367.0 L 438.5 407.625 C 434.61456 404.84225 430.39944 401.85513 426.5625 398.96875 C 420.8025 394.6357 415.117 390.1886 409.4375 385.59375 C 403.75272 380.99463 398.10614 376.28134 392.53125 371.4375 C 386.94565 366.58435 381.378 361.60144 375.90625 356.5 C 370.4314 351.39566 365.04596 346.17096 359.6875 340.8125 C 358.7262 339.8512 357.65543 338.70624 356.375 337.40625 C 356.34402 337.37476 356.3128 337.34354 356.2813 337.31256 C 356.14294 337.17664 355.93253 336.95776 355.5938 336.62506 C 354.29428 335.34525 353.14917 334.27417 352.18756 333.31256 C 346.8291 327.9541 341.60437 322.56863 336.50006 317.0938 C 331.38754 311.6102 326.37332 306.0416 321.5313 300.4688 C 316.6986 294.90674 312.01657 289.2611 307.4063 283.56256 C 302.80032 277.8693 298.32202 272.18283 294.00006 266.43756 C 291.12238 262.6122 288.14917 258.38614 285.37506 254.50006 L 326.0 213.90623 C 328.458 211.45337 329.07443 207.70451 327.53125 204.59373 L 272.3125 92.9375 C 270.96423 90.2101 268.19852 88.470955 265.15625 88.4375 z " fill="#5dd300" fill-opacity="1" fill-rule="nonzero" stroke="none" transform="matrix(0.05390674,0,0,0.05390674,-4.589473,-2.7665582)"/>
</svg>
