<?xml version="1.0" encoding="UTF-8"?>
<!DOCTYPE svg PUBLIC "-//W3C//DTD SVG 1.1 Tiny//EN" "http://www.w3.org/Graphics/SVG/1.1/DTD/svg11-tiny.dtd">
<svg baseProfile="tiny" height="57px" version="1.1" viewBox="0 0 67 57" width="67px" x="0px" xmlns="http://www.w3.org/2000/svg" xmlns:xlink="http://www.w3.org/1999/xlink" y="0px">
<g>
<path d="M15.5,50.5c-2.757,0-5-2.244-5-5v-34c0-2.321,1.483-4.306,3.572-4.846   C14.221,6.558,14.394,6.5,14.578,6.5h3.318c0.043,0,0.086,0.003,0.129,0.009c0.652,0.084,1.193,0.377,1.563,0.846   c0.384,0.48,0.506,1.152,0.341,1.889c-0.021,0.097-0.057,0.191-0.107,0.277l-0.395,0.693l-1.238,2.141   c-0.044,0.144-0.075,0.278-0.095,0.415h5.602c0.042-0.021,0.065-0.04,0.073-0.047c-0.004-0.009-0.01-0.062-0.032-0.135l-1.364-2.37   L22.011,9.6c-0.049-0.084-0.085-0.175-0.108-0.27c-0.188-0.781-0.071-1.485,0.328-1.982c0.374-0.466,0.917-0.757,1.569-0.84   C23.842,6.502,23.884,6.5,23.926,6.5h18.963c0.043,0,0.086,0.003,0.129,0.009c0.647,0.084,1.188,0.375,1.562,0.842   c0.399,0.5,0.517,1.204,0.327,1.982c-0.022,0.092-0.059,0.18-0.104,0.262l-1.73,2.992c-0.02,0.073-0.02,0.133-0.004,0.179   c-0.002-0.005,0-0.008,0-0.008c0.011,0,0.021,0.005,0.039,0.012h5.638c0.041-0.021,0.063-0.039,0.071-0.047   c-0.004-0.004-0.008-0.024-0.016-0.052l-1.813-3.145c-0.055-0.093-0.094-0.194-0.114-0.3c-0.194-0.945,0.082-1.542,0.349-1.875   c0.371-0.467,0.914-0.759,1.566-0.843C48.83,6.502,48.873,6.5,48.916,6.5h3.303c0.165,0,0.321,0.04,0.459,0.111   C54.879,7.062,56.5,9.104,56.5,11.5v34c0,2.756-2.243,5-5,5H15.5z M47.25,40.5v-0.705h-7.742c-0.279,0-0.549-0.117-0.736-0.324   c-0.189-0.207-0.283-0.484-0.26-0.766c0.242-2.717,2.354-4.461,4.801-6.481c2.56-2.126,3.767-3.396,3.767-5.843   c0-1.092,0-4.416-5.722-4.416c-1.469,0-2.963,0.198-4.551,0.604v0.62c1.045-0.309,2.158-0.543,3.383-0.543   c2.703,0,4.191,1.385,4.191,3.9c0,2.179-1.355,3.462-3.271,5.041c-2.537,2.088-5.016,4.438-5.016,8.127V40.5H47.25z M31.015,40.471   v-0.398h-3.129c-0.553,0-1-0.447-1-1V21.994h-1.33l-5.638,1.722v0.426l3.178-0.665c0.068-0.015,0.137-0.021,0.205-0.021   c0.228,0,0.45,0.078,0.631,0.224c0.233,0.19,0.369,0.476,0.369,0.776v14.617c0,0.553-0.447,1-1,1h-3.383v0.398H31.015z" fill-opacity="0.15" stroke-opacity="0.15"/>
<path d="M52.219,8.547V8.5h-3.303c-0.256,0.033-0.646,0.139-0.914,0.475   c-0.254,0.318-0.207,0.775-0.15,1.051l0.401,0.693l1.483,2.574c0.064,0.233,0.102,0.538-0.022,0.85   c-0.138,0.352-0.51,0.535-0.772,0.627h-6.022c-0.271-0.092-0.638-0.275-0.776-0.627c-0.15-0.374-0.076-0.73,0.017-0.972   l1.418-2.452l0.358-0.623c0.063-0.26,0.139-0.777-0.138-1.121c-0.271-0.336-0.653-0.442-0.909-0.475H23.926   c-0.262,0.033-0.646,0.139-0.916,0.475c-0.276,0.344-0.197,0.861-0.135,1.121l0.363,0.623l1.412,2.452   c0.092,0.241,0.168,0.598,0.018,0.972c-0.141,0.352-0.51,0.535-0.776,0.627h-6.023c-0.265-0.092-0.638-0.276-0.773-0.627   c-0.022-0.051-0.016-0.098-0.028-0.15c0.018-0.325,0.068-0.661,0.193-1.016l0.011-0.033l1.286-2.226l0.396-0.693   c0.062-0.275,0.105-0.732-0.149-1.05c-0.266-0.336-0.653-0.442-0.909-0.475h-3.318v0.066C12.84,8.88,11.5,10.522,11.5,12.5v34   c0,2.199,1.801,4,4,4h36c2.199,0,4-1.801,4-4v-34C55.5,10.459,54.059,8.784,52.219,8.547z M32.015,42.471H18.918v-2.398h4.383   V25.455l-4.383,0.918v-2.397l6.488-1.981h2.479v18.078h4.129L32.015,42.471L32.015,42.471z M48.25,42.5H35.094v-1.785   c0-4.1,2.732-6.721,5.381-8.9c1.793-1.477,2.906-2.537,2.906-4.268c0-1.869-0.939-2.9-3.191-2.9c-1.594,0-3.021,0.447-4.383,0.922   v-2.762c1.822-0.529,3.67-0.842,5.551-0.842c4.156,0,6.722,1.648,6.722,5.416c0,3.014-1.707,4.602-4.129,6.614   c-2.563,2.117-4.245,3.596-4.441,5.801h8.742L48.25,42.5L48.25,42.5z" fill-opacity="0.3" stroke-opacity="0.3"/>
<path d="M52.219,7.547V7.5h-3.303c-0.256,0.033-0.646,0.139-0.914,0.475   c-0.254,0.318-0.207,0.775-0.15,1.051l0.401,0.693l1.483,2.574c0.064,0.233,0.102,0.538-0.022,0.85   c-0.138,0.352-0.51,0.535-0.772,0.627h-6.022c-0.271-0.092-0.638-0.275-0.776-0.627c-0.15-0.374-0.076-0.73,0.017-0.972   l1.418-2.452l0.358-0.623c0.063-0.26,0.139-0.777-0.138-1.121c-0.271-0.336-0.653-0.442-0.909-0.475H23.926   c-0.262,0.033-0.646,0.139-0.916,0.475c-0.276,0.344-0.197,0.861-0.135,1.121l0.363,0.623l1.412,2.452   c0.092,0.241,0.168,0.598,0.018,0.972c-0.141,0.352-0.51,0.535-0.776,0.627h-6.023c-0.265-0.092-0.638-0.276-0.773-0.627   c-0.022-0.051-0.016-0.098-0.028-0.15c0.018-0.325,0.068-0.661,0.193-1.016l0.011-0.033l1.286-2.226l0.396-0.693   c0.062-0.275,0.105-0.732-0.149-1.05c-0.266-0.336-0.653-0.442-0.909-0.475h-3.318v0.066C12.84,7.88,11.5,9.522,11.5,11.5v34   c0,2.199,1.801,4,4,4h36c2.199,0,4-1.801,4-4v-34C55.5,9.459,54.059,7.784,52.219,7.547z M32.015,41.471H18.918v-2.398h4.383   V24.455l-4.383,0.918v-2.397l6.488-1.981h2.479v18.078h4.129L32.015,41.471L32.015,41.471z M48.25,41.5H35.094v-1.785   c0-4.1,2.732-6.721,5.381-8.9c1.793-1.477,2.906-2.537,2.906-4.268c0-1.869-0.939-2.9-3.191-2.9c-1.594,0-3.021,0.447-4.383,0.922   v-2.762c1.822-0.529,3.67-0.842,5.551-0.842c4.156,0,6.722,1.648,6.722,5.416c0,3.014-1.707,4.602-4.129,6.614   c-2.563,2.117-4.245,3.596-4.441,5.801h8.742L48.25,41.5L48.25,41.5z" fill="url(#SVGID_1_)"/>
<path d="M39.508,38.795h0.219c0.549-1.688,2.068-3.021,4.224-4.801c2.422-2.013,4.129-3.601,4.129-6.614   c0-0.216-0.011-0.424-0.026-0.626c-0.142,2.766-1.785,4.315-4.103,6.24C41.387,35.111,39.704,36.59,39.508,38.795z M18.805,8.975   c0.039,0.05,0.061,0.106,0.086,0.161l0.063-0.11c0.062-0.276,0.105-0.733-0.149-1.051c-0.266-0.336-0.653-0.442-0.909-0.475h-3.318   v0.066C12.84,7.88,11.5,9.522,11.5,11.5v1c0-1.977,1.34-3.619,3.078-3.934V8.5h3.318C18.152,8.533,18.539,8.639,18.805,8.975z    M40.189,23.646c-1.594,0-3.021,0.447-4.383,0.922v1c1.361-0.475,2.789-0.922,4.383-0.922c2.018,0,2.976,0.834,3.153,2.35   c0.019-0.146,0.037-0.292,0.037-0.449C43.381,24.678,42.441,23.646,40.189,23.646z M24.668,14.143   c0.15-0.374,0.074-0.73-0.018-0.972c-0.149,0.331-0.5,0.51-0.759,0.599h-6.022c-0.225-0.079-0.519-0.229-0.688-0.486   c-0.06,0.242-0.1,0.479-0.112,0.709c0.011,0.052,0.005,0.099,0.027,0.15c0.135,0.351,0.508,0.535,0.773,0.627h6.022   C24.158,14.678,24.527,14.494,24.668,14.143z M52.219,7.547V7.5h-3.303c-0.256,0.033-0.646,0.139-0.914,0.475   c-0.254,0.318-0.207,0.775-0.15,1.051l0.064,0.111c0.025-0.056,0.047-0.112,0.086-0.162C48.27,8.639,48.66,8.533,48.916,8.5h3.303   v0.048c1.84,0.236,3.281,1.912,3.281,3.952v-1C55.5,9.459,54.059,7.784,52.219,7.547z M22.913,9.161   c0.028-0.063,0.052-0.13,0.097-0.187c0.27-0.336,0.654-0.441,0.916-0.475h18.963c0.256,0.033,0.641,0.139,0.908,0.475   c0.046,0.058,0.069,0.124,0.098,0.189l0.039-0.068c0.063-0.26,0.139-0.777-0.137-1.121c-0.27-0.335-0.652-0.441-0.908-0.474H23.926   c-0.262,0.033-0.646,0.139-0.916,0.475c-0.276,0.344-0.197,0.861-0.135,1.121L22.913,9.161z M35.094,42.5H48.25v-1H35.094V42.5z    M23.301,25.455v-1l-4.383,0.918v1L23.301,25.455z M49.682,13.196c-0.154,0.313-0.492,0.485-0.74,0.572h-6.022   c-0.262-0.089-0.612-0.268-0.761-0.6v0.001c-0.092,0.241-0.167,0.598-0.018,0.972c0.141,0.352,0.508,0.535,0.777,0.627h6.021   c0.265-0.092,0.637-0.275,0.773-0.627c0.124-0.312,0.088-0.616,0.021-0.85L49.682,13.196z M18.918,42.471h13.097v-1H18.918V42.471z   " fill="#FFFFFF"/>
<defs>
<linearGradient gradientTransform="matrix(1 0 0 -1 -249.4805 -316.0195)" gradientUnits="userSpaceOnUse" id="SVGID_1_" x1="282.9805" x2="282.9805" y1="-365.5195" y2="-323.519">
<stop offset="0" style="stop-color:#D0CBC5"/>
<stop offset="0.5031" style="stop-color:#FAFCEF"/>
<stop offset="0.9693" style="stop-color:#FFFFFF"/>
<stop offset="1" style="stop-color:#FFFFFF"/>
</linearGradient>
</defs>
</g>
<rect fill="none" height="57" width="67"/>
</svg>
