<?xml version="1.0" encoding="UTF-8"?>
<svg xmlns="http://www.w3.org/2000/svg" xmlns:xlink="http://www.w3.org/1999/xlink" baseProfile="tiny" contentScriptType="text/ecmascript" contentStyleType="text/css" height="7px" preserveAspectRatio="xMidYMid meet" version="1.1" viewBox="0 0 7 7" width="7px" x="0px" y="0px" zoomAndPan="magnify">
<g>
<path d="M 0.0 0.0070 C 0.0 3.863 2.977 7.0 6.636 7.0 L 7.0 7.0 L 7.0 0.0 L 0.0 0.0 L 0.0 0.0070 z " fill-opacity="0.2" stroke-opacity="0.2"/>
<linearGradient gradientUnits="userSpaceOnUse" id="SVGID_1_" x1="4.042" x2="4.042" xlink:actuate="onLoad" xlink:show="other" xlink:type="simple" y1="-118.4614" y2="-79.1222">
<stop offset="0" stop-color="#007fce"/>
<stop offset="1" stop-color="#007fce"/>
</linearGradient>
<path d="M 6.636 5.0 L 7.0 5.0 L 7.0 0.0 L 1.084 0.0 C 1.533 2.827 3.855 5.0 6.636 5.0 z " fill="url(#SVGID_1_)"/>
<path d="M 6.636 5.0 L 7.0 5.0 L 7.0 0.0 L 1.084 0.0 C 1.533 2.827 3.855 5.0 6.636 5.0 z " fill="#ffffff" fill-opacity="0.07" stroke-opacity="0.07"/>
<linearGradient gradientUnits="userSpaceOnUse" id="SVGID_2_" x1="3.9995" x2="3.9995" xlink:actuate="onLoad" xlink:show="other" xlink:type="simple" y1="0.3076" y2="1.6534">
<stop offset="0" stop-color="#282828"/>
<stop offset="0.2332" stop-color="#1c1c1c"/>
<stop offset="0.5744" stop-color="#121212"/>
<stop offset="1" stop-color="#0f0f0f"/>
</linearGradient>
<path d="M 1.0 0.0080 C 1.0 3.303 3.536 6.0 6.636 6.0 L 7.0 6.0 L 7.0 5.0 L 6.636 5.0 C 3.856 5.0 1.533 2.827 1.0840001 0.0 L 1.0 0.0 L 1.0 0.0080 z " fill="url(#SVGID_2_)" fill-opacity="0.95" stroke-opacity="0.95"/>
</g>
</svg>
