<?xml version="1.0" encoding="UTF-8"?>
<svg xmlns="http://www.w3.org/2000/svg" xmlns:xlink="http://www.w3.org/1999/xlink" baseProfile="tiny" contentScriptType="text/ecmascript" contentStyleType="text/css" height="7px" preserveAspectRatio="xMidYMid meet" version="1.1" viewBox="0 0 7 7" width="7px" x="0px" y="0px" zoomAndPan="magnify">
<g>
<path d="M 7.0 6.994 C 7.0 3.138 4.022 0.0 0.363 0.0 L 0.0 0.0 L 0.0 7.0 L 7.0 7.0 L 7.0 6.994 z " fill-opacity="0.2" stroke-opacity="0.2"/>
<linearGradient gradientUnits="userSpaceOnUse" id="SVGID_1_" x1="2.9995" x2="2.9995" xlink:actuate="onLoad" xlink:show="other" xlink:type="simple" y1="-0.4502" y2="38.8879">
<stop offset="0" stop-color="#007fce"/>
<stop offset="1" stop-color="#007fce"/>
</linearGradient>
<path d="M 6.0 5.994 C 6.0 2.697 3.465 0.0 0.363 0.0 L 0.0 0.0 L 0.0 7.0 L 6.0 7.0 L 6.0 5.994 z " fill="url(#SVGID_1_)"/>
<path d="M 6.0 5.994 C 6.0 2.697 3.465 0.0 0.363 0.0 L 0.0 0.0 L 0.0 7.0 L 6.0 7.0 L 6.0 5.994 z " fill="#ffffff" fill-opacity="0.07" stroke-opacity="0.07"/>
<linearGradient gradientUnits="userSpaceOnUse" id="SVGID_2_" x1="2.9995" x2="2.9995" xlink:actuate="onLoad" xlink:show="other" xlink:type="simple" y1="0.0508" y2="6.7173">
<stop offset="0" stop-color="#ffffff"/>
<stop offset="1" stop-color="#ffffff" stop-opacity="0"/>
</linearGradient>
<path d="M 0.363 0.0040 L 0.0 0.0040 L 0.0 1.004 L 0.363 1.004 C 3.465 1.004 6.0 3.701 6.0 6.998 L 6.0 5.998 C 6.0 2.701 3.465 0.0040 0.363 0.0040 z " fill="url(#SVGID_2_)" fill-opacity="0.15" stroke-opacity="0.15"/>
</g>
</svg>
