<?xml version="1.0" encoding="UTF-8"?>
<svg xmlns="http://www.w3.org/2000/svg" xmlns:xlink="http://www.w3.org/1999/xlink" baseProfile="tiny" contentScriptType="text/ecmascript" contentStyleType="text/css" height="30px" preserveAspectRatio="xMidYMid meet" version="1.1" viewBox="0 0 30 30" width="30px" x="0px" y="0px" zoomAndPan="magnify">
<defs/>
<path color="#000000" d="M 4.90625 10.71875 C 2.7553444 10.71875 1.0 12.474744 1.0 14.625 L 1.0 15.375 C 1.0 17.525707 2.75554 19.28125 4.90625 19.28125 L 5.65625 19.28125 C 7.806959 19.28125 9.5625 17.52571 9.5625 15.375 L 9.5625 14.625 C 9.5625 12.474747 7.8071585 10.71875 5.65625 10.71875 L 4.90625 10.71875 z M 4.90625 12.71875 L 5.65625 12.71875 C 6.730282 12.71875 7.5625 13.551524 7.5625 14.625 L 7.5625 15.375 C 7.5625 16.449358 6.7306066 17.28125 5.65625 17.28125 L 4.90625 17.28125 C 3.8318913 17.28125 3.0 16.44936 3.0 15.375 L 3.0 14.625 C 3.0 13.551521 3.832219 12.71875 4.90625 12.71875 z " display="inline" fill="#ffffff" fill-opacity="1" fill-rule="nonzero" stroke="none" stroke-width="1" visibility="visible"/>
<path color="#000000" d="M 14.625 10.71875 C 12.474093 10.71875 10.71875 12.474744 10.71875 14.625 L 10.71875 15.375 C 10.71875 17.525707 12.474291 19.28125 14.625 19.28125 L 15.375 19.28125 C 17.525707 19.28125 19.28125 17.525707 19.28125 15.375 L 19.28125 14.625 C 19.28125 12.474747 17.525908 10.71875 15.375 10.71875 L 14.625 10.71875 z M 14.625 12.71875 L 15.375 12.71875 C 16.449032 12.71875 17.28125 13.551525 17.28125 14.625 L 17.28125 15.375 C 17.28125 16.44936 16.44936 17.28125 15.375 17.28125 L 14.625 17.28125 C 13.550641 17.28125 12.71875 16.44936 12.71875 15.375 L 12.71875 14.625 C 12.71875 13.551521 13.550969 12.71875 14.625 12.71875 z " display="inline" fill="#ffffff" fill-opacity="1" fill-rule="nonzero" stroke="none" stroke-width="1" visibility="visible"/>
<path color="#000000" d="M 24.34375 10.71875 C 22.192844 10.71875 20.4375 12.474744 20.4375 14.625 L 20.4375 15.375 C 20.4375 17.525707 22.19304 19.28125 24.34375 19.28125 L 25.09375 19.28125 C 27.24446 19.28125 29.0 17.525707 29.0 15.375 L 29.0 14.625 C 29.0 12.474747 27.244658 10.718749 25.09375 10.71875 L 24.34375 10.71875 z M 24.34375 12.71875 L 25.09375 12.71875 C 26.16778 12.718749 27.0 13.551525 27.0 14.625 L 27.0 15.375 C 27.0 16.449358 26.168106 17.28125 25.09375 17.28125 L 24.34375 17.28125 C 23.269392 17.28125 22.4375 16.44936 22.4375 15.375 L 22.4375 14.625 C 22.4375 13.551521 23.26972 12.71875 24.34375 12.71875 z " display="inline" fill="#ffffff" fill-opacity="1" fill-rule="nonzero" stroke="none" stroke-width="1" visibility="visible"/>
<rect fill="none" height="30" width="30"/>
</svg>
