<?xml version="1.0" encoding="UTF-8"?>
<svg xmlns="http://www.w3.org/2000/svg" xmlns:xlink="http://www.w3.org/1999/xlink" baseProfile="tiny" contentScriptType="text/ecmascript" contentStyleType="text/css" height="30px" preserveAspectRatio="xMidYMid meet" version="1.1" viewBox="0 0 30 30" width="30px" x="0px" y="0px" zoomAndPan="magnify">
<defs/>
<rect fill="none" height="30" width="30"/>
<path color="#000000" d="M 19.1875 5.4375 C 18.18319 5.4375 17.375 6.2769394 17.375 7.28125 L 17.375 22.625 C 17.375 23.629309 18.183187 24.4375 19.1875 24.4375 L 21.375 24.4375 C 22.379313 24.4375 23.1875 23.629309 23.1875 22.625 L 23.1875 7.28125 C 23.1875 6.27694 22.379313 5.4375 21.375 5.4375 L 19.1875 5.4375 z M 8.625 5.5625 C 7.6249022 5.5625 6.8125 6.370689 6.8125 7.375 L 6.8125 22.71875 C 6.8125 23.72306 7.6206894 24.5625 8.625 24.5625 L 10.8125 24.5625 C 11.81681 24.5625 12.625 23.71885 12.625 22.71875 L 12.625 7.375 C 12.625 6.374901 11.812598 5.5625 10.8125 5.5625 L 8.625 5.5625 z M 19.1875 6.4375 L 21.375 6.4375 C 21.841404 6.4375 22.1875 6.814849 22.1875 7.28125 L 22.1875 22.625 C 22.1875 23.0914 21.8414 23.4375 21.375 23.4375 L 19.1875 23.4375 C 18.721098 23.4375 18.375 23.0914 18.375 22.625 L 18.375 7.28125 C 18.375 6.814849 18.7211 6.4375 19.1875 6.4375 z M 8.625 6.5625 L 10.8125 6.5625 C 11.283114 6.5625 11.625 6.9043856 11.625 7.375 L 11.625 22.71875 C 11.625 23.189365 11.278902 23.5625 10.8125 23.5625 L 8.625 23.5625 C 8.158598 23.5625 7.8125 23.185152 7.8125 22.71875 L 7.8125 7.375 C 7.8125 6.908597 8.154386 6.5625 8.625 6.5625 z " display="inline" fill="#ffffff" fill-opacity="1" fill-rule="nonzero" stroke="none" stroke-dasharray="none" stroke-dashoffset="0" stroke-linecap="round" stroke-linejoin="round" stroke-miterlimit="4" stroke-opacity="1" stroke-width="1" visibility="visible"/>
</svg>
