<?xml version="1.0" encoding="UTF-8"?>
<svg xmlns="http://www.w3.org/2000/svg" xmlns:xlink="http://www.w3.org/1999/xlink" baseProfile="tiny" contentScriptType="text/ecmascript" contentStyleType="text/css" height="30px" preserveAspectRatio="xMidYMid meet" version="1.1" viewBox="0 0 30 30" width="30px" x="0px" y="0px" zoomAndPan="magnify">
<defs/>
<rect fill="none" height="30" width="30"/>
<path color="#000000" d="M 28.210018 3.0281062 C 27.923662 3.0948231 27.692865 3.2539108 27.529396 3.479918 L 22.463387 10.542816 C 21.123922 12.483985 13.95129 22.544003 12.626298 24.16705 C 12.312374 24.503399 11.985186 24.725279 11.706546 24.771482 C 11.427095 24.817753 11.003157 24.712912 10.604813 24.499865 C 10.396841 24.340265 10.373448 24.344143 10.176758 24.192833 C 10.160257 24.173573 10.144438 24.144833 10.127898 24.125383 C 9.023059 22.827097 7.7807903 21.12278 6.6279297 19.605286 L 6.5911736 19.611385 L 2.5356274 14.239002 C 2.5055594 14.205712 2.4807165 14.166582 2.4439654 14.140842 C 2.1129732 13.725222 1.5942388 13.6508255 1.2138155 13.777115 C 0.80996764 13.911144 0.44215626 14.294185 0.44623828 14.847252 C 0.45239827 15.05819 0.5088683 15.324748 0.67147356 15.527429 C 0.68371654 15.529529 0.69586754 15.520029 0.70822954 15.521329 C 0.73432755 15.567259 0.7686815 15.618789 0.80594355 15.656242 L 4.9042954 21.05933 C 5.8873615 22.316946 6.9078617 23.599014 7.872894 24.874144 C 8.05942 25.120644 8.223835 25.36152 8.404266 25.57942 C 8.414646 25.59195 8.4366865 25.59774 8.447066 25.61013 C 8.499526 25.69381 8.547526 25.764458 8.599688 25.849255 C 8.688087 25.912914 8.771586 25.972328 8.856521 26.033474 C 8.9329 26.105984 8.998174 26.192596 9.082649 26.260498 C 9.371756 26.49288 9.697687 26.62135 10.06762 26.740091 C 10.1007 26.754381 10.11936 26.788042 10.15324 26.80149 C 10.21609 26.819921 10.283805 26.82896 10.349114 26.844751 C 10.871902 27.011059 11.426247 27.045307 12.063568 26.939991 C 12.288081 26.902882 12.475283 26.825336 12.676289 26.763613 C 12.699638 26.756413 12.726779 26.759113 12.749799 26.751503 C 13.157586 26.618303 13.534969 26.448902 13.82867 26.196373 C 13.958972 26.084328 14.072744 25.958286 14.184558 25.835775 C 14.202668 25.815916 14.234248 25.807045 14.2520075 25.786915 C 14.505272 25.500162 14.717334 25.182983 14.964229 24.839144 C 16.170366 23.15941 22.907686 13.717407 24.107697 12.046367 C 25.813946 9.670425 27.524273 7.2787743 29.235113 4.8978596 L 29.265814 4.8550544 C 29.270914 4.8479342 29.297424 4.8561344 29.302565 4.8489943 C 29.325485 4.822339 29.346085 4.79364 29.363964 4.7633824 C 29.374815 4.7496295 29.385075 4.7352896 29.394674 4.7205772 C 29.705303 4.2224174 29.542725 3.5224423 29.067017 3.1890092 C 28.815475 3.0128427 28.496368 2.9613824 28.210012 3.0281012 z " display="inline" fill="#ffffff" fill-opacity="1" fill-rule="nonzero" stroke="none" visibility="visible"/>
</svg>
