<?xml version="1.0" encoding="UTF-8"?>
<svg xmlns="http://www.w3.org/2000/svg" xmlns:xlink="http://www.w3.org/1999/xlink" baseProfile="tiny" contentScriptType="text/ecmascript" contentStyleType="text/css" height="70px" preserveAspectRatio="xMidYMid meet" version="1.1" viewBox="0 0 70 70" width="70px" x="0px" y="0px" zoomAndPan="magnify">
<rect fill="none" height="70" width="70"/>
<defs>
<linearGradient gradientUnits="userSpaceOnUse" x1="34.7925" x2="34.7925" y1="61.2329" y2="8.3545">
<stop offset="0" stop-color="#d0cbc5"/>
<stop offset="0.5031" stop-color="#fafcef"/>
<stop offset="0.9693" stop-color="#ffffff"/>
<stop offset="1" stop-color="#ffffff"/>
</linearGradient>
</defs>
<path d="M 12.224332 13.089865 C 12.156132 13.162945 12.092987 13.2351265 12.046622 13.295618 C 8.975804 16.583273 8.157948 19.452682 7.7490363 21.792583 C 7.178861 25.037123 7.3669944 32.178013 10.704504 35.456944 C 14.042014 38.735874 17.837112 43.50965 21.852974 48.53208 C 22.692284 49.58176 25.215996 53.20766 25.799831 54.293373 C 27.524408 57.500404 27.672321 58.705185 27.693762 62.500404 L 39.12749 51.141495 C 47.20003 43.092865 55.031197 35.212173 62.5 27.694164 C 58.704777 27.672764 57.504677 27.520134 54.29764 25.795565 C 53.211937 25.211725 49.586033 22.688015 48.536354 21.848705 C 43.513927 17.832846 38.740143 14.037741 35.461216 10.700235 C 32.18229 7.362724 25.036726 7.179272 21.792189 7.749448 C 19.45229 8.158358 16.587547 8.971538 13.299896 12.042358 C 13.076481 12.213496 12.738508 12.58103 12.682615 12.640932 C 12.682615 12.640932 12.650175 12.673672 12.6452055 12.678342 C 12.601496 12.719062 12.40796 12.893111 12.2243395 13.0898695 z " fill="#ffffff" fill-opacity="0.5098038" stroke="none"/>
<path d="M 51.1411 39.127903 L 44.986996 45.132362 C 42.971687 47.135624 41.14306 49.138493 39.127502 51.141502 C 42.82881 53.558113 47.55696 53.402233 50.481735 50.477463 C 53.40651 47.55268 53.557713 42.829212 51.141106 39.127903 z " fill="#ffffff" fill-opacity="1" fill-rule="nonzero" stroke="none"/>
</svg>
