<?xml version="1.0" encoding="UTF-8"?>
<svg xmlns="http://www.w3.org/2000/svg" xmlns:xlink="http://www.w3.org/1999/xlink" baseProfile="tiny" contentScriptType="text/ecmascript" contentStyleType="text/css" height="30px" preserveAspectRatio="xMidYMid meet" version="1.1" viewBox="0 0 30 30" width="30px" x="0px" y="0px" zoomAndPan="magnify">
<defs/>
<rect fill="none" height="30" width="30"/>
<path color="#000000" d="M 9.625 5.40625 C 9.36077 5.4062734 9.096576 5.4932976 8.875 5.65625 C 8.431843 5.982153 8.188113 6.5031857 8.1875 7.0625 L 8.1875 15.0 L 8.1875 22.90625 C 8.186813 23.466623 8.43141 24.016716 8.875 24.34375 C 9.318603 24.670782 9.931461 24.670856 10.375 24.34375 L 15.75 20.375 L 21.125 16.40625 C 21.547792 16.094841 21.793036 15.595958 21.8125 15.0625 C 21.83369 14.476983 21.589277 13.90382 21.125 13.5625 L 15.75 9.625 L 10.375 5.65625 C 10.153493 5.493204 9.88923 5.4062266 9.625 5.40625 z M 9.625 6.40625 C 9.671282 6.4062386 9.717559 6.421868 9.78125 6.46875 L 15.15625 10.4375 L 20.53125 14.375 C 20.66485 14.47322 20.823132 14.737485 20.8125 15.03125 C 20.8027 15.29858 20.652716 15.535533 20.53125 15.625 L 15.15625 19.5625 L 9.78125 23.53125 C 9.653584 23.6254 9.596408 23.62536 9.46875 23.53125 C 9.3410845 23.43713 9.187155 23.187492 9.1875 22.90625 L 9.1875 15.0 L 9.1875 7.0625 C 9.187808 6.7818007 9.341383 6.562417 9.46875 6.46875 C 9.5324335 6.421915 9.578719 6.4062614 9.625 6.40625 z " display="inline" fill="#ffffff" fill-opacity="1" fill-rule="nonzero" stroke="none" stroke-dashoffset="0" stroke-linecap="round" stroke-linejoin="round" stroke-miterlimit="4" stroke-opacity="1" stroke-width="1" visibility="visible"/>
</svg>
