<?xml version="1.0" encoding="UTF-8"?>
<svg xmlns="http://www.w3.org/2000/svg" xmlns:xlink="http://www.w3.org/1999/xlink" baseProfile="tiny" contentScriptType="text/ecmascript" contentStyleType="text/css" height="70px" preserveAspectRatio="xMidYMid meet" version="1.1" viewBox="0 0 70 70" width="70px" x="0px" y="0px" zoomAndPan="magnify">
<rect fill="none" height="70" width="70"/>
<defs>
<linearGradient gradientUnits="userSpaceOnUse" x1="35.0015" x2="35.0015" y1="54" y2="16.0005">
<stop offset="0" stop-color="#d0cbc5"/>
<stop offset="0.5031" stop-color="#fafcef"/>
<stop offset="0.9693" stop-color="#ffffff"/>
<stop offset="1" stop-color="#ffffff"/>
</linearGradient>
</defs>
<g fill="#ffffff" fill-opacity="0.5098038" transform="matrix(0.64521088,0,0,0.64521088,10.155619,5.3552399)">
<path d="M -387.90625 402.8125 C -446.94662 402.8125 -494.46875 450.36584 -494.46875 509.40625 L -494.46875 511.90625 C -494.46875 570.94666 -446.94662 618.5 -387.90625 618.5 L -332.84375 618.5 C -331.6906 618.5 -330.55032 618.4735 -329.40625 618.4375 L -265.28125 618.4375 C -265.28125 638.1963 -247.6671 653.65625 -225.9375 653.65625 L -225.9375 617.875 L -225.9375 510.53125 C -225.9375 504.60217 -226.48363 498.7928 -227.5 493.125 C -235.2896 441.8623 -279.3384 402.8125 -332.84375 402.8125 L -387.90625 402.8125 z M -430.15625 488.53125 L -425.84375 488.53125 C -416.27478 488.53125 -408.5 496.30966 -408.5 505.875 L -408.5 510.1875 C -408.5 519.7565 -416.27478 527.53125 -425.84375 527.53125 L -430.15625 527.53125 C -439.72522 527.53125 -447.5 519.7565 -447.5 510.1875 L -447.5 505.875 C -447.5 496.30966 -439.72522 488.53125 -430.15625 488.53125 z M -362.375 488.53125 L -358.03125 488.53125 C -348.46228 488.53125 -340.71875 496.30966 -340.71875 505.875 L -340.71875 510.1875 C -340.71875 519.7565 -348.46228 527.53125 -358.03125 527.53125 L -362.375 527.53125 C -371.94397 527.53125 -379.6875 519.7565 -379.6875 510.1875 L -379.6875 505.875 C -379.6875 496.30966 -371.94397 488.53125 -362.375 488.53125 z M -294.625 488.53125 L -290.28125 488.53125 C -280.71228 488.53125 -272.96875 496.30966 -272.96875 505.875 L -272.96875 510.1875 C -272.96875 519.7565 -280.71228 527.53125 -290.28125 527.53125 L -294.625 527.53125 C -304.19397 527.53125 -311.9375 519.7565 -311.9375 510.1875 L -311.9375 505.875 C -311.9375 496.30966 -304.19397 488.53125 -294.625 488.53125 z " fill="#ffffff" fill-opacity="0.5098038" stroke-opacity="0.9" transform="matrix(0.27704143,0,0,0.27704143,138.29702,-100.39696)"/>
</g>
</svg>
