<?xml version="1.0" encoding="UTF-8"?>
<svg xmlns="http://www.w3.org/2000/svg" xmlns:xlink="http://www.w3.org/1999/xlink" baseProfile="tiny" contentScriptType="text/ecmascript" contentStyleType="text/css" height="96px" preserveAspectRatio="xMidYMid meet" version="1.1" viewBox="0 0 96 96" width="96px" x="0px" y="0px" zoomAndPan="magnify">
<defs>
<linearGradient id="linearGradient3824">
<stop offset="0" stop-color="#0077d0" stop-opacity="1"/>
<stop offset="1" stop-color="#2ea5dc" stop-opacity="1"/>
</linearGradient>
<linearGradient>
<stop offset="0" stop-color="#000000" stop-opacity="1"/>
<stop offset="1" stop-color="#000000" stop-opacity="0"/>
</linearGradient>
<linearGradient gradientTransform="matrix(1.0705177,-0.6180637,0.6180637,1.0705177,-17.308233,24.838374)" gradientUnits="userSpaceOnUse" id="linearGradient3830" x1="4.0269127" x2="68.745159" y1="42.643399" y2="42.643399">
<stop offset="0" stop-color="#0077d0" stop-opacity="1"/>
<stop offset="1" stop-color="#2ea5dc" stop-opacity="1"/>
</linearGradient>
</defs>
<linearGradient gradientTransform="matrix(1 0 0 -1 0.0449 95.7598)" gradientUnits="userSpaceOnUse" x1="47.9556" x2="47.9556" y1="87.7598" y2="7.7603">
<stop offset="0" stop-color="#0077cd"/>
<stop offset="1" stop-color="#003f9a"/>
</linearGradient>
<linearGradient gradientTransform="matrix(1 0 0 -1 0.0449 95.7598)" gradientUnits="userSpaceOnUse" id="SVGID_2_" x1="47.9556" x2="47.9556" y1="87.5068" y2="8.2622">
<stop offset="0" stop-color="#ffffff"/>
<stop offset="1" stop-color="#ffffff" stop-opacity="0"/>
</linearGradient>
<path color="#000000" d="M 82.641014 28.0 C 93.68671 47.131702 87.13171 71.59532 68.0 82.641014 C 48.868298 93.68671 24.40468 87.13171 13.358985 68.0 C 2.31329 48.868298 8.868297 24.40468 28.0 13.358985 C 47.131702 2.3132904 71.59532 8.868296 82.641014 28.0 z " display="inline" fill="url(#linearGradient3830)" fill-opacity="1" fill-rule="nonzero" stroke="none" stroke-width="5" visibility="visible"/>
<path d="M 48.0 8.0 C 18.365 8.0 8.0 18.365 8.0 48.0 C 8.0 77.632996 18.365 88.0 48.0 88.0 C 77.637 88.0 88.0 77.633 88.0 48.0 C 88.0 18.365 77.637 8.0 48.0 8.0 z M 48.0 87.0 C 18.842 87.0 9.0 77.158 9.0 48.0 C 9.0 18.842003 18.842 9.0 48.0 9.0 C 77.158005 9.0 87.0 18.842 87.0 48.0 C 87.0 77.158005 77.158 87.0 48.0 87.0 z " fill="url(#SVGID_2_)" fill-opacity="0.25"/>
<rect fill="none" height="96" width="96"/>
<path d="M 48.0 21.0 C 32.561 21.0 20.0 33.561 20.0 49.0 C 20.0 64.439 32.561 77.0 48.0 77.0 C 63.439 77.0 76.0 64.439 76.0 49.0 C 76.0 33.561 63.439 21.0 48.0 21.0 z M 38.855 43.521 L 30.125 41.982 C 29.604 41.89 29.186 41.608997 28.98 41.211998 C 28.799 40.865997 28.803999 40.474 28.991 40.079 C 32.449 32.741 39.91 28.0 48.0 28.0 C 56.089 28.0 63.551 32.741 67.01 40.079002 C 67.196 40.475002 67.199005 40.867 67.022 41.212 C 66.815 41.609 66.399 41.890003 65.876 41.982002 L 57.147 43.522003 C 55.223 40.304005 51.786 38.334003 48.001 38.334003 C 44.216 38.334003 40.779 40.303 38.855 43.521 z M 53.203 69.346 C 53.075 69.377 52.948997 69.395004 52.828 69.395004 C 52.07 69.395004 51.5 68.733 51.5 67.854004 L 51.5 59.069004 C 55.318 57.750004 58.049 54.387005 58.566 50.381004 L 67.152 48.867004 C 67.265 48.846004 67.379 48.837006 67.488 48.837006 C 67.926 48.837006 68.31 48.992004 68.572 49.274006 C 68.816 49.538006 68.929 49.887005 68.902 50.293007 C 68.24 59.607 62.078 67.089 53.203 69.346 z M 44.5 59.068 L 44.5 67.853 C 44.5 68.728 43.934 69.384995 43.184 69.384995 C 43.060997 69.384995 42.934 69.367 42.804996 69.33399 C 33.950996 67.03399 27.620996 59.380993 27.054996 50.288994 C 27.029997 49.892994 27.146996 49.540993 27.394997 49.275993 C 27.663996 48.992992 28.068996 48.829994 28.509996 48.829994 C 28.620996 48.829994 28.734997 48.839993 28.847996 48.857994 L 37.434 50.374992 C 37.95 54.387 40.682 57.746 44.5 59.068 z " fill-opacity="0.1"/>
<path d="M 48.0 22.0 C 33.088 22.0 21.0 34.088 21.0 49.0 C 21.0 63.912 33.088 76.0 48.0 76.0 C 62.912 76.0 75.0 63.912 75.0 49.0 C 75.0 34.088 62.912 22.0 48.0 22.0 z M 67.914 39.652 C 68.62 41.151 67.682 42.678 66.049 42.966 L 56.615005 44.63 C 55.017006 41.489002 51.763004 39.333 48.000008 39.333 C 44.237007 39.333 40.980007 41.489 39.38501 44.63 L 29.95101 42.967003 C 28.32001 42.679005 27.380009 41.152004 28.08601 39.653004 C 31.607 32.183 39.209 27.0 48.0 27.0 C 56.79 27.0 64.393 32.183 67.914 39.652 z M 29.021 47.879 L 38.359 49.525 C 38.588 53.763 41.539 57.269 45.5 58.329002 L 45.5 67.853004 C 45.5 69.508 44.157 70.719 42.553 70.304 C 33.791 68.029 26.675001 60.279 26.057001 50.355003 C 25.953 48.702 27.391 47.592 29.021 47.879 z M 50.5 67.854 L 50.5 58.33 C 54.461 57.269 57.411 53.766003 57.641 49.527 L 66.979 47.881 C 68.612 47.593002 70.018 48.706 69.90099 50.36 C 69.173 60.59 62.204994 68.09 53.452995 70.315 C 51.844 70.723 50.5 69.512 50.5 67.854 z " fill-opacity="0.1"/>
<linearGradient gradientTransform="matrix(1 0 0 -1 108.2998 -510.666)" gradientUnits="userSpaceOnUse" id="SVGID_3_" x1="-60.2998" x2="-60.2998" y1="-537.6982" y2="-605.3701">
<stop offset="0" stop-color="#fafcef"/>
<stop offset="0.3232" stop-color="#fafcef"/>
<stop offset="1" stop-color="#b2aeaa"/>
</linearGradient>
<path d="M 48.0 20.0 C 33.088 20.0 21.0 32.088 21.0 47.0 C 21.0 61.912 33.088 74.0 48.0 74.0 C 62.912 74.0 75.0 61.912 75.0 47.0 C 75.0 32.088 62.912 20.0 48.0 20.0 z M 67.914 37.652 C 68.62 39.151 67.682 40.678 66.049 40.966 L 56.615005 42.63 C 55.017006 39.489002 51.763004 37.333 48.000008 37.333 C 44.237007 37.333 40.980007 39.489 39.38501 42.63 L 29.95101 40.967003 C 28.32001 40.679005 27.380009 39.152004 28.08601 37.653004 C 31.607 30.183 39.209 25.0 48.0 25.0 C 56.79 25.0 64.393 30.183 67.914 37.652 z M 29.021 45.879 L 38.359 47.526 C 38.588 51.764 41.539 55.27 45.5 56.329002 L 45.5 65.853004 C 45.5 67.508 44.157 68.719 42.553 68.304 C 33.791 66.029 26.675001 58.279 26.057001 48.353 C 25.953 46.702 27.391 45.592 29.021 45.879 z M 50.5 65.854 L 50.5 56.33 C 54.461 55.269 57.411 51.766003 57.641 47.527 L 66.979 45.881 C 68.612 45.593002 70.018 46.706 69.90099 48.36 C 69.173 58.59 62.204994 66.09 53.452995 68.315 C 51.844 68.723 50.5 67.512 50.5 65.854 z " fill="url(#SVGID_3_)"/>
<linearGradient gradientTransform="matrix(1 0 0 -1 108.2998 -510.666)" gradientUnits="userSpaceOnUse" x1="-60.2998" x2="-60.2998" y1="-506.625" y2="-602.9039">
<stop offset="0" stop-color="#ffffff"/>
<stop offset="0.3232" stop-color="#ffffff"/>
<stop offset="1" stop-color="#fafcef"/>
</linearGradient>
<linearGradient gradientTransform="matrix(1 0 0 -1 108.2998 -510.666)" gradientUnits="userSpaceOnUse" x1="-60.2993" x2="-60.2993" y1="-550.5498" y2="-560.4799">
<stop offset="0" stop-color="#ffffff"/>
<stop offset="1" stop-color="#ffffff" stop-opacity="0"/>
</linearGradient>
</svg>
