<?xml version="1.0" encoding="UTF-8"?>
<svg xmlns="http://www.w3.org/2000/svg" xmlns:xlink="http://www.w3.org/1999/xlink" baseProfile="tiny" contentScriptType="text/ecmascript" contentStyleType="text/css" height="96px" preserveAspectRatio="xMidYMid meet" version="1.1" viewBox="0 0 96 96" width="96px" x="0px" y="0px" zoomAndPan="magnify">
<defs>
<linearGradient gradientUnits="userSpaceOnUse" id="SVGID_1_-1" x1="12.7851" x2="85.179199" y1="73.151901" y2="0.75779998">
<stop offset="0" stop-color="#fefbf4" stop-opacity="1"/>
<stop offset="1" stop-color="#f7efce" stop-opacity="1"/>
</linearGradient>
<linearGradient gradientTransform="matrix(-0.93676815,0,0,0.93676815,88.326464,7.7194379)" gradientUnits="userSpaceOnUse" id="linearGradient3164" x1="12.7851" x2="85.179199" y1="73.151901" y2="0.75779998">
<stop offset="0" stop-color="#fefbf4" stop-opacity="1"/>
<stop offset="1" stop-color="#f7efce" stop-opacity="1"/>
</linearGradient>
<linearGradient gradientTransform="matrix(1,0,0,-1,-272.5996,-298.9004)" gradientUnits="userSpaceOnUse" id="SVGID_10_" x1="300.03711" x2="317.63611" y1="-321.30811" y2="-351.22531">
<stop offset="0" stop-color="#b23d88"/>
<stop offset="1" stop-color="#622172"/>
</linearGradient>
<linearGradient gradientTransform="matrix(1,0,0,-1,-272.5996,-298.9004)" gradientUnits="userSpaceOnUse" id="linearGradient3163" x1="300.03711" x2="317.63611" y1="-321.30811" y2="-351.22531">
<stop offset="0" stop-color="#b23d88"/>
<stop offset="1" stop-color="#622172"/>
</linearGradient>
<linearGradient gradientTransform="translate(-1625.5,-1772.5)" gradientUnits="userSpaceOnUse" id="SVGID_11_" x1="1673.5" x2="1673.5" y1="1780.752" y2="1859.9974">
<stop offset="0" stop-color="#ffffff"/>
<stop offset="1" stop-color="#ffffff" stop-opacity="0"/>
</linearGradient>
<linearGradient gradientTransform="translate(-1653.6531,-1824.4537)" gradientUnits="userSpaceOnUse" id="SVGID_11_" x1="1673.5" x2="1673.5" y1="1780.752" y2="1859.9974">
<stop offset="0" stop-color="#ffffff"/>
<stop offset="1" stop-color="#ffffff" stop-opacity="0"/>
</linearGradient>
<linearGradient gradientTransform="translate(-1625.5,-1772.5)" gradientUnits="userSpaceOnUse" id="SVGID_1_" x1="1673.501" x2="1673.501" y1="1780.499" y2="1860.499">
<stop offset="0" stop-color="#cd8ecd"/>
<stop offset="1" stop-color="#692a69"/>
</linearGradient>
<linearGradient gradientTransform="translate(-1706.0029,-1762.8994)" gradientUnits="userSpaceOnUse" id="SVGID_1_" x1="1673.501" x2="1673.501" y1="1780.499" y2="1860.499">
<stop offset="0" stop-color="#cd8ecd"/>
<stop offset="1" stop-color="#692a69"/>
</linearGradient>
<linearGradient gradientTransform="translate(-1625.5,-1772.5)" gradientUnits="userSpaceOnUse" id="linearGradient3992" x1="0.30000001" x2="85.602997" y1="7.526" y2="7.526">
<stop offset="0" stop-color="#cd8ecd"/>
<stop offset="1" stop-color="#692a69"/>
</linearGradient>
</defs>
<linearGradient gradientUnits="userSpaceOnUse" x1="47.9995" x2="47.9995" y1="8.5449" y2="89.2398">
<stop offset="0" stop-color="#f5f09c"/>
<stop offset="1" stop-color="#f9e26b"/>
</linearGradient>
<linearGradient gradientTransform="matrix(1.2374 0.0314 -0.0254 0.9996 -543.1494 -79.6012)" gradientUnits="userSpaceOnUse" x1="479.6621" x2="479.6621" y1="128.6709" y2="81.6354">
<stop offset="0" stop-color="#121035"/>
<stop offset="1" stop-color="#121035" stop-opacity="0"/>
</linearGradient>
<linearGradient gradientUnits="userSpaceOnUse" x1="35.188" x2="35.188" y1="49.8545" y2="32.4714">
<stop offset="0" stop-color="#231f20"/>
<stop offset="1" stop-color="#231f20" stop-opacity="0"/>
</linearGradient>
<linearGradient gradientUnits="userSpaceOnUse" x1="48.6118" x2="48.6118" y1="46.3599" y2="31.6214">
<stop offset="0" stop-color="#231f20"/>
<stop offset="1" stop-color="#231f20" stop-opacity="0"/>
</linearGradient>
<linearGradient gradientUnits="userSpaceOnUse" x1="60.4453" x2="60.4453" y1="44.6357" y2="29.895">
<stop offset="0" stop-color="#231f20"/>
<stop offset="1" stop-color="#231f20" stop-opacity="0"/>
</linearGradient>
<linearGradient gradientUnits="userSpaceOnUse" x1="32.7173" x2="32.7173" y1="59.9434" y2="42.5568">
<stop offset="0" stop-color="#231f20"/>
<stop offset="1" stop-color="#231f20" stop-opacity="0"/>
</linearGradient>
<linearGradient gradientUnits="userSpaceOnUse" x1="44.0674" x2="44.0674" y1="57.6895" y2="40.304">
<stop offset="0" stop-color="#231f20"/>
<stop offset="1" stop-color="#231f20" stop-opacity="0"/>
</linearGradient>
<linearGradient gradientUnits="userSpaceOnUse" x1="56.751" x2="56.751" y1="56.5557" y2="39.1737">
<stop offset="0" stop-color="#231f20"/>
<stop offset="1" stop-color="#231f20" stop-opacity="0"/>
</linearGradient>
<linearGradient gradientUnits="userSpaceOnUse" x1="25.2705" x2="30.5686" y1="53.8594" y2="26.9273">
<stop offset="0" stop-color="#231f20"/>
<stop offset="1" stop-color="#231f20" stop-opacity="0"/>
</linearGradient>
<linearGradient gradientUnits="userSpaceOnUse" x1="48.0015" x2="48.0015" y1="23" y2="8">
<stop offset="0" stop-color="#ebd95e"/>
<stop offset="1" stop-color="#f0da67"/>
</linearGradient>
<linearGradient gradientUnits="userSpaceOnUse" x1="47.9995" x2="47.9995" y1="8.5449" y2="89.2398">
<stop offset="0" stop-color="#ffffff"/>
<stop offset="1" stop-color="#ffffff" stop-opacity="0"/>
</linearGradient>
<radialGradient cx="165.707" cy="-826.2407" gradientTransform="matrix(0.7071 -0.7071 0.198 0.198 115.4226 349.7662)" gradientUnits="userSpaceOnUse" r="24.5063">
<stop offset="0" stop-color="#ffffff" stop-opacity="0.5"/>
<stop offset="0.85" stop-color="#ffffff" stop-opacity="0.06"/>
<stop offset="1" stop-color="#ffffff" stop-opacity="0"/>
</radialGradient>
<linearGradient gradientUnits="userSpaceOnUse" x1="79.9004" x2="71.4348" y1="80.9824" y2="72.5168">
<stop offset="0" stop-color="#f9e26b"/>
<stop offset="1" stop-color="#c9aa28"/>
</linearGradient>
<rect fill="none" height="96" width="96"/>
<g display="none" transform="matrix(0.93676815,0,0,0.93676815,7.7644028,7.7194379)"/>
<g transform="matrix(-0.93676815,0,0,0.93676815,88.326464,7.7194379)">
<path d="M 41.423 85.606 C 41.228 85.597 41.016 85.58601 40.788002 85.57301 C 40.996002 85.58801 41.210003 85.596016 41.423 85.606 z " fill="#ffc8a0"/>
<path d="M 41.812 85.623 C 42.192 85.633 42.569 85.652 42.951 85.652 C 42.425 85.652 41.923 85.631 41.423 85.607 C 41.564 85.613 41.69 85.618004 41.812 85.623 z " fill="#ffc8a0"/>
<path d="M 0.378 45.164 C 0.365 44.936 0.354 44.724003 0.345 44.529003 C 0.355 44.741005 0.364 44.955 0.378 45.164 z " fill="#ffc8a0"/>
<path d="M 0.329 44.139 C 0.334 44.262 0.339 44.388 0.345 44.528 C 0.321 44.028 0.3 43.526 0.3 43.0 C 0.3 43.382 0.319 43.759 0.329 44.139 z " fill="#ffc8a0"/>
</g>
<path d="M 8.136299 9.377518 C 8.136299 8.642155 8.733025 8.045433 9.468384 8.045433 L 86.71335 8.045433 C 87.448715 8.04637 88.04543 8.642155 88.04543 9.377518 L 88.04543 48.00047 C 88.04543 70.06698 70.156906 87.954575 48.09133 87.954575 L 9.46838 87.954575 C 8.733017 87.954575 8.136295 87.30258 8.136295 86.56722 L 8.136295 9.377525 z " fill="url(#linearGradient3164)"/>
<g fill="url(#linearGradient3992)" fill-opacity="1.0" transform="matrix(-0.93676815,0,0,0.93676815,88.326464,7.7194379)">
<linearGradient fill="url(#linearGradient3992)" fill-opacity="1.0" gradientUnits="userSpaceOnUse" x1="18.245199" x2="67.6576" y1="32.648602" y2="-16.7638">
<stop fill="url(#linearGradient3992)" fill-opacity="1.0" offset="0" stop-color="#00a89a"/>
<stop fill="url(#linearGradient3992)" fill-opacity="1.0" offset="1" stop-color="#00cfbd"/>
</linearGradient>
<path d="M 84.181 0.349 L 1.7220001 0.349 C 0.937 0.349 0.3 0.985 0.3 1.77 L 0.3 14.702999 L 85.603004 14.702999 L 85.603004 1.7699995 C 85.603004 0.9849994 84.966 0.3489995 84.18101 0.3489995 z " fill="url(#linearGradient3992)" fill-opacity="1.0"/>
</g>
<g transform="matrix(-0.93676815,0,0,0.93676815,88.326464,7.7194379)">
<rect fill-opacity="0.1" height="1.943" stroke-opacity="0.1" width="75.781998" x="9.9180002" y="64.374001"/>
<rect fill-opacity="0.1" height="1.943" stroke-opacity="0.1" width="75.781998" x="9.9180002" y="54.659"/>
<path d="M 17.52 77.005 L 85.7 77.005 L 85.7 75.062 L 15.747993 75.062 C 16.325993 75.729 16.914993 76.379 17.519993 77.005 z " fill-opacity="0.1" stroke-opacity="0.1"/>
<rect fill-opacity="0.1" height="1.943" stroke-opacity="0.1" width="75.781998" x="9.9180002" y="44.943001"/>
<rect fill-opacity="0.1" height="1.943" stroke-opacity="0.1" width="75.781998" x="9.9180002" y="24.540001"/>
<rect fill-opacity="0.1" height="1.943" stroke-opacity="0.1" width="75.781998" x="9.9180002" y="35.227001"/>
</g>
<polygon fill="url(#linearGradient3163)" points="31.721,61.554 31.797,34.733 45.32,61.554 54.084,61.554 54.084,21.966 43.205,21.966 43.205,28.614 46.514,28.648 46.529,46.443 33.534,21.966 23.562,21.966 23.562,61.554 " transform="translate(9.1769997,5.8332205)"/>
</svg>
