<?xml version="1.0" encoding="UTF-8"?>
<svg xmlns="http://www.w3.org/2000/svg" xmlns:xlink="http://www.w3.org/1999/xlink" baseProfile="tiny" contentScriptType="text/ecmascript" contentStyleType="text/css" height="96px" preserveAspectRatio="xMidYMid meet" version="1.1" viewBox="0 0 96 96" width="96px" x="0px" y="0px" zoomAndPan="magnify">
<defs/>
<rect fill="none" height="96" width="96"/>
<linearGradient gradientUnits="userSpaceOnUse" x1="47.9995" x2="47.9995" y1="6.8105" y2="84.6841">
<stop offset="0" stop-color="#a7b7c2"/>
<stop offset="1" stop-color="#555e70"/>
</linearGradient>
<linearGradient gradientUnits="userSpaceOnUse" x1="47.9995" x2="47.9995" y1="8.2534" y2="87.4985">
<stop offset="0" stop-color="#ffffff"/>
<stop offset="1" stop-color="#ffffff" stop-opacity="0"/>
</linearGradient>
<linearGradient gradientUnits="userSpaceOnUse" x1="47.9565" x2="47.9565" y1="36.2788" y2="68.5307">
<stop offset="0" stop-color="#ffffff"/>
<stop offset="0.5743" stop-color="#b1b1b1"/>
<stop offset="1" stop-color="#ffffff"/>
</linearGradient>
<linearGradient gradientUnits="userSpaceOnUse" x1="47.9458" x2="47.9458" y1="27.6743" y2="60.8341">
<stop offset="0" stop-color="#ffffff"/>
<stop offset="0.3718" stop-color="#e9e9ea"/>
<stop offset="1" stop-color="#bbbdbf"/>
</linearGradient>
<linearGradient gradientUnits="userSpaceOnUse" x1="47.9458" x2="47.9458" y1="36.2773" y2="68.5297">
<stop offset="0" stop-color="#ffffff"/>
<stop offset="0.5743" stop-color="#b1b1b1"/>
<stop offset="1" stop-color="#ffffff"/>
</linearGradient>
<linearGradient gradientUnits="userSpaceOnUse" x1="47.9478" x2="47.9478" y1="56.874" y2="33.7987">
<stop offset="0" stop-color="#ffffff"/>
<stop offset="1" stop-color="#1f191a"/>
</linearGradient>
<linearGradient gradientUnits="userSpaceOnUse" x1="47.9565" x2="47.9565" y1="25.6919" y2="117.3984">
<stop offset="0" stop-color="#ffffff"/>
<stop offset="0.5743" stop-color="#b2b2b2"/>
<stop offset="1" stop-color="#ffffff"/>
</linearGradient>
<linearGradient gradientUnits="userSpaceOnUse" x1="47.9468" x2="47.9468" y1="61.8896" y2="6.8529">
<stop offset="0" stop-color="#ffffff"/>
<stop offset="1" stop-color="#1f191a"/>
</linearGradient>
<g transform="matrix(0.93676815,0,0,0.93786635,7.7201079,7.671076)">
<g display="none"/>
<g>
<linearGradient gradientUnits="userSpaceOnUse" id="SVGID_1_-1" x1="0.71710002" x2="73.193901" y1="85.283302" y2="12.8066">
<stop offset="0" stop-color="#cf6c35"/>
<stop offset="1" stop-color="#e6c000"/>
</linearGradient>
<path d="M 43.0 0.3 C 19.418 0.3 0.3 19.418 0.3 43.0 L 0.3 84.277 C 0.3 85.063 0.93700004 85.7 1.723 85.7 L 43.0 85.7 C 66.585 85.7 85.7 66.582 85.7 43.0 C 85.7 19.418 66.585 0.3 43.0 0.3 z " fill="url(#SVGID_1_-1)"/>
<path d="M 37.21 71.683 L 38.111 69.508995 C 38.487 68.59899 39.417 68.045 40.397 68.146996 C 42.126 68.326996 43.876 68.326 45.6 68.145996 C 46.579998 68.043 47.511997 68.598 47.889 69.507996 L 48.79 71.684 C 49.535 73.481995 51.609 74.340996 53.409 73.595 L 57.275 71.994 C 59.02 71.270004 59.911003 69.122 59.189003 67.373 L 58.287 65.2 C 57.91 64.288994 58.174 63.239998 58.940998 62.619995 C 60.287 61.528996 61.524998 60.290997 62.621998 58.940994 C 63.242996 58.175995 64.292 57.910995 65.201996 58.286995 L 67.376 59.187996 C 69.176 59.933994 71.248 59.075996 71.994 57.273994 L 73.595 53.408993 C 74.342 51.607994 73.484 49.53599 71.682 48.789993 L 69.507996 47.88999 C 68.59799 47.512993 68.044 46.583992 68.145996 45.603992 C 68.326 43.874992 68.325 42.124992 68.145 40.400993 C 68.03999 39.420994 68.59599 38.489994 69.506996 38.11199 L 71.683 37.21199 C 73.423996 36.49099 74.317 34.33899 73.595 32.590992 L 71.994 28.725992 C 71.248 26.926992 69.176 26.067993 67.374 26.812992 L 65.199 27.712992 C 64.288994 28.089993 63.239 27.824991 62.618996 27.058992 C 61.526997 25.712992 60.288994 24.473991 58.939995 23.378992 C 58.175995 22.757992 57.909996 21.708992 58.286995 20.798992 L 59.187996 18.624992 C 59.933994 16.823992 59.075996 14.751992 57.273994 14.005993 L 53.407993 12.404993 C 51.606995 11.658993 49.534992 12.5169935 48.788994 14.317993 L 47.887993 16.491993 C 47.511993 17.401993 46.581993 17.955994 45.601994 17.853992 C 43.873993 17.673992 42.121994 17.674992 40.398994 17.854992 C 39.418995 17.957993 38.486996 17.402992 38.109993 16.492992 L 37.209 14.317 C 36.464 12.519 34.39 11.66 32.59 12.406 L 28.724 14.007 C 26.981 14.73 26.088001 16.878 26.811 18.628 L 27.711 20.802 C 27.943 21.361 27.932001 21.973 27.711 22.506 C 27.573 22.84 27.353 23.143 27.057001 23.382 C 25.711 24.473 24.473001 25.711 23.376001 27.06 C 22.755001 27.824999 21.706001 28.09 20.796001 27.713999 L 18.622002 26.813 C 16.821001 26.067 14.7490015 26.925 14.003002 28.727 L 12.402002 32.592 C 11.656002 34.392998 12.514003 36.465 14.316002 37.211 L 16.489002 38.111 C 17.399002 38.488 17.953003 39.417 17.851002 40.397 C 17.672 42.126 17.672 43.876 17.853003 45.6 C 17.955002 46.579998 17.400003 47.510998 16.491003 47.889 L 14.314003 48.789 C 12.572003 49.511 11.680003 51.662003 12.402003 53.41 L 14.003003 57.275 C 14.749003 59.075 16.822002 59.933002 18.624002 59.188 L 20.798002 58.288 C 21.708002 57.911 22.758003 58.176 23.378002 58.942997 C 24.469002 60.288998 25.707003 61.526997 27.057003 62.622997 C 27.821003 63.243996 28.087004 64.293 27.710003 65.202995 L 26.810003 67.377 C 26.064003 69.178 26.922003 71.25 28.724003 71.996 L 32.589005 73.597 C 34.392006 74.342 36.464005 73.484 37.210003 71.683 z M 29.853 37.555 C 32.861 30.295 41.184002 26.847 48.444 29.854 C 55.705 32.861 59.152 41.185 56.145 48.446 C 53.138 55.706 44.814 59.154 37.554 56.147 C 30.295 53.139 26.846 44.815 29.853 37.555 z " fill="#f4f3c5" fill-opacity="0.9" stroke-opacity="0.9"/>
<path d="M 24.848 76.339 L 22.098 75.603 C 21.309 75.392 20.706999 74.757996 20.532999 73.958 C 20.463 73.633 20.383 73.334 20.280998 73.018 C 20.034998 72.246994 20.236998 71.388 20.814999 70.81 L 22.829998 68.796 C 23.651999 67.974 23.974998 66.763 23.673998 65.639 C 23.526999 65.089 23.234999 64.583 22.828999 64.178 L 21.801998 63.151 C 20.528997 61.878002 18.456999 61.878002 17.182999 63.151 L 15.165998 65.167 C 14.5929985 65.74 13.747998 65.948 12.974998 65.704 C 12.660998 65.606 12.340999 65.522 12.016998 65.451004 C 11.220999 65.277 10.588999 64.674 10.378998 63.887005 L 9.641 61.13 C 9.174 59.39 7.38 58.354 5.641 58.821 L 4.239 59.196 C 2.5 59.662 1.4629998 61.457 1.9299998 63.196 L 2.669 65.954 C 2.879 66.741005 2.635 67.579 2.0319998 68.128006 C 1.7859998 68.351006 1.5509999 68.58501 1.3269999 68.829 C 1.0449998 69.134 0.6869999 69.343 0.30099988 69.449005 L 0.30099988 84.276 C 0.30099988 85.062004 0.9379999 85.699 1.7239999 85.699 L 16.528 85.699 C 16.633 85.298996 16.844 84.92799 17.162 84.64 C 17.408 84.418 17.640001 84.186 17.863 83.944 C 18.412 83.346 19.248001 83.103 20.032001 83.313 L 22.785002 84.052 C 24.524002 84.517 26.318 83.482 26.784002 81.742004 L 27.161003 80.338005 C 27.309004 79.786 27.309004 79.202 27.162003 78.65101 C 26.859003 77.52701 25.973003 76.64101 24.848003 76.33901 z M 10.627004 80.237015 C 8.499003 80.807014 6.3120036 79.54501 5.743004 77.417015 C 5.1730037 75.290016 6.4360037 73.10301 8.563004 72.53301 C 10.691004 71.96301 12.877004 73.22601 13.447003 75.35301 C 14.017003 77.48101 12.754004 79.668015 10.627004 80.237015 z " fill="#ffcb7b" fill-opacity="0.9" stroke-opacity="0.9"/>
</g>
</g>
</svg>
