<?xml version="1.0" encoding="UTF-8"?>
<svg xmlns="http://www.w3.org/2000/svg" xmlns:xlink="http://www.w3.org/1999/xlink" baseProfile="tiny" contentScriptType="text/ecmascript" contentStyleType="text/css" height="96px" preserveAspectRatio="xMidYMid meet" version="1.1" viewBox="0 0 96 96" width="96px" x="0px" y="0px" zoomAndPan="magnify">
<defs>
<linearGradient gradientUnits="userSpaceOnUse" x1="21.23662" x2="69.71212" y1="16.899048" y2="70.462387">
<stop offset="0" stop-color="#161616" stop-opacity="1"/>
<stop offset="1" stop-color="#353535" stop-opacity="1"/>
</linearGradient>
<linearGradient gradientUnits="userSpaceOnUse" x1="7.8125" x2="23.5625" y1="76.25" y2="76.25">
<stop offset="0" stop-color="#c83737" stop-opacity="1"/>
<stop offset="1" stop-color="#b03131" stop-opacity="1"/>
</linearGradient>
<linearGradient gradientUnits="userSpaceOnUse" x1="7.8125" x2="23.5625" y1="76.25" y2="76.25">
<stop offset="0" stop-color="#c83737" stop-opacity="1"/>
<stop offset="1" stop-color="#b03131" stop-opacity="1"/>
</linearGradient>
<linearGradient gradientUnits="userSpaceOnUse" x1="7.8125" x2="23.5625" y1="76.25" y2="76.25">
<stop offset="0" stop-color="#3a3a3a" stop-opacity="1"/>
<stop offset="0.5" stop-color="#848484" stop-opacity="1"/>
<stop offset="0.75" stop-color="#6a6a6a" stop-opacity="1"/>
<stop offset="1" stop-color="#7f7f7f" stop-opacity="1"/>
</linearGradient>
<linearGradient gradientUnits="userSpaceOnUse" x1="79.238297" x2="6.7618999" y1="91.327904" y2="18.8514">
<stop offset="0" stop-color="#105f99" stop-opacity="1"/>
<stop offset="1" stop-color="#00d8c2" stop-opacity="1"/>
</linearGradient>
<linearGradient gradientUnits="userSpaceOnUse" x1="79.238297" x2="6.7618999" y1="91.327904" y2="18.8514">
<stop offset="0" stop-color="#2ae0b4" stop-opacity="1"/>
<stop offset="0.99510002" stop-color="#d27949" stop-opacity="1"/>
<stop offset="1" stop-color="#d27949" stop-opacity="1"/>
</linearGradient>
<linearGradient gradientTransform="translate(-100,0)" gradientUnits="userSpaceOnUse" x1="0.7169" x2="85.2831" y1="85.2831" y2="0.7169">
<stop offset="0" stop-color="#105f99" stop-opacity="1"/>
<stop offset="1" stop-color="#00d8c2" stop-opacity="1"/>
</linearGradient>
<linearGradient gradientUnits="userSpaceOnUse" x1="0.7169" x2="85.2831" y1="85.2831" y2="0.7169">
<stop offset="0" stop-color="#105f99" stop-opacity="1"/>
<stop offset="1" stop-color="#00d8c2" stop-opacity="1"/>
</linearGradient>
<linearGradient>
<stop offset="0" stop-color="#e59a9a" stop-opacity="1"/>
<stop offset="1" stop-color="#b02d2d" stop-opacity="1"/>
</linearGradient>
<linearGradient>
<stop offset="0" stop-color="#3a3a3a" stop-opacity="1"/>
<stop offset="0.5" stop-color="#848484" stop-opacity="1"/>
<stop offset="0.75" stop-color="#6a6a6a" stop-opacity="1"/>
<stop offset="1" stop-color="#7f7f7f" stop-opacity="1"/>
</linearGradient>
<linearGradient>
<stop offset="0" stop-color="#c83737" stop-opacity="1"/>
<stop offset="1" stop-color="#b03131" stop-opacity="1"/>
</linearGradient>
<linearGradient>
<stop offset="0" stop-color="#161616" stop-opacity="1"/>
<stop offset="1" stop-color="#353535" stop-opacity="1"/>
</linearGradient>
<linearGradient gradientTransform="matrix(0.93677923,0,0,0.93677923,7.7189664,7.7184929)" gradientUnits="userSpaceOnUse" id="linearGradient3512" x1="21.23662" x2="69.71212" y1="16.899048" y2="70.462387">
<stop offset="0" stop-color="#161616" stop-opacity="1"/>
<stop offset="1" stop-color="#353535" stop-opacity="1"/>
</linearGradient>
<linearGradient gradientTransform="matrix(0.93677923,0,0,0.93677923,7.7189664,7.7184929)" gradientUnits="userSpaceOnUse" id="linearGradient3518" x1="79.238297" x2="6.7618999" y1="91.327904" y2="18.8514">
<stop offset="0" stop-color="#105f99" stop-opacity="1"/>
<stop offset="1" stop-color="#00d8c2" stop-opacity="1"/>
</linearGradient>
<linearGradient gradientTransform="matrix(-0.51573066,-0.51573066,0.51573066,-0.51573066,-12.109686,124.2912)" gradientUnits="userSpaceOnUse" id="linearGradient3522" x1="7.8125" x2="23.5625" y1="76.25" y2="76.25">
<stop offset="0" stop-color="#c83737" stop-opacity="1"/>
<stop offset="1" stop-color="#b03131" stop-opacity="1"/>
</linearGradient>
<linearGradient gradientTransform="matrix(0.56777396,0.56777396,-0.56777396,0.56777396,53.510063,24.676502)" gradientUnits="userSpaceOnUse" id="linearGradient3524" x1="7.8125" x2="23.5625" y1="76.25" y2="76.25">
<stop offset="0" stop-color="#c83737" stop-opacity="1"/>
<stop offset="1" stop-color="#b03131" stop-opacity="1"/>
</linearGradient>
<linearGradient gradientTransform="matrix(0.66240294,0.66240294,-0.66240294,0.66240294,59.241031,15.97655)" gradientUnits="userSpaceOnUse" id="linearGradient3526" x1="7.8125" x2="23.5625" y1="76.25" y2="76.25">
<stop offset="0" stop-color="#3a3a3a" stop-opacity="1"/>
<stop offset="0.5" stop-color="#848484" stop-opacity="1"/>
<stop offset="0.75" stop-color="#6a6a6a" stop-opacity="1"/>
<stop offset="1" stop-color="#7f7f7f" stop-opacity="1"/>
</linearGradient>
</defs>
<rect fill="none" height="96" width="96"/>
<linearGradient gradientTransform="matrix(1 0 0 1 193.9253 -815.8408)" gradientUnits="userSpaceOnUse" x1="-145.9253" x2="-145.9253" y1="824.3857" y2="905.0801">
<stop offset="0" stop-color="#f9d641"/>
<stop offset="1" stop-color="#d68612"/>
</linearGradient>
<linearGradient gradientTransform="matrix(1 0 0 1 193.9253 -815.8408)" gradientUnits="userSpaceOnUse" x1="-145.9253" x2="-145.9253" y1="824.0938" y2="903.3385">
<stop offset="0" stop-color="#ffffff"/>
<stop offset="1" stop-color="#ffffff" stop-opacity="0"/>
</linearGradient>
<linearGradient gradientUnits="userSpaceOnUse" x1="45.5" x2="50.5" y1="70" y2="70">
<stop offset="0" stop-color="#666666"/>
<stop offset="0.1576" stop-color="#858585"/>
<stop offset="0.3758" stop-color="#c4c4c4"/>
<stop offset="0.6061" stop-color="#c4c4c4"/>
<stop offset="0.8545" stop-color="#858585"/>
<stop offset="1" stop-color="#666666"/>
</linearGradient>
<linearGradient gradientUnits="userSpaceOnUse" x1="48.0005" x2="48.0005" y1="73" y2="69">
<stop offset="0" stop-color="#ffffff" stop-opacity="0"/>
<stop offset="1" stop-color="#ffffff"/>
</linearGradient>
<linearGradient gradientUnits="userSpaceOnUse" x1="48" x2="48" y1="73" y2="70">
<stop offset="0" stop-color="#ffffff" stop-opacity="0"/>
<stop offset="1" stop-color="#ffffff"/>
</linearGradient>
<linearGradient gradientUnits="userSpaceOnUse" x1="48.0005" x2="48.0005" y1="68" y2="45.0005">
<stop offset="0" stop-color="#666666"/>
<stop offset="0.3333" stop-color="#858585"/>
<stop offset="0.897" stop-color="#666666"/>
<stop offset="1" stop-color="#3b3b3b"/>
</linearGradient>
<linearGradient gradientUnits="userSpaceOnUse" x1="48.0005" x2="48.0005" y1="67" y2="45.0005">
<stop offset="0" stop-color="#cccccc"/>
<stop offset="0.4061" stop-color="#595959"/>
<stop offset="0.897" stop-color="#545454"/>
<stop offset="1" stop-color="#3b3b3b"/>
</linearGradient>
<linearGradient gradientUnits="userSpaceOnUse" x1="48.0005" x2="48.0005" y1="46" y2="44">
<stop offset="0" stop-color="#4d4d4d"/>
<stop offset="0.5581" stop-color="#b3b3b3"/>
<stop offset="1" stop-color="#737373"/>
</linearGradient>
<linearGradient gradientUnits="userSpaceOnUse" x1="37" x2="59" y1="42.5" y2="42.5">
<stop offset="0" stop-color="#757575"/>
<stop offset="0.097" stop-color="#858585"/>
<stop offset="0.3758" stop-color="#d4d4d4"/>
<stop offset="0.6485" stop-color="#d4d4d4"/>
<stop offset="0.903" stop-color="#858585"/>
<stop offset="1" stop-color="#757575"/>
</linearGradient>
<linearGradient gradientUnits="userSpaceOnUse" x1="48.0005" x2="48.0005" y1="65" y2="45.0005">
<stop offset="0" stop-color="#000000" stop-opacity="0.55"/>
<stop offset="0.45" stop-color="#000000" stop-opacity="0.2"/>
<stop offset="1" stop-color="#000000" stop-opacity="0.05"/>
</linearGradient>
<linearGradient gradientUnits="userSpaceOnUse" x1="48" x2="48" y1="61" y2="51">
<stop offset="0" stop-color="#ffffff"/>
<stop offset="1" stop-color="#ffffff" stop-opacity="0"/>
</linearGradient>
<linearGradient gradientTransform="matrix(-1 0 0 -1 7576 3348)" gradientUnits="userSpaceOnUse" x1="7527.999" x2="7527.999" y1="3303.999" y2="3323.999">
<stop offset="0" stop-color="#000000" stop-opacity="0.3959"/>
<stop offset="1" stop-color="#000000" stop-opacity="0"/>
</linearGradient>
<linearGradient gradientUnits="userSpaceOnUse" x1="36" x2="60" y1="45" y2="45">
<stop offset="0" stop-color="#878787"/>
<stop offset="0.097" stop-color="#a6a6a6"/>
<stop offset="0.3394" stop-color="#f7f7f7"/>
<stop offset="0.6909" stop-color="#f7f7f7"/>
<stop offset="0.903" stop-color="#a6a6a6"/>
<stop offset="1" stop-color="#878787"/>
</linearGradient>
<linearGradient gradientUnits="userSpaceOnUse" x1="48.0024" x2="48.0024" y1="51" y2="48.0005">
<stop offset="0" stop-color="#000000" stop-opacity="0.05"/>
<stop offset="1" stop-color="#000000" stop-opacity="0.3"/>
</linearGradient>
<linearGradient gradientUnits="userSpaceOnUse" x1="33" x2="33" y1="47" y2="43">
<stop offset="0" stop-color="#666666"/>
<stop offset="0.2061" stop-color="#858585"/>
<stop offset="0.3939" stop-color="#c4c4c4"/>
<stop offset="0.6909" stop-color="#858585"/>
<stop offset="1" stop-color="#c4c4c4"/>
</linearGradient>
<linearGradient gradientUnits="userSpaceOnUse" x1="63" x2="63" y1="47" y2="43">
<stop offset="0" stop-color="#666666"/>
<stop offset="0.2061" stop-color="#858585"/>
<stop offset="0.3939" stop-color="#c4c4c4"/>
<stop offset="0.6909" stop-color="#858585"/>
<stop offset="1" stop-color="#c4c4c4"/>
</linearGradient>
<linearGradient gradientUnits="userSpaceOnUse" x1="38" x2="58" y1="74" y2="74">
<stop offset="0" stop-color="#666666"/>
<stop offset="0.1576" stop-color="#858585"/>
<stop offset="0.3758" stop-color="#a8a8a8"/>
<stop offset="0.6303" stop-color="#a8a8a8"/>
<stop offset="0.8545" stop-color="#858585"/>
<stop offset="1" stop-color="#666666"/>
</linearGradient>
<linearGradient gradientUnits="userSpaceOnUse" x1="48.0005" x2="48.0005" y1="76" y2="72">
<stop offset="0" stop-color="#231f20" stop-opacity="0.41"/>
<stop offset="0.3273" stop-color="#231f20" stop-opacity="0"/>
<stop offset="0.697" stop-color="#ffffff" stop-opacity="0"/>
<stop offset="0.9879" stop-color="#ffffff" stop-opacity="0.43"/>
<stop offset="1" stop-color="#ffffff" stop-opacity="0.43"/>
</linearGradient>
<g display="none" transform="translate(5.8898302,1.3389842)"/>
<g display="none" transform="translate(5.8898302,1.3389842)"/>
<path d="M 48.000473 7.999527 C 25.908407 7.999527 8.0 25.908873 8.0 48.0 C 8.0 48.382206 8.0 86.667435 8.0 86.667435 C 8.0 87.40374 8.596728 88.00047 9.333036 88.00047 L 86.66697 88.00047 C 87.40328 88.00047 88.0 87.40375 88.0 86.66744 C 88.0 86.66744 88.0 48.345673 88.0 48.0 C 88.000946 25.908873 70.09254 7.999527 48.000473 7.999527 z " fill="url(#linearGradient3518)" fill-opacity="1"/>
<path d="M 75.34225 33.28716 C 75.34225 35.788094 73.31484 37.815502 70.8139 37.815502 C 68.31297 37.815502 66.28557 35.788094 66.28557 33.28716 C 66.28557 30.786226 68.31297 28.75882 70.8139 28.75882 C 73.31484 28.75882 75.34225 30.786226 75.34225 33.28716 z M 75.34225 46.40207 C 75.34225 48.903004 73.31484 50.930412 70.8139 50.930412 C 68.31297 50.930412 66.28557 48.903004 66.28557 46.40207 C 66.28557 43.901134 68.31297 41.87373 70.8139 41.87373 C 73.31484 41.87373 75.34225 43.901134 75.34225 46.40207 z M 75.34225 59.51698 C 75.34225 62.017914 73.31484 64.04533 70.8139 64.04533 C 68.31297 64.04533 66.28557 62.01792 66.28557 59.516987 C 66.28557 57.016052 68.31297 54.988647 70.8139 54.988647 C 73.31484 54.988647 75.34225 57.016052 75.34225 59.516987 z M 30.376842 59.51699 C 30.376842 62.017925 28.349438 64.04533 25.848503 64.04533 C 23.347569 64.04533 21.320164 62.01792 21.320164 59.516987 C 21.320164 57.016052 23.34757 54.988647 25.848503 54.988647 C 28.349438 54.988647 30.376842 57.016052 30.376842 59.516987 z M 30.376842 46.402077 C 30.376842 48.90301 28.349438 50.930416 25.848503 50.930416 C 23.347569 50.930416 21.320164 48.90301 21.320164 46.402077 C 21.320164 43.901142 23.34757 41.873737 25.848503 41.873737 C 28.349438 41.873737 30.376842 43.901142 30.376842 46.402077 z M 30.376842 33.287167 C 30.376842 35.7881 28.349438 37.815506 25.848503 37.815506 C 23.347569 37.815506 21.320164 35.7881 21.320164 33.287167 C 21.320164 30.786232 23.34757 28.758825 25.848503 28.758825 C 28.349438 28.758825 30.376842 30.786232 30.376842 33.287167 z M 41.618195 26.729712 C 41.618195 29.230646 39.59079 31.25805 37.089855 31.25805 C 34.58892 31.25805 32.561516 29.230644 32.561516 26.729712 C 32.561516 24.228777 34.58892 22.201372 37.089855 22.201372 C 39.59079 22.201372 41.618195 24.228779 41.618195 26.729712 z M 41.618195 39.84462 C 41.618195 42.345554 39.59079 44.37296 37.089855 44.37296 C 34.58892 44.37296 32.561516 42.345554 32.561516 39.84462 C 32.561516 37.343685 34.58892 35.31628 37.089855 35.31628 C 39.59079 35.31628 41.618195 37.343685 41.618195 39.84462 z M 41.618195 52.95953 C 41.618195 55.460464 39.59079 57.48787 37.089855 57.48787 C 34.58892 57.48787 32.561516 55.460464 32.561516 52.95953 C 32.561516 50.458595 34.58892 48.43119 37.089855 48.43119 C 39.59079 48.43119 41.618195 50.458595 41.618195 52.95953 z M 41.618195 66.07444 C 41.618195 68.57537 39.59079 70.602776 37.089855 70.602776 C 34.58892 70.602776 32.561516 68.57537 32.561516 66.07444 C 32.561516 63.573505 34.58892 61.5461 37.089855 61.5461 C 39.59079 61.5461 41.618195 63.573505 41.618195 66.07444 z M 64.1009 26.729712 C 64.1009 29.230646 62.073494 31.25805 59.57256 31.25805 C 57.071625 31.25805 55.04422 29.230644 55.04422 26.729712 C 55.04422 24.228777 57.071625 22.201372 59.57256 22.201372 C 62.073494 22.201372 64.1009 24.228779 64.1009 26.729712 z M 64.1009 39.84462 C 64.1009 42.345554 62.073494 44.37296 59.57256 44.37296 C 57.071625 44.37296 55.04422 42.345554 55.04422 39.84462 C 55.04422 37.343685 57.071625 35.31628 59.57256 35.31628 C 62.073494 35.31628 64.1009 37.343685 64.1009 39.84462 z M 64.1009 52.95953 C 64.1009 55.460464 62.073494 57.48787 59.57256 57.48787 C 57.071625 57.48787 55.04422 55.460464 55.04422 52.95953 C 55.04422 50.458595 57.071625 48.43119 59.57256 48.43119 C 62.073494 48.43119 64.1009 50.458595 64.1009 52.95953 z M 64.1009 66.07444 C 64.1009 68.57537 62.073494 70.602776 59.57256 70.602776 C 57.071625 70.602776 55.04422 68.57537 55.04422 66.07444 C 55.04422 63.573505 57.071625 61.5461 59.57256 61.5461 C 62.073494 61.5461 64.1009 63.573505 64.1009 66.07444 z M 52.859547 20.172253 C 52.859547 22.673185 50.83214 24.700594 48.331207 24.700594 C 45.830273 24.700594 43.802868 22.673187 43.802868 20.172253 C 43.802868 17.671318 45.830273 15.643913 48.331207 15.643913 C 50.83214 15.643913 52.859547 17.67132 52.859547 20.172253 z M 52.859547 33.287163 C 52.859547 35.788097 50.83214 37.815506 48.331207 37.815506 C 45.830273 37.815506 43.802868 35.788097 43.802868 33.287163 C 43.802868 30.78623 45.830273 28.758823 48.331207 28.758823 C 50.83214 28.758823 52.859547 30.78623 52.859547 33.287163 z M 52.859547 46.402073 C 52.859547 48.903008 50.83214 50.930416 48.331207 50.930416 C 45.830273 50.930416 43.802868 48.903008 43.802868 46.402073 C 43.802868 43.90114 45.830273 41.873734 48.331207 41.873734 C 50.83214 41.873734 52.859547 43.90114 52.859547 46.402073 z M 52.859547 59.516983 C 52.859547 62.017918 50.83214 64.04533 48.331207 64.04533 C 45.830273 64.04533 43.802868 62.01792 43.802868 59.516987 C 43.802868 57.016052 45.830273 54.988647 48.331207 54.988647 C 50.83214 54.988647 52.859547 57.016052 52.859547 59.516987 z M 52.859547 72.6319 C 52.859547 75.13283 50.83214 77.16023 48.331207 77.16023 C 45.830273 77.16023 43.802868 75.13283 43.802868 72.6319 C 43.802868 70.13097 45.830273 68.10356 48.331207 68.10356 C 50.83214 68.10356 52.859547 70.13097 52.859547 72.6319 z " fill="#535353" fill-opacity="0.98999999" stroke="none"/>
<path d="M 75.01105 33.618362 C 75.01105 36.119297 72.983635 38.1467 70.482704 38.1467 C 67.98177 38.1467 65.95436 36.119297 65.95436 33.618362 C 65.95436 31.117428 67.98177 29.090023 70.482704 29.090023 C 72.98364 29.090023 75.01105 31.11743 75.01105 33.618362 z M 75.01105 46.733273 C 75.01105 49.234207 72.983635 51.261612 70.482704 51.261612 C 67.98177 51.261612 65.95436 49.234207 65.95436 46.733273 C 65.95436 44.232338 67.98177 42.204933 70.482704 42.204933 C 72.98364 42.204933 75.01105 44.232338 75.01105 46.733273 z M 75.01105 59.848183 C 75.01105 62.349117 72.983635 64.376526 70.482704 64.376526 C 67.98177 64.376526 65.95436 62.34912 65.95436 59.848186 C 65.95436 57.34725 67.98177 55.319847 70.482704 55.319847 C 72.98364 55.319847 75.01105 57.34725 75.01105 59.848186 z M 30.045639 59.84819 C 30.045639 62.349125 28.018234 64.376526 25.5173 64.376526 C 23.016365 64.376526 20.98896 62.34912 20.98896 59.848186 C 20.98896 57.34725 23.016367 55.319847 25.5173 55.319847 C 28.018234 55.319847 30.045639 57.34725 30.045639 59.848186 z M 30.045639 46.733276 C 30.045639 49.23421 28.018234 51.261616 25.5173 51.261616 C 23.016365 51.261616 20.98896 49.23421 20.98896 46.733276 C 20.98896 44.23234 23.016367 42.204937 25.5173 42.204937 C 28.018234 42.204937 30.045639 44.23234 30.045639 46.733276 z M 30.045639 33.618366 C 30.045639 36.1193 28.018234 38.146706 25.5173 38.146706 C 23.016365 38.146706 20.98896 36.1193 20.98896 33.618366 C 20.98896 31.11743 23.016367 29.090025 25.5173 29.090025 C 28.018234 29.090025 30.045639 31.117432 30.045639 33.618366 z M 41.28699 27.06091 C 41.28699 29.561844 39.259586 31.589249 36.75865 31.589249 C 34.257717 31.589249 32.230312 29.561842 32.230312 27.06091 C 32.230312 24.559975 34.257717 22.53257 36.75865 22.53257 C 39.259586 22.53257 41.28699 24.559975 41.28699 27.06091 z M 41.28699 40.17582 C 41.28699 42.676754 39.259586 44.70416 36.75865 44.70416 C 34.257717 44.70416 32.230312 42.676754 32.230312 40.17582 C 32.230312 37.674885 34.257717 35.64748 36.75865 35.64748 C 39.259586 35.64748 41.28699 37.674885 41.28699 40.17582 z M 41.28699 53.29073 C 41.28699 55.791664 39.259586 57.81907 36.75865 57.81907 C 34.257717 57.81907 32.230312 55.791664 32.230312 53.29073 C 32.230312 50.789795 34.257717 48.76239 36.75865 48.76239 C 39.259586 48.76239 41.28699 50.789795 41.28699 53.29073 z M 41.28699 66.40564 C 41.28699 68.90657 39.259586 70.933975 36.75865 70.933975 C 34.257717 70.933975 32.230312 68.90657 32.230312 66.40564 C 32.230312 63.9047 34.257717 61.877296 36.75865 61.877296 C 39.259586 61.877296 41.28699 63.9047 41.28699 66.40564 z M 63.7697 27.060911 C 63.7697 29.561846 61.74229 31.58925 59.241356 31.58925 C 56.74042 31.58925 54.713017 29.561844 54.713017 27.060911 C 54.713017 24.559977 56.74042 22.532572 59.241356 22.532572 C 61.74229 22.532572 63.7697 24.559977 63.7697 27.060911 z M 63.7697 40.17582 C 63.7697 42.676754 61.74229 44.70416 59.241356 44.70416 C 56.74042 44.70416 54.713017 42.676754 54.713017 40.17582 C 54.713017 37.674885 56.74042 35.64748 59.241356 35.64748 C 61.74229 35.64748 63.7697 37.674885 63.7697 40.17582 z M 63.7697 53.29073 C 63.7697 55.791664 61.74229 57.81907 59.241356 57.81907 C 56.74042 57.81907 54.713017 55.791664 54.713017 53.29073 C 54.713017 50.789795 56.74042 48.76239 59.241356 48.76239 C 61.74229 48.76239 63.7697 50.789795 63.7697 53.29073 z M 63.7697 66.40564 C 63.7697 68.90657 61.74229 70.933975 59.241356 70.933975 C 56.74042 70.933975 54.713017 68.90657 54.713017 66.40564 C 54.713017 63.9047 56.74042 61.877296 59.241356 61.877296 C 61.74229 61.877296 63.7697 63.9047 63.7697 66.40564 z M 52.528343 20.503452 C 52.528343 23.004387 50.50094 25.031794 48.000004 25.031794 C 45.49907 25.031794 43.471664 23.004387 43.471664 20.503454 C 43.471664 18.00252 45.49907 15.975113 48.000004 15.975113 C 50.50094 15.975113 52.528343 18.00252 52.528343 20.503454 z M 52.528343 33.618366 C 52.528343 36.1193 50.50094 38.146706 48.000004 38.146706 C 45.49907 38.146706 43.471664 36.1193 43.471664 33.618366 C 43.471664 31.117432 45.49907 29.090027 48.000004 29.090027 C 50.50094 29.090027 52.528343 31.117434 52.528343 33.618366 z M 52.528343 46.733276 C 52.528343 49.23421 50.50094 51.261616 48.000004 51.261616 C 45.49907 51.261616 43.471664 49.23421 43.471664 46.733276 C 43.471664 44.23234 45.49907 42.204937 48.000004 42.204937 C 50.50094 42.204937 52.528343 44.23234 52.528343 46.733276 z M 52.528343 59.848186 C 52.528343 62.34912 50.50094 64.37653 48.000004 64.37653 C 45.49907 64.37653 43.471664 62.34913 43.471664 59.848194 C 43.471664 57.34726 45.49907 55.319855 48.000004 55.319855 C 50.50094 55.319855 52.528343 57.34726 52.528343 59.848194 z M 52.528343 72.963104 C 52.528343 75.464035 50.50094 77.49144 48.000004 77.49144 C 45.49907 77.49144 43.471664 75.464035 43.471664 72.963104 C 43.471664 70.462166 45.49907 68.43476 48.000004 68.43476 C 50.50094 68.43476 52.528343 70.462166 52.528343 72.963104 z " fill="url(#linearGradient3512)" fill-opacity="0.98999999" stroke="none"/>
<path d="M 24.340675 82.09264 C 21.459726 84.973595 16.78878 84.973595 13.907829 82.09264 C 11.026878 79.21169 11.02688 74.54075 13.907829 71.6598 C 16.788778 68.77885 21.459724 68.77885 24.340675 71.6598 C 27.221626 74.54075 27.221626 79.21169 24.340675 82.09264 z " fill="url(#linearGradient3526)" fill-opacity="0.98999999" stroke="none"/>
<path d="M 23.595472 81.34744 C 21.126087 83.816826 17.12242 83.81683 14.653032 81.34744 C 12.183646 78.87805 12.183647 74.87439 14.653032 72.405 C 17.122417 69.935616 21.126087 69.93561 23.595472 72.405 C 26.06486 74.87439 26.064857 78.87805 23.595472 81.34744 z " fill="url(#linearGradient3524)" fill-opacity="0.98999999" stroke="none"/>
<path d="M 15.062873 72.81484 C 17.30591 70.57181 20.942593 70.57181 23.18563 72.81484 C 25.428669 75.05788 25.428667 78.694565 23.18563 80.9376 C 20.942595 83.18063 17.30591 83.18063 15.062873 80.9376 C 12.819835 78.694565 12.819837 75.05788 15.062873 72.81484 z " fill="url(#linearGradient3522)" fill-opacity="0.98999999" stroke="none"/>
</svg>
