<?xml version="1.0" encoding="UTF-8"?>
<svg xmlns="http://www.w3.org/2000/svg" xmlns:xlink="http://www.w3.org/1999/xlink" baseProfile="tiny" contentScriptType="text/ecmascript" contentStyleType="text/css" height="96px" preserveAspectRatio="xMidYMid meet" version="1.1" viewBox="0 0 96 96" width="96px" x="0px" y="0px" zoomAndPan="magnify">
<defs>
<linearGradient gradientTransform="matrix(0,-1,1,0,-516.5383,1362.6759)" gradientUnits="userSpaceOnUse" x1="1277.1947" x2="1362.157" y1="602.01941" y2="517.05713">
<stop offset="0" stop-color="#e8cf13"/>
<stop offset="0.9897" stop-color="#24a89e"/>
<stop offset="1" stop-color="#24a89e"/>
</linearGradient>
<linearGradient gradientTransform="matrix(0,-1,1,0,-516.5383,1362.6759)" gradientUnits="userSpaceOnUse" x1="1277.1947" x2="1362.157" y1="602.01941" y2="517.05713">
<stop offset="0" stop-color="#e8cf13"/>
<stop offset="0.9897" stop-color="#24a89e"/>
<stop offset="1" stop-color="#24a89e"/>
</linearGradient>
<linearGradient gradientTransform="matrix(0,-0.93240093,0.93240093,0,-473.71403,1278.467)" gradientUnits="userSpaceOnUse" id="linearGradient3104" x1="1277.1947" x2="1362.157" y1="602.01941" y2="517.05713">
<stop offset="0" stop-color="#e81e13" stop-opacity="1"/>
<stop offset="1" stop-color="#ff7074" stop-opacity="1"/>
</linearGradient>
</defs>
<linearGradient gradientUnits="userSpaceOnUse" x1="47.9995" x2="47.9995" y1="12.2891" y2="67.2842">
<stop offset="0" stop-color="#f9d641"/>
<stop offset="1" stop-color="#d68612"/>
</linearGradient>
<linearGradient gradientUnits="userSpaceOnUse" x1="47.9995" x2="47.9995" y1="24.6416" y2="71.3152">
<stop offset="0" stop-color="#fafcef"/>
<stop offset="0.3232" stop-color="#fafcef"/>
<stop offset="1" stop-color="#d0cbc5"/>
</linearGradient>
<linearGradient gradientUnits="userSpaceOnUse" x1="48.0005" x2="48.0005" y1="46.3408" y2="37.9269">
<stop offset="0" stop-color="#a09c98"/>
<stop offset="0.2593" stop-color="#a09c98"/>
<stop offset="1" stop-color="#f4f5e9" stop-opacity="0.0714"/>
</linearGradient>
<linearGradient gradientUnits="userSpaceOnUse" x1="47.9995" x2="47.9995" y1="24.6421" y2="71.3157">
<stop offset="0" stop-color="#fafcef"/>
<stop offset="0.3232" stop-color="#fafcef"/>
<stop offset="1" stop-color="#d0cbc5"/>
</linearGradient>
<linearGradient gradientUnits="userSpaceOnUse" x1="48.0005" x2="48.0005" y1="64.3408" y2="55.9269">
<stop offset="0" stop-color="#a09c98"/>
<stop offset="0.2593" stop-color="#a09c98"/>
<stop offset="1" stop-color="#f4f5e9" stop-opacity="0.0714"/>
</linearGradient>
<linearGradient gradientUnits="userSpaceOnUse" x1="47.9995" x2="47.9995" y1="8.2534" y2="87.4985">
<stop offset="0" stop-color="#ffffff"/>
<stop offset="1" stop-color="#ffffff" stop-opacity="0"/>
</linearGradient>
<rect fill="none" height="96" width="96"/>
<g display="none" transform="matrix(0.93240093,0,0,0.93240093,7.90676,7.90676)"/>
<path d="M 8.0 9.333334 L 8.0 48.0 C 8.0 70.09138 25.909555 88.0 48.0 88.0 L 86.66667 88.0 C 87.40327 88.0 88.0 87.40327 88.0 86.66667 L 88.0 48.0 C 88.0 25.907692 70.09045 8.0 48.0 8.0 L 9.333336 8.0 C 8.596739 8.0 8.000003 8.596737 8.000003 9.333333 z " fill="url(#linearGradient3104)"/>
<path color="#000000" d="M 22.875 24.625 L 22.875 72.1875 L 75.5625 72.1875 L 75.5625 24.625 L 22.875 24.625 z M 26.4375 27.84375 L 43.3125 27.84375 L 26.4375 68.96875 L 26.4375 27.84375 z M 55.15625 27.84375 L 72.0 27.84375 L 72.0 68.96875 L 55.15625 27.84375 z M 49.21875 42.9375 L 59.9375 68.96875 L 52.875 68.96875 L 49.65625 60.59375 L 41.71875 60.59375 L 49.21875 42.9375 z " display="inline" fill="#ffffff" fill-opacity="1" fill-rule="nonzero" stroke="none" stroke-width="5" visibility="visible"/>
</svg>
